<svg width="662" height="103" viewBox="0 0 662 103" fill="none" xmlns="http://www.w3.org/2000/svg">
<g clip-path="url(#clip0_587_22531)">
<path d="M102.8 103.221H-0.199951V0.222534H102.8V103.221Z" fill="#0054A6"/>
<mask id="mask0_587_22531" style="mask-type:luminance" maskUnits="userSpaceOnUse" x="-637" y="-434" width="1376" height="972">
<path d="M-637 -434H738.748V537.333H-637V-434Z" fill="white"/>
</mask>
<g mask="url(#mask0_587_22531)">
<path d="M65.1925 90.863H54.1925V86.1963C58.4805 85.383 62.2939 83.235 65.1925 80.2017V90.863ZM35.4792 69.3977V62.731C36.9952 56.0897 42.9352 51.1297 50.0365 51.1297C58.2859 51.1297 64.9712 57.8163 64.9712 66.0644C64.9712 74.3137 58.2859 81.0017 50.0365 81.0017C42.9352 81.0017 36.9952 76.0417 35.4792 69.3977ZM35.4792 41.8083H65.1925V51.835C61.4499 47.9177 56.1792 45.4737 50.3352 45.4737C44.4912 45.4737 39.2205 47.9177 35.4792 51.8363V41.8083ZM8.29787 35.6124L32.5725 11.5924L56.5939 35.6124H8.29787ZM64.8125 11.5924V35.6124L41.0432 11.5924H64.8125ZM70.7752 68.1057H102.799V62.0364H70.7552V32.8324C73.0312 34.727 75.6845 35.487 75.6845 35.487C79.9845 36.3723 83.2725 35.487 83.2725 35.487C88.7085 32.8323 89.7205 29.7963 89.7205 29.7963V0.223015H85.7645C80.3712 4.02969 81.2499 4.38569 81.2499 4.38569V32.8324C78.8459 35.2337 77.0752 32.8324 77.0752 32.8324V4.13236C75.0299 2.42169 73.2352 1.15902 71.6992 0.223015H65.1925V6.28168H-0.199463V12.083H23.3299L-0.199463 35.6124V42.0603H29.7912V66.0177V103.222H35.4792V80.2003C38.8525 83.7323 43.4699 86.0617 48.6299 86.487V96.3003H65.1925V103.222H70.6272V96.679H102.799V90.863H70.6272V69.235C70.6872 68.8617 70.7365 68.4857 70.7752 68.1057Z" fill="white"/>
</g>
</g>
<g clip-path="url(#clip1_587_22531)">
<mask id="mask1_587_22531" style="mask-type:luminance" maskUnits="userSpaceOnUse" x="-306" y="-436" width="1376" height="972">
<path d="M-306 -436H1069.75V535.333H-306V-436Z" fill="white"/>
</mask>
<g mask="url(#mask1_587_22531)">
<path d="M613.76 49.9959V34.8586H606.172V34.8666H603.771V35.5932C603.771 35.5932 606.164 35.9306 606.164 37.1332V45.4172H606.172V49.9959H594.052V34.8586H590.695V34.8532H584.072V35.5799C584.072 35.5799 586.446 35.9132 586.466 37.1066V49.9959H575.451V56.9839H627.96V49.9959H613.76ZM619.268 32.6599H626.856V3.67322H575.938V10.6639H619.268V32.6599Z" fill="#0054A6"/>
<path d="M136.177 93.5022H138.728C138.961 94.8502 139.733 95.5235 141.045 95.5235C142.346 95.5235 143.261 95.2315 143.792 94.6488C144.321 94.0688 144.588 92.4395 144.588 89.7648V75.6968H147.502V89.6422C147.502 92.6822 147.03 94.8782 146.089 96.2288C145.145 97.5835 143.469 98.2568 141.061 98.2568C139.67 98.2568 138.53 97.8275 137.642 96.9688C136.753 96.1062 136.265 94.9502 136.177 93.5022Z" fill="#0054A6"/>
<path d="M153.367 75.6975H156.282V90.9348C156.282 92.2935 156.697 93.4095 157.521 94.2855C158.346 95.1615 159.439 95.5988 160.801 95.5988C162.238 95.5988 163.37 95.1735 164.197 94.3228C165.022 93.4722 165.435 92.3175 165.435 90.8588V75.6975H168.35V91.1775C168.35 93.4268 167.677 95.1815 166.331 96.4428C164.985 97.7028 163.153 98.3335 160.83 98.3335C158.439 98.3335 156.598 97.7162 155.306 96.4815C154.013 95.2455 153.367 93.4722 153.367 91.1628V75.6975Z" fill="#0054A6"/>
<path d="M181.008 81.2276L177.7 91.0262H184.04L181.008 81.2276ZM186.342 97.9556L184.869 93.2596H176.926L175.353 97.9556H172.089L180.76 75.3929H181.532L189.578 97.9556H186.342Z" fill="#0054A6"/>
<path d="M207.117 98.2573L196.083 81.9867V97.9547H193.314V75.6973H194.479L205.222 91.0867V75.6973H207.991V98.2573H207.117Z" fill="#0054A6"/>
<path d="M224.851 75.6968H227.765V97.9541H224.851V75.6968Z" fill="#0054A6"/>
<path d="M247.943 98.2573L236.91 81.9867V97.9547H234.141V75.6973H235.306L246.049 91.0867V75.6973H248.818V98.2573H247.943Z" fill="#0054A6"/>
<path d="M262.465 78.4321V97.9561H259.551V78.4321H252.759V75.6974H269.563V78.4321H262.465Z" fill="#0054A6"/>
<path d="M276.42 78.4321V84.6147H283.473V87.1974H276.42V95.2214H286.098V97.9561H273.504V75.6974H286.258V78.4321H276.42Z" fill="#0054A6"/>
<path d="M294.047 78.4321V85.6641C294.746 85.7654 295.427 85.8161 296.086 85.8161C297.838 85.8161 299.109 85.5201 299.906 84.9334C300.703 84.3481 301.102 83.2974 301.102 81.7894C301.102 80.5441 300.674 79.6481 299.818 79.1001C298.963 78.5521 297.614 78.2801 295.769 78.2801C295.477 78.2801 294.902 78.3307 294.047 78.4321ZM302.835 97.9561L297.135 88.3987C296.487 88.3987 295.455 88.3481 294.047 88.2467V97.9561H291.131V75.6974C291.239 75.6974 291.994 75.6587 293.399 75.5827C294.801 75.5081 295.825 75.4681 296.466 75.4681C301.597 75.4681 304.161 77.5961 304.161 81.8507C304.161 83.2467 303.75 84.5081 302.922 85.6267C302.097 86.7441 301.114 87.4427 299.979 87.7147L306.174 97.9561H302.835Z" fill="#0054A6"/>
<path d="M323.656 98.2573L312.623 81.9867V97.9547H309.851V75.6973H311.017L321.76 91.0867V75.6973H324.528V98.2573H323.656Z" fill="#0054A6"/>
<path d="M337.187 81.2276L333.878 91.0262H340.218L337.187 81.2276ZM342.521 97.9556L341.049 93.2596H333.103L331.531 97.9556H328.269L336.939 75.3929H337.711L345.758 97.9556H342.521Z" fill="#0054A6"/>
<path d="M354.375 78.4321V97.9561H351.46V78.4321H344.669V75.6974H361.473V78.4321H354.375Z" fill="#0054A6"/>
<path d="M365.924 75.6968H368.839V97.9541H365.924V75.6968Z" fill="#0054A6"/>
<path d="M377.255 86.6365C377.255 89.1885 377.739 91.3219 378.706 93.0325C379.671 94.7445 381.034 95.5992 382.794 95.5992C384.786 95.5992 386.304 94.8152 387.348 93.2445C388.394 91.6739 388.914 89.4712 388.914 86.6365C388.914 80.9032 386.875 78.0379 382.794 78.0379C380.987 78.0379 379.612 78.8072 378.67 80.3459C377.727 81.8859 377.255 83.9819 377.255 86.6365ZM374.195 86.6365C374.195 83.4165 374.968 80.7205 376.518 78.5525C378.067 76.3872 380.162 75.3019 382.794 75.3019C385.758 75.3019 388.028 76.3005 389.607 78.2952C391.187 80.2912 391.976 83.0699 391.976 86.6365C391.976 90.2912 391.184 93.1565 389.602 95.2272C388.018 97.2992 385.747 98.3325 382.794 98.3325C380.102 98.3325 377.998 97.2392 376.474 95.0525C374.952 92.8659 374.195 90.0592 374.195 86.6365Z" fill="#0054A6"/>
<path d="M410.622 98.2573L399.589 81.9867V97.9547H396.82V75.6973H397.986L408.726 91.0867V75.6973H411.497V98.2573H410.622Z" fill="#0054A6"/>
<path d="M424.154 81.2276L420.847 91.0262H427.184L424.154 81.2276ZM429.49 97.9556L428.015 93.2596H420.072L418.5 97.9556H415.235L423.906 75.3929H424.678L432.724 97.9556H429.49Z" fill="#0054A6"/>
<path d="M436.464 97.9556V75.6982H439.378V95.2209H449.026V97.9556H436.464Z" fill="#0054A6"/>
<path d="M462.448 75.6975H465.362V90.9348C465.362 92.2935 465.776 93.4095 466.601 94.2855C467.426 95.1615 468.521 95.5988 469.88 95.5988C471.317 95.5988 472.45 95.1735 473.276 94.3228C474.101 93.4722 474.516 92.3175 474.516 90.8588V75.6975H477.429V91.1775C477.429 93.4268 476.757 95.1815 475.412 96.4428C474.065 97.7028 472.232 98.3335 469.909 98.3335C467.518 98.3335 465.677 97.7162 464.385 96.4815C463.09 95.2455 462.448 93.4722 462.448 91.1628V75.6975Z" fill="#0054A6"/>
<path d="M497.096 98.2573L486.063 81.9867V97.9547H483.294V75.6973H484.46L495.2 91.0867V75.6973H497.971V98.2573H497.096Z" fill="#0054A6"/>
<path d="M504.347 75.6968H507.261V97.9541H504.347V75.6968Z" fill="#0054A6"/>
<path d="M521.07 98.2573H519.598L511.638 75.6973H514.876L520.37 92.0907L525.661 75.6973H528.794L521.07 98.2573Z" fill="#0054A6"/>
<path d="M535.575 78.4321V84.6147H542.63V87.1974H535.575V95.2214H545.255V97.9561H532.661V75.6974H545.417V78.4321H535.575Z" fill="#0054A6"/>
<path d="M553.206 78.4321V85.6641C553.903 85.7654 554.583 85.8161 555.244 85.8161C556.995 85.8161 558.266 85.5201 559.063 84.9334C559.859 84.3481 560.26 83.2974 560.26 81.7894C560.26 80.5441 559.831 79.6481 558.976 79.1001C558.123 78.5521 556.771 78.2801 554.924 78.2801C554.632 78.2801 554.06 78.3307 553.206 78.4321ZM561.992 97.9561L556.294 88.3987C555.643 88.3987 554.612 88.3481 553.206 88.2467V97.9561H550.288V75.6974C550.396 75.6974 551.151 75.6587 552.558 75.5827C553.958 75.5081 554.984 75.4681 555.622 75.4681C560.755 75.4681 563.32 77.5961 563.32 81.8507C563.32 83.2467 562.906 84.5081 562.08 85.6267C561.255 86.7441 560.274 87.4427 559.138 87.7147L565.331 97.9561H561.992Z" fill="#0054A6"/>
<path d="M568.05 96.937L569.112 94.1397C569.656 94.557 570.334 94.9037 571.143 95.1823C571.956 95.461 572.683 95.5983 573.323 95.5983C574.462 95.5983 575.375 95.2757 576.066 94.6277C576.752 93.9783 577.099 93.153 577.099 92.1503C577.099 91.4023 576.907 90.705 576.523 90.061C576.138 89.4183 575.175 88.717 573.631 87.9583L571.911 87.1223C570.454 86.4117 569.435 85.573 568.856 84.5997C568.279 83.6277 567.99 82.4583 567.99 81.0903C567.99 79.4303 568.555 78.0517 569.68 76.9583C570.807 75.8637 572.255 75.317 574.023 75.317C576.386 75.317 578.026 75.7183 578.951 76.5183L578.088 79.161C577.703 78.8663 577.11 78.5823 576.312 78.309C575.516 78.037 574.776 77.901 574.096 77.901C573.104 77.901 572.326 78.193 571.758 78.781C571.188 79.3677 570.907 80.1223 570.907 81.0463C570.907 81.6117 571.006 82.129 571.211 82.5957C571.416 83.0597 571.698 83.4517 572.066 83.765C572.427 84.077 573.175 84.5197 574.302 85.0863L576.05 85.953C577.508 86.6717 578.528 87.5277 579.118 88.5277C579.706 89.525 580 90.7943 580 92.333C580 94.005 579.356 95.421 578.068 96.585C576.782 97.7517 575.06 98.333 572.902 98.333C571.006 98.333 569.388 97.869 568.05 96.937Z" fill="#0054A6"/>
<path d="M585.369 75.6968H588.284V97.9541H585.369V75.6968Z" fill="#0054A6"/>
<path d="M602.443 78.4321V97.9561H599.528V78.4321H592.737V75.6974H609.539V78.4321H602.443Z" fill="#0054A6"/>
<path d="M621.279 87.9867V97.9561H618.361V87.9867L611.481 75.6974H614.487L619.805 85.4201L625.125 75.6974H628.128L621.279 87.9867Z" fill="#0054A6"/>
<path d="M159.37 58.0103V39.3836H136.854V32.3969H189.354V39.3836H166.958V58.0103H159.37ZM152.885 10.6636H137.344V3.67693H188.864V10.6636H173.2L189.354 26.9623H179.685L163.042 10.6636L146.521 26.9623H136.732L152.885 10.6636Z" fill="#0054A6"/>
<path d="M208.249 11.755C209.586 10.2496 211.162 9.49763 212.971 9.49763C214.783 9.49763 216.358 10.2496 217.695 11.755C219.034 13.2576 219.703 15.0296 219.703 17.0603C219.703 19.191 219.034 21.003 217.695 22.5056C216.358 24.011 214.783 24.763 212.971 24.763C211.162 24.763 209.586 24.011 208.249 22.5056C206.913 21.003 206.241 19.191 206.241 17.0603C206.241 15.0296 206.913 13.2576 208.249 11.755ZM212.971 31.7496C216.954 31.7496 220.339 30.3323 223.118 27.491C225.898 24.655 227.29 21.1576 227.29 17.0043C227.29 13.019 225.898 9.60564 223.118 6.76963C220.339 3.9323 216.954 2.51097 212.971 2.51097C208.989 2.51097 205.605 3.9323 202.823 6.76963C200.043 9.60564 198.653 13.019 198.653 17.0043C198.653 21.1576 200.043 24.655 202.823 27.491C205.605 30.3323 208.989 31.7496 212.971 31.7496ZM250.91 10.5323V3.6763H243.323H241.074V4.4043C241.074 4.4043 242.809 4.65364 243.323 5.4723V32.5243H250.91V17.519H256.415V10.5323H250.91ZM207.586 36.0176H200.002V56.9736H250.786V49.9896H207.586V36.0176Z" fill="#0054A6"/>
<path d="M307.081 3.67595V3.69328H304.737V4.41728C304.737 4.41728 306.75 4.70662 307.081 5.68395V18.6813H300.961V3.67595H293.373V3.71328H291.013V4.43728C291.013 4.43728 293.098 4.73328 293.373 5.75461V58.0093H300.961V25.6693H307.081V58.0093H314.666V3.67595H307.081ZM261.679 43.5679H287.253V36.5839H269.265V10.6639H287.253V3.67595H261.679V43.5679Z" fill="#0054A6"/>
<path d="M376.221 10.5324V3.67644H368.639V3.69376H366.257V4.41777C366.257 4.41777 368.456 4.7311 368.639 5.8151V29.1631H376.221V17.5191H381.732V10.5324H376.221ZM325.312 41.8391H368.639V58.0098H376.221V34.8524H325.312V41.8391ZM336.208 13.8538C337.36 12.5884 338.724 11.9538 340.305 11.9538C341.888 11.9538 343.252 12.5884 344.396 13.8538C345.544 15.1138 346.12 16.6164 346.12 18.3591C346.12 20.1031 345.563 21.6058 344.456 22.8658C343.349 24.1324 342.005 24.7631 340.424 24.7631C338.844 24.7631 337.456 24.1324 336.271 22.8658C335.085 21.6058 334.492 20.1031 334.492 18.3591C334.492 16.6164 335.063 15.1138 336.208 13.8538ZM327.229 14.8551C327.013 15.8658 326.904 16.9564 326.904 18.1324C326.904 21.8324 328.195 25.0258 330.787 27.7138C333.375 30.4018 336.505 31.7498 340.18 31.7498C343.852 31.7498 347.027 30.4258 349.697 27.7778C352.367 25.1298 353.705 21.9564 353.705 18.2564C353.705 17.0818 353.581 15.9698 353.339 14.9191C353.093 13.8671 352.685 12.8804 352.115 11.9538H356.521V4.9671H344.404V0.439102H334.427V1.1671C334.427 1.1671 336.8 1.50444 336.815 2.69643V4.9671H324.091V11.9538H328.339C327.815 12.8804 327.448 13.8471 327.229 14.8551Z" fill="#0054A6"/>
<path d="M513.294 41.8396H556.614V58.0103H564.203V34.8529H513.294V41.8396ZM524.193 13.8543C525.341 12.5876 526.703 11.9543 528.283 11.9543C529.865 11.9543 531.231 12.5876 532.375 13.8543C533.526 15.1143 534.097 16.6169 534.097 18.3583C534.097 20.1036 533.545 21.6063 532.437 22.8663C531.327 24.1329 529.987 24.7623 528.403 24.7623C526.821 24.7623 525.437 24.1329 524.25 22.8663C523.065 21.6063 522.471 20.1036 522.471 18.3583C522.471 16.6169 523.043 15.1143 524.193 13.8543ZM515.21 14.8543C514.991 15.8649 514.885 16.9569 514.885 18.1329C514.885 21.8316 516.177 25.0249 518.766 27.7143C521.357 30.4023 524.487 31.7503 528.158 31.7503C531.833 31.7503 535.005 30.4249 537.677 27.7783C540.349 25.1303 541.687 21.9556 541.687 18.2569C541.687 17.0809 541.562 15.9703 541.318 14.9183C541.073 13.8676 540.663 12.8809 540.094 11.9543H544.497V4.96626H532.385V0.43959H522.406V1.16626C522.406 1.16626 524.775 1.50359 524.797 2.69692V4.96626H512.07V11.9543H516.318C515.797 12.8809 515.43 13.8476 515.21 14.8543ZM564.203 10.5329V3.67559H556.614V3.69292H554.239V4.41826C554.239 4.41826 556.433 4.73026 556.614 5.81559V29.1623H564.203V17.5196H569.711V10.5329H564.203Z" fill="#0054A6"/>
<path d="M395.557 41.3203H387.969V56.9736H439.979V49.9883H395.557V41.3203ZM432.391 3.6763V3.70697H430.041V4.43364C430.041 4.43364 432.085 4.7243 432.391 5.71763V24.5096H421.992V31.4963H439.979V3.6763H432.391ZM397.479 18.6816C396.363 17.475 395.803 16.0536 395.803 14.4123C395.803 12.6883 396.363 11.243 397.479 10.0763C398.601 8.91497 399.893 8.3323 401.367 8.3323C402.912 8.3323 404.183 8.91497 405.188 10.0763C406.196 11.243 406.693 12.6883 406.693 14.4123C406.693 16.0536 406.196 17.475 405.188 18.6816C404.183 19.891 402.912 20.4936 401.367 20.4936C399.893 20.4936 398.601 19.891 397.479 18.6816ZM397.513 36.5603H405.101V31.4896H418.076V24.503H410.12C411.347 23.2963 412.344 21.831 413.117 20.1056C413.893 18.3816 414.281 16.5696 414.281 14.6723C414.281 10.879 412.992 7.7083 410.421 5.16163C407.847 2.61897 404.789 1.34563 401.251 1.34563C397.617 1.34563 394.541 2.61897 392.011 5.16163C389.476 7.7083 388.213 10.879 388.213 14.6723C388.213 16.5696 388.56 18.3816 389.252 20.1056C389.945 21.831 390.945 23.2963 392.252 24.503H388.213V31.4896H397.513V36.5603Z" fill="#0054A6"/>
<path d="M494.755 3.67595V3.70661H492.419V4.43462C492.419 4.43462 494.4 4.71728 494.755 5.67728V18.6813H488.632V3.67595H481.05V3.70661H478.739V4.43462C478.739 4.43462 480.632 4.70395 481.05 5.61328V58.0093H488.632V25.6693H494.755V58.0093H502.34V3.67595H494.755ZM449.354 43.5679H474.93V36.5839H456.94V10.6639H474.93V3.67595H449.354V43.5679Z" fill="#0054A6"/>
<path d="M439.976 25.13H432.388V35.998H439.976V25.13Z" fill="#0054A6"/>
</g>
</g>
<defs>
<clipPath id="clip0_587_22531">
<rect width="103" height="103" fill="white"/>
</clipPath>
<clipPath id="clip1_587_22531">
<rect width="526" height="98" fill="white" transform="translate(136)"/>
</clipPath>
</defs>
</svg>
