<svg width="698" height="103" viewBox="0 0 698 103" fill="none" xmlns="http://www.w3.org/2000/svg">
<g clip-path="url(#clip0_2_616)">
<path d="M38.9809 103C0.306604 103 0 70.4424 0 70.4424V42.5692V13.697H11.2939V67.8535C11.2939 67.8535 10.9819 92.5374 39.0055 92.9847C67.0181 92.5374 66.717 67.8535 66.717 67.8535V13.697H78V42.5692V70.4424C78 70.4424 77.6552 103 38.9809 103ZM38.7998 100.059C39.8232 100.059 40.6558 99.24 40.6558 98.2113C40.6558 97.192 39.8232 96.3746 38.7998 96.3746C37.7751 96.3746 36.9411 97.192 36.9411 98.2113C36.9411 99.24 37.7751 100.059 38.7998 100.059Z" fill="#B2B1B1"/>
<path d="M27.7211 0.0162773V53.1223H28.8548V0.0162773H27.7211Z" fill="#B2B1B1"/>
<path d="M31.9603 0.0162773V53.1223H33.09V0.0162773H31.9603Z" fill="#B2B1B1"/>
<path d="M36.1946 0.0162773V53.1223H37.3297V0.0162773H36.1946Z" fill="#B2B1B1"/>
<path d="M40.4298 0.0162773V53.1223H41.569V0.0162773H40.4298Z" fill="#B2B1B1"/>
<path d="M44.6609 0.0162773V53.1223H45.8042V0.0162773H44.6609Z" fill="#B2B1B1"/>
<path d="M48.8767 1.14441e-05V53.1223H50.0091V1.14441e-05H48.8767Z" fill="#B2B1B1"/>
<path d="M27.7169 69.3838V93.7085H28.8507V69.3838H27.7169Z" fill="#B2B1B1"/>
<path d="M31.9563 69.3838V93.7085H33.086V69.3838H31.9563Z" fill="#B2B1B1"/>
<path d="M36.1904 69.3838V93.7085H37.3255V69.3838H36.1904Z" fill="#B2B1B1"/>
<path d="M40.4257 69.3838V93.7085H41.5649V69.3838H40.4257Z" fill="#B2B1B1"/>
<path d="M44.6569 69.3838V93.7085H45.8002V69.3838H44.6569Z" fill="#B2B1B1"/>
<path d="M48.8727 69.377V93.7085H50.0051V69.377H48.8727Z" fill="#B2B1B1"/>
<path d="M26.0997 41.8738V50.5947H17.3472V41.8738H26.0997ZM51.6146 41.8738V50.5947H60.3807V41.8738H51.6146ZM42.9234 33.2587V41.9701H51.6854V33.2587H42.9234ZM26.0138 33.2587V41.9701H34.7704V33.2587H26.0138ZM54.0919 61.666C54.0919 70.1564 47.1831 77.0204 38.665 77.0204C30.1428 77.0204 23.2326 70.1564 23.2326 61.666C23.2326 53.1931 30.1428 46.3292 38.665 46.3292C47.1831 46.3292 54.0919 53.1931 54.0919 61.666ZM38.7713 68.0623C42.2407 68.0623 45.0587 65.2646 45.0587 61.8001C45.0587 58.3533 42.2407 55.5448 38.7713 55.5448C35.2951 55.5448 32.4839 58.3533 32.4839 61.8001C32.4839 65.2646 35.2951 68.0623 38.7713 68.0623Z" fill="#214395"/>
<path d="M54.2841 93.356L55.0962 95.1466L57.1552 94.214L56.3417 92.4235L56.9454 92.1565L58.8681 96.3651L58.2604 96.6416L57.376 94.6898L55.317 95.6318L56.2082 97.5741L55.6004 97.8398L53.6818 93.6325L54.2841 93.356Z" fill="white"/>
<path d="M59.8534 90.2629L64.18 92.8817L63.6349 93.2612L62.4766 92.5658L60.6683 93.8318L60.9545 95.1561L60.3999 95.5464L59.3574 90.614L59.8534 90.2629ZM60.543 93.2815L61.9847 92.2622L60.0742 91.1006L60.543 93.2815Z" fill="white"/>
<path d="M62.4176 88.121L66.6856 88.9302L63.9984 86.4362L64.4331 85.9685L67.8357 89.1104L67.3328 89.6526L63.0745 88.8624L65.7644 91.3388L65.3229 91.8145L61.9216 88.6632L62.4176 88.121Z" fill="white"/>
<path d="M65.4239 84.5035L69.2381 87.1507L68.8592 87.6725L65.0505 85.0267L65.4239 84.5035Z" fill="white"/>
<path d="M66.4185 82.9515L70.046 84.8938L71.143 82.8457L71.6158 83.0939L70.2041 85.7126L66.1038 83.5222L66.4185 82.9515Z" fill="white"/>
<path d="M68.9754 76.9629L71.9692 77.6962C72.2145 77.7639 72.4775 77.7246 72.7691 77.6107C73.0621 77.4767 73.2529 77.2299 73.3387 76.8774C73.4314 76.5264 73.377 76.2295 73.1766 75.9734C72.9804 75.7266 72.7637 75.5735 72.517 75.5071L69.5205 74.7657L69.6746 74.2032L72.6207 74.9161C73.005 75.0219 73.3388 75.2685 73.6359 75.6494C73.933 76.0303 74.0093 76.4776 73.8703 77.0198C73.7408 77.5443 73.4547 77.8954 73.0132 78.1068C72.5744 78.3061 72.1615 78.3522 71.7799 78.2573L68.8311 77.5335L68.9754 76.9629Z" fill="white"/>
<path d="M69.9645 72.4525L73.6355 70.1564H69.9645V69.5193H74.6071V70.2526L70.947 72.5473H74.6071V73.1858H69.9645V72.4525Z" fill="white"/>
<path d="M69.9603 67.4723H74.6071V68.1189H69.9603V67.4723Z" fill="white"/>
<path d="M69.9603 61.6833L74.6071 63.627V64.2559L69.9603 66.2078V65.5206L73.7404 63.9306L69.9603 62.38V61.6833Z" fill="white"/>
<path d="M69.9645 57.487H70.4973V59.8576H71.9322V57.5534H72.4677V59.8576H74.0757V57.4205H74.6071V60.5137H69.9645V57.487Z" fill="white"/>
<path d="M72.3342 54.345C72.3342 54.0971 72.2471 53.8896 72.0752 53.689C71.9036 53.498 71.6732 53.4043 71.4007 53.4043C71.1186 53.4043 70.8897 53.4979 70.7125 53.6985C70.5258 53.8894 70.4482 54.097 70.4482 54.345V55.5351H74.6071V56.1342H69.9645V54.2406C69.9645 53.8896 70.0954 53.5643 70.3624 53.2593C70.6295 52.9747 70.9701 52.8134 71.4007 52.8134C71.8218 52.8134 72.1611 52.9841 72.4255 53.2878C72.6884 53.6117 72.8234 53.9357 72.8234 54.2799L74.6071 52.831V53.5263L72.3342 55.4104V54.345Z" fill="white"/>
<path d="M70.6868 49.2714C70.4727 49.4138 70.3679 49.6414 70.3679 49.9464C70.3679 50.2432 70.4483 50.4601 70.6118 50.6133C70.7753 50.7651 70.9511 50.8518 71.1433 50.8518C71.3858 50.8518 71.5684 50.6716 71.6924 50.3286C71.8219 49.9748 71.9405 49.6996 72.0371 49.4706C72.161 49.1941 72.3042 48.9474 72.4732 48.7088C72.649 48.4717 72.927 48.3577 73.314 48.3577C73.6751 48.3577 73.9899 48.5002 74.2869 48.8145C74.5731 49.1195 74.7162 49.499 74.7162 49.9463C74.7162 50.4885 74.5445 50.8992 74.2052 51.1933C73.8645 51.4698 73.5211 51.6122 73.1668 51.6122V50.9656C73.4434 50.9939 73.6833 50.8993 73.8795 50.6986C74.0757 50.517 74.1806 50.2608 74.1806 49.9463C74.1806 49.6129 74.0852 49.3757 73.8986 49.2225C73.7119 49.0612 73.5293 48.9851 73.3385 48.9851C73.1192 48.9851 72.9461 49.0707 72.8316 49.2508C72.7172 49.4324 72.6203 49.6127 72.525 49.8323C72.3723 50.1468 72.2238 50.4992 72.0753 50.899C71.9173 51.2989 71.6215 51.4981 71.1759 51.4981C70.8162 51.4981 70.5055 51.3368 70.2275 51.0413C69.9604 50.7458 69.8269 50.3745 69.8269 49.9461C69.8269 49.5097 69.97 49.1478 70.2575 48.8618C70.534 48.5853 70.8557 48.443 71.195 48.4145V49.0516C71.0655 49.0516 70.898 49.1276 70.6868 49.2714Z" fill="white"/>
<path d="M69.9603 46.2529H74.6071V46.9103H69.9603V46.2529Z" fill="white"/>
<path d="M74.6071 43.5881H70.4973V44.8921H69.9645V41.6282H70.4973V42.9308H74.6071V43.5881Z" fill="white"/>
<path d="M69.9645 39.7334L72.2524 38.4471L69.9645 37.1635V36.4302L72.9419 38.1136H74.6071V38.7615H72.9419L69.9645 40.4667V39.7334Z" fill="white"/>
<path d="M6.70037 37.0102C6.54632 36.9236 6.37877 36.887 6.21253 36.887C5.82827 36.887 5.50803 37.0577 5.24366 37.4197C4.971 37.7802 4.83349 38.1909 4.83349 38.6558C4.83349 39.1234 4.97108 39.5233 5.24366 39.8933C5.50795 40.2566 5.82827 40.4464 6.21253 40.4464C6.37886 40.4464 6.54637 40.3989 6.70037 40.3134C6.86112 40.2279 7.00697 40.1047 7.13506 39.961V40.6943C7.13506 40.8745 7.21684 40.9803 7.37898 40.9803C7.54113 40.9803 7.6229 40.884 7.6229 40.6943V39.2006L8.24974 39.2089C8.30276 39.2089 8.3357 39.1806 8.36416 39.152C8.38091 39.1234 8.39288 39.0857 8.39819 39.0382L8.47858 37.962C8.48975 37.8765 8.4702 37.829 8.40768 37.8007C8.34629 37.7813 8.28376 37.829 8.21678 37.9431C8.15399 38.0394 8.08731 38.0963 8.03959 38.1138C7.98238 38.1424 7.91567 38.1532 7.8325 38.1532H7.62265V37.1055C7.62265 36.9157 7.6366 36.772 7.65139 36.6785C7.67093 36.5727 7.70442 36.4684 7.75215 36.3533C7.79038 36.2869 7.79566 36.23 7.76049 36.1728C7.72226 36.1254 7.65975 36.1253 7.56431 36.1922L7.25225 36.439C7.21542 36.4879 7.18693 36.5162 7.16628 36.5542C7.14395 36.5909 7.13366 36.668 7.13366 36.7819V37.3525C7.00556 37.2101 6.861 37.0956 6.70037 37.0102ZM6.83123 38.1915C7.01374 38.3242 7.1053 38.4761 7.1053 38.6564C7.1053 38.8299 7.01402 38.9817 6.83123 39.124C6.65011 39.2581 6.44013 39.3234 6.21121 39.3234C5.97008 39.3234 5.76016 39.2584 5.59255 39.124C5.41673 38.9816 5.32968 38.8299 5.32968 38.6564C5.32968 38.476 5.41673 38.3243 5.59255 38.1915C5.76027 38.0574 5.97003 37.9828 6.21121 37.9828C6.44005 37.9828 6.64999 38.0574 6.83123 38.1915ZM8.16257 42.4842C8.17652 42.4842 8.2008 42.4759 8.23875 42.4648C8.2728 42.4565 8.29598 42.4078 8.30156 42.3318L8.43106 40.9804C8.43943 40.9315 8.4171 40.8949 8.35347 40.8747C8.30156 40.8464 8.25941 40.8747 8.22006 40.941C8.18182 41.0373 8.12463 41.1428 8.06211 41.2745C7.99541 41.4085 7.89439 41.4846 7.75142 41.4846H4.06673C4.00952 41.4846 3.97127 41.493 3.94281 41.5227C3.92327 41.551 3.90878 41.6082 3.90878 41.6651V41.9511C3.90878 42.1043 3.97154 42.2275 4.07759 42.3319C4.19619 42.4268 4.32433 42.4838 4.45918 42.4838H6.1148V43.3309C6.1148 43.4936 6.21445 43.5791 6.42144 43.5707C6.62182 43.5707 6.71716 43.4936 6.71306 43.3309L6.65583 42.4838L8.16257 42.4842ZM4.32977 37.554C4.27786 37.5254 4.23013 37.5624 4.19218 37.649C4.16371 37.7059 4.12939 37.8008 4.07776 37.9336C4.02864 38.0677 3.94293 38.1246 3.8366 38.1246C3.38693 38.1246 3.1008 38.1246 2.98224 38.1246C2.72745 38.1246 2.56385 38.2195 2.47801 38.3997C2.39205 38.5812 2.34851 38.7412 2.34851 38.8754V42.2938C2.34851 42.4931 2.42079 42.6069 2.57484 42.6069C2.72192 42.6069 2.79841 42.4931 2.79841 42.2938V39.648C2.79841 39.4459 2.83244 39.3322 2.89384 39.2753C2.95663 39.2278 3.06828 39.2006 3.21543 39.2006C3.70329 39.2006 4.01805 39.2006 4.15296 39.2006C4.22105 39.2006 4.27825 39.1423 4.31648 39.0568L4.40246 37.6675C4.40804 37.62 4.38251 37.5823 4.32977 37.554Z" fill="white"/>
<path d="M5.23537 51.5934C5.17816 51.5934 5.13996 51.6128 5.11149 51.6423C5.08275 51.6617 5.07325 51.7181 5.07325 51.7847V52.1086C5.07325 52.2605 5.13043 52.3837 5.24346 52.4895C5.36067 52.5831 5.48322 52.64 5.62778 52.64H8.16373C8.1721 52.64 8.20195 52.6316 8.23042 52.6233C8.27395 52.6149 8.28901 52.5663 8.2971 52.4903L8.43193 51.0997C8.4403 51.0428 8.41239 51.0033 8.35434 50.9858C8.30243 50.9664 8.26027 50.9858 8.22092 51.063C8.17739 51.1485 8.12549 51.2515 8.06298 51.3951C7.9907 51.5278 7.88717 51.5944 7.75229 51.5944L5.23537 51.5934ZM7.41702 47.9971C7.60903 48.1395 7.71277 48.321 7.71277 48.5392C7.71277 48.7574 7.6092 48.9486 7.41702 49.0923C7.22223 49.2347 6.99599 49.301 6.72891 49.301C6.46993 49.301 6.24515 49.2347 6.04893 49.0923C5.85135 48.9485 5.75732 48.7575 5.75732 48.5392C5.75732 48.3211 5.85137 48.1394 6.04893 47.9971C6.24512 47.8533 6.47001 47.7869 6.72891 47.7869C6.99599 47.7869 7.22217 47.8533 7.41702 47.9971ZM7.76728 47.2258C7.48385 46.8734 7.135 46.7013 6.72891 46.7013C6.32693 46.7013 5.98212 46.8734 5.69596 47.2258C5.41252 47.5877 5.27357 48.0161 5.27357 48.5392C5.27357 49.0625 5.41252 49.5003 5.69596 49.8527C5.98212 50.2051 6.32693 50.3759 6.72891 50.3759C7.135 50.3759 7.48385 50.2052 7.76728 49.8527C8.05888 49.5003 8.19788 49.0625 8.19788 48.5392C8.19788 48.0161 8.05891 47.5877 7.76728 47.2258ZM4.63719 52.5473C4.69022 52.5473 4.72705 52.5389 4.7477 52.5092C4.76723 52.4898 4.77614 52.4523 4.77614 52.3954V48.3874C4.77614 48.2356 4.78451 48.1014 4.81298 48.0161C4.84144 47.9306 4.88108 47.825 4.91931 47.7205C4.94806 47.6541 4.93329 47.6053 4.88529 47.5687C4.83338 47.5404 4.79542 47.5492 4.7477 47.5881L4.44109 47.8252C4.40286 47.8632 4.3688 47.9106 4.35401 47.9592C4.33727 48.0053 4.32527 48.0908 4.32527 48.2074C4.32527 50.3869 4.32527 51.4618 4.32527 51.4523H3.75707V47.6259C3.75707 47.5973 3.75148 47.5595 3.73195 47.5404C3.72357 47.5209 3.69369 47.5023 3.64597 47.5023C3.57927 47.5023 3.53014 47.577 3.49331 47.7397C3.46456 47.8916 3.36385 47.9673 3.19492 47.9673H2.96607C2.78495 47.9673 2.62128 48.0162 2.49318 48.1111C2.36369 48.2074 2.297 48.4527 2.297 48.8444V52.4337C2.297 52.6044 2.37207 52.7007 2.52584 52.7007C2.67571 52.7007 2.7466 52.6044 2.7466 52.4337V49.1955C2.75497 49.1494 2.76894 49.1006 2.79433 49.0817C2.81387 49.0622 2.85152 49.053 2.89394 49.053H3.30138V52.2329C3.30138 52.3184 3.3301 52.3956 3.38731 52.4525C3.45011 52.5188 3.52211 52.5474 3.59857 52.5474L4.63719 52.5473Z" fill="white"/>
<path d="M5.61299 59.0958C5.34033 59.4102 5.16875 59.6664 5.09109 59.8467C5.04894 59.9891 5.02831 60.1056 5.0339 60.2086C5.03948 60.3049 5.07353 60.3807 5.14832 60.447C5.24376 60.542 5.38942 60.542 5.57071 60.4276C5.75322 60.3327 5.91137 60.1794 6.03947 60.0087C6.07212 59.9599 6.09671 59.8949 6.1062 59.808C6.11178 59.7323 6.14442 59.6088 6.20163 59.4571C6.24935 59.3324 6.30794 59.2089 6.37324 59.0952C6.44134 58.9814 6.50804 58.8755 6.57641 58.801C6.71818 58.9039 6.86124 58.9894 7.00706 59.0747C7.15023 59.1518 7.30276 59.2185 7.46083 59.2754V60.3041C7.46083 60.494 7.54121 60.5901 7.68968 60.5901C7.84764 60.5901 7.9241 60.4938 7.9241 60.3041V57.5146C7.9241 57.3234 7.92407 57.1718 7.94361 57.0756C7.95756 56.9726 7.98996 56.8667 8.03908 56.7434C8.06755 56.6771 8.06753 56.6188 8.03069 56.5822C8.00223 56.5253 7.94474 56.5253 7.87134 56.5822L7.58109 56.8586C7.54146 56.8953 7.513 56.9333 7.48983 56.9616C7.47588 57.001 7.46139 57.0674 7.46139 57.1812V58.0284C7.16841 58.0117 6.78685 57.8576 6.32218 57.5716C5.85749 57.2869 5.46093 56.8952 5.12571 56.391C5.04952 56.2772 4.96775 56.2486 4.89128 56.2961C4.81091 56.3422 4.80004 56.4588 4.86897 56.6106C5.02972 57.0009 5.21781 57.352 5.44811 57.6665C5.66886 57.9823 5.91278 58.2574 6.17442 58.496C6.07367 58.5815 5.88554 58.7813 5.61299 59.0958ZM4.02002 59.3432C4.18356 59.5425 4.26113 59.7607 4.26113 60.0087C4.26113 60.2472 4.18356 60.475 4.02002 60.6756C3.86317 60.8844 3.66711 60.9806 3.41362 60.9806C3.16831 60.9806 2.96393 60.8843 2.80041 60.6756C2.64357 60.4749 2.56599 60.2473 2.56599 60.0087C2.56599 59.7606 2.64357 59.5425 2.80041 59.3432C2.96395 59.1425 3.16834 59.0477 3.41362 59.0477C3.66702 59.0477 3.86331 59.1427 4.02002 59.3432ZM4.39475 58.6275C4.174 58.1992 3.84834 57.9905 3.41362 57.9905C2.98711 57.9905 2.65734 58.1992 2.43385 58.6275C2.2131 59.0572 2.09863 59.514 2.09863 60.0087C2.09863 60.513 2.21305 60.9806 2.43385 61.3981C2.65739 61.8169 2.98711 62.0365 3.41362 62.0365C3.84834 62.0365 4.174 61.8169 4.39475 61.3981C4.62499 60.9806 4.72861 60.513 4.72861 60.0087C4.72861 59.514 4.62508 59.0572 4.39475 58.6275ZM6.91981 62.2926C6.92539 62.2926 7.34224 62.2926 8.1653 62.2926C8.17367 62.2926 8.20352 62.2927 8.23199 62.2843C8.27552 62.2732 8.29062 62.2274 8.29871 62.1502L8.43349 60.7609C8.44186 60.704 8.41395 60.6754 8.3559 60.6471C8.304 60.6276 8.26188 60.6471 8.22253 60.712C8.179 60.7986 8.12706 60.9128 8.06455 61.0468C7.99785 61.1892 7.88873 61.2556 7.75385 61.2556H4.85406C4.79685 61.2556 4.74913 61.264 4.72457 61.3031C4.69945 61.3317 4.68245 61.3803 4.68245 61.4455V61.7707C4.68245 61.9226 4.74383 62.0458 4.85406 62.1502C4.96849 62.2452 5.09798 62.2926 5.24107 62.2926H6.38027V63.1494C6.38027 63.312 6.48102 63.3878 6.68142 63.3878C6.89129 63.3878 6.98805 63.312 6.9744 63.1494L6.91981 62.2926Z" fill="white"/>
<path d="M6.08303 68.7665C5.7478 68.5186 5.44666 68.2243 5.16867 67.8909C4.89071 67.5764 4.68081 67.2633 4.52685 66.9583C4.46964 66.8159 4.46963 66.7102 4.538 66.6723C4.60331 66.6154 4.68119 66.6357 4.76157 66.7212C5.16902 67.2064 5.63643 67.586 6.15559 67.8733C6.67205 68.1484 7.08223 68.2813 7.37928 68.2732C7.50319 68.2621 7.59444 68.1769 7.66136 67.9872C7.72945 67.8056 7.76771 67.6822 7.77301 67.6334C7.78976 67.5684 7.833 67.5398 7.90528 67.5398C7.98286 67.5481 8.0197 67.5968 8.0197 67.6917L7.99096 69.3657C7.99096 69.4334 7.96865 69.4902 7.92427 69.5188C7.87655 69.5485 7.81934 69.5569 7.76744 69.5569C7.56036 69.5285 7.34496 69.4714 7.13102 69.3862C6.91027 69.3007 6.70043 69.1855 6.4892 69.0527C6.39933 69.1774 6.3162 69.3089 6.24532 69.4715C6.16913 69.6342 6.11581 69.7765 6.08316 69.9188C6.05441 70.0612 6.03961 70.1765 6.02984 70.2333C6.01589 70.301 5.96315 70.3757 5.88557 70.4814C5.74798 70.6522 5.60486 70.7756 5.44679 70.8515C5.28883 70.9286 5.15922 70.9287 5.06247 70.8599C4.99158 70.7935 4.94805 70.6891 4.93437 70.5656C4.92042 70.4316 4.95393 70.2797 5.02844 70.1266C5.1197 69.9381 5.28322 69.6982 5.52169 69.3933C5.76142 69.1086 5.94812 68.9007 6.08303 68.7665ZM4.67006 72.8402C4.53247 72.8513 4.40299 72.8021 4.27897 72.7074C4.16454 72.6111 4.09644 72.4879 4.08696 72.3455L4.06741 72.0216C4.06462 71.9552 4.07855 71.9077 4.09586 71.8791C4.11818 71.8411 4.16397 71.8317 4.22118 71.8209L7.89089 71.6041C8.02987 71.593 8.1348 71.5269 8.19204 71.3845C8.24925 71.2421 8.29701 71.1269 8.32575 71.0307C8.36399 70.9738 8.40751 70.9372 8.46053 70.9563C8.51774 70.9847 8.54651 71.0132 8.54651 71.0607L8.4946 72.4514C8.48902 72.5369 8.46945 72.583 8.44154 72.5938C8.40749 72.6105 8.38014 72.6104 8.36395 72.6221L4.67006 72.8402ZM4.39318 68.015L4.38479 69.3853C4.35493 69.4897 4.30301 69.5385 4.23212 69.548C4.09733 69.5563 3.76201 69.5757 3.23059 69.6049C3.08213 69.6243 2.9786 69.6524 2.91036 69.7093C2.85315 69.7553 2.82996 69.8894 2.84364 70.0806L3.00162 72.7454C3.01557 72.9542 2.94971 73.0599 2.79594 73.068C2.64329 73.0791 2.5657 72.9825 2.55202 72.7739L2.34494 69.3474C2.33656 69.2133 2.36447 69.0424 2.44177 68.8621C2.51935 68.6711 2.6804 68.5775 2.92961 68.5571C3.04403 68.5571 3.35615 68.5377 3.85896 68.5002C3.9625 68.5002 4.04009 68.4231 4.07972 68.2901C4.12074 68.1574 4.15476 68.061 4.17374 67.9959C4.21198 67.9093 4.26083 67.8808 4.31274 67.901C4.36576 67.9177 4.39318 67.9581 4.39318 68.015Z" fill="white"/>
<path d="M5.05685 81.562C5.00494 81.5814 4.96698 81.5986 4.95861 81.6474C4.94744 81.6757 4.95859 81.7232 4.98092 81.7898L5.0669 82.0094C5.1188 82.141 5.21534 82.2468 5.35438 82.2954C5.48248 82.3429 5.61731 82.3429 5.75233 82.2954L8.38226 81.2653L8.56341 81.7234L5.5205 82.9135C5.46329 82.9302 5.43065 82.9624 5.41698 82.9991C5.4114 83.0371 5.41698 83.0845 5.44572 83.1509L5.53557 83.3893C5.59278 83.5331 5.68405 83.6183 5.81901 83.6753C5.95129 83.7214 6.0861 83.7214 6.21964 83.6753L11.3256 81.6761C11.3396 81.6677 11.3596 81.6566 11.3884 81.638C11.4224 81.6186 11.4266 81.5622 11.3968 81.4848L11.1092 80.3801C11.0897 80.3054 11.052 80.2663 10.9948 80.2663C10.9376 80.258 10.8994 80.3232 10.8804 80.4573C10.8748 80.5617 10.8608 80.6566 10.8218 80.7338C10.793 80.8193 10.7168 80.8856 10.5929 80.925L9.08988 81.5132L8.90877 81.0565L10.728 80.353C10.7363 80.3447 10.7648 80.3336 10.7933 80.3056C10.822 80.2861 10.822 80.2378 10.7989 80.1631L10.5154 79.0774C10.4986 78.9825 10.4582 78.9336 10.3929 78.9542C10.3384 78.9708 10.3016 79.0397 10.2921 79.1535C10.2865 79.2593 10.2698 79.3445 10.2402 79.4192C10.2115 79.5047 10.1339 79.5724 9.99909 79.6199L7.35825 80.6568C7.27229 80.581 7.20026 80.4861 7.11961 80.3626C7.04202 80.2488 6.95609 80.0956 6.85925 79.9248L6.42047 79.0574C6.38223 78.9827 6.35769 78.9149 6.35378 78.8674C6.3482 78.82 6.39733 78.7725 6.50086 78.7345L8.81738 77.8304L9.27116 78.9826C9.34874 79.1627 9.44557 79.2199 9.58321 79.171C9.71801 79.1141 9.75094 79.0003 9.68397 78.8295L8.71646 76.3721C8.69692 76.326 8.67432 76.3071 8.64028 76.3071C8.61153 76.2988 8.58309 76.3072 8.55434 76.3155C8.53202 76.3266 8.5161 76.3643 8.5161 76.4306C8.51052 76.5064 8.50495 76.573 8.49379 76.6299C8.47704 76.6868 8.44886 76.7546 8.41062 76.8115C8.37378 76.8576 8.3015 76.9064 8.20494 76.9456L5.91291 77.8388C5.59814 77.9635 5.47411 78.1533 5.54907 78.4095C5.62666 78.6574 5.72207 78.9056 5.84746 79.1143L6.44023 80.1146C6.53567 80.2487 6.63222 80.3722 6.73593 80.4955C6.83137 80.6093 6.93773 80.7056 7.04802 80.7801L5.05685 81.562Z" fill="white"/>
<path d="M13.0505 86.5404C13.2562 86.5321 13.4225 86.5771 13.5519 86.722C13.6759 86.8644 13.7155 87.0351 13.6759 87.2357C13.6323 87.4445 13.5232 87.6261 13.3515 87.7779C13.1729 87.9297 12.9782 88.0149 12.7765 88.0435C12.5652 88.063 12.4045 88.0055 12.2791 87.8634C12.1552 87.7293 12.1114 87.5584 12.1443 87.3496C12.1893 87.1395 12.2928 86.9593 12.47 86.7966C12.6486 86.6448 12.8379 86.5593 13.0505 86.5404ZM16.9015 88.9477C16.9098 88.9394 16.9302 88.9191 16.9506 88.8908C16.9673 88.8622 16.9506 88.8161 16.9015 88.7484L16.0648 87.6057C16.0307 87.5691 15.9925 87.569 15.9353 87.5863C15.8781 87.5974 15.8577 87.654 15.8834 87.7287C15.9057 87.8153 15.9448 87.9402 15.9816 88.0824C16.0265 88.2343 15.9928 88.3481 15.8875 88.4443L13.7236 90.3677C13.6759 90.4043 13.6583 90.4532 13.6583 90.4896C13.6583 90.5276 13.6806 90.5667 13.7236 90.6236L13.9486 90.861C14.0507 90.9748 14.1749 91.0331 14.3274 91.0331C14.4814 91.0331 14.6135 90.9856 14.7198 90.9004L15.6288 90.0898L16.1983 90.7188C16.3033 90.8434 16.4341 90.8326 16.5867 90.6994C16.7299 90.5678 16.7474 90.4431 16.6386 90.3388L16.0268 89.7289L16.9015 88.9477ZM13.8683 91.453C13.9051 91.4149 13.9255 91.3867 13.9255 91.3473C13.9255 91.3187 13.906 91.2809 13.8683 91.2442L11.2833 88.368C11.2071 88.2825 11.1457 88.2067 11.1021 88.1295C11.0449 88.0551 11.0025 87.9588 10.9481 87.8354C10.9258 87.7691 10.8867 87.7499 10.8337 87.7499C10.7874 87.7499 10.7478 87.7785 10.7302 87.8448L10.681 88.2067C10.681 88.2717 10.681 88.3205 10.6866 88.3491C10.6894 88.3966 10.7385 88.4535 10.8161 88.5401L12.901 90.862L11.7141 91.9287C11.6678 91.9573 11.6474 92.0059 11.6569 92.052C11.6569 92.0914 11.6856 92.1277 11.7345 92.186L11.9117 92.3853C12.0303 92.5086 12.1844 92.5763 12.3559 92.5658C12.5373 92.5575 12.7103 92.4803 12.8724 92.3284L13.8683 91.453ZM12.1447 85.741C11.9868 85.7885 11.849 85.8642 11.725 85.9686C11.4524 86.2168 11.3326 86.5488 11.3612 86.9784C11.3896 87.3959 11.5819 87.8066 11.9349 88.197C12.2701 88.5765 12.6435 88.7961 13.0645 88.8625C13.4761 88.9385 13.8195 88.8542 14.0974 88.6063C14.2228 88.5019 14.3087 88.3595 14.3754 88.2146C14.4421 88.0627 14.4761 87.911 14.4761 87.7497L14.9599 88.2715C15.0838 88.4164 15.208 88.4341 15.3333 88.3203C15.4519 88.2145 15.4519 88.0913 15.3221 87.9489L14.2797 86.7873L14.777 86.3685C14.8167 86.3402 14.829 86.3021 14.8192 86.2655C14.8165 86.226 14.8024 86.1978 14.777 86.1597L14.1257 85.3126C14.0794 85.2449 14.0222 85.2162 13.9541 85.2557C13.8874 85.284 13.8681 85.3695 13.8968 85.5039C13.9052 85.5894 13.8885 85.6638 13.8477 85.7315C13.8109 85.7884 13.7154 85.8833 13.5807 86.0066L12.853 85.1987C12.7235 85.0549 12.6336 84.9603 12.5764 84.8843C12.5234 84.8082 12.4701 84.723 12.4224 84.5996C12.4056 84.5319 12.361 84.483 12.2985 84.4655C12.2412 84.4461 12.1977 84.4941 12.1784 84.6079L12.1265 84.9603C12.1265 85.0078 12.1266 85.0553 12.1349 85.1027C12.1433 85.1422 12.1893 85.1991 12.2697 85.2938L12.6376 85.6933C12.4699 85.685 12.3082 85.6935 12.1447 85.741Z" fill="white"/>
<path d="M23.2858 93.8802C23.0745 94.2882 22.8443 94.707 22.5962 95.1069C22.3565 95.5271 22.1084 95.8794 21.8604 96.1844C21.746 96.316 21.746 96.4218 21.8632 96.4691C21.9832 96.5165 22.1071 96.526 22.2216 96.4886C22.5677 96.3653 22.9492 96.0792 23.3649 95.6414C23.7818 95.1927 24.1361 94.7373 24.4319 94.2521C24.4659 94.1857 24.481 94.118 24.481 94.0419C24.4893 93.9661 24.4413 93.8995 24.3462 93.8426C24.3378 93.8426 23.1306 93.2326 20.7337 92.0236C20.5607 91.9381 20.4366 91.8717 20.3508 91.8148C20.2595 91.7579 20.1736 91.671 20.0879 91.5775C20.0212 91.5097 19.9679 91.4812 19.9244 91.5206C19.878 91.5573 19.8576 91.5953 19.8671 91.6522L19.964 92.0914C19.9807 92.1483 20.0103 92.2051 20.0675 92.2432C20.1275 92.2798 20.1928 92.3287 20.2883 92.3679L23.2858 93.8802ZM19.6192 96.3163C19.7336 96.0792 19.9149 95.7171 20.1561 95.2604C20.3849 94.7941 20.524 94.5271 20.5663 94.4417C20.5746 94.4334 20.5746 94.3942 20.5746 94.3656C20.5746 94.3276 20.5551 94.2992 20.5227 94.2789C20.336 94.1651 20.0199 93.9754 19.5838 93.7084C19.547 93.6717 19.4926 93.6889 19.4354 93.7167C19.3782 93.7453 19.389 93.813 19.4694 93.8982C19.5322 93.9932 19.5785 94.0703 19.5933 94.1353C19.6073 94.1922 19.5794 94.2871 19.521 94.4118L18.7702 95.8879L18.0725 95.5354C17.8749 95.4391 17.7468 95.3539 17.6746 95.2873C17.6079 95.2223 17.5275 95.134 17.436 95.031C17.3815 94.9633 17.3297 94.9347 17.2724 94.9539C17.2097 94.9622 17.1865 95.0203 17.1921 95.1058L17.2629 95.5259C17.2713 95.5734 17.2917 95.6209 17.3202 95.6586C17.35 95.6966 17.4209 95.7442 17.5409 95.8105L22.6701 98.3804C22.8718 98.4862 23.0107 98.4659 23.083 98.3235C23.1539 98.1919 23.0857 98.0673 22.8854 97.9616L21.0144 97.0101C21.1383 96.7633 21.3305 96.392 21.5799 95.9067C21.8238 95.4215 21.9669 95.1342 22.016 95.0596C22.0187 95.0313 22.0243 95.0108 22.0187 94.9741C22.0187 94.9347 21.9991 94.9063 21.9668 94.8875C21.7801 94.7628 21.4735 94.5825 21.0347 94.3073C20.9898 94.2773 20.9379 94.2774 20.8807 94.3268C20.8234 94.3554 20.8315 94.4325 20.9203 94.5069C20.9775 94.6032 21.0238 94.6777 21.0428 94.7454C21.0567 94.8023 21.0344 94.8972 20.9666 95.0205L20.1721 96.5915L19.6192 96.3163Z" fill="white"/>
</g>
<g clip-path="url(#clip1_2_616)">
<path d="M97.0934 3.33574H98.7868V8.50575H105.243V3.33574H106.946V15.8749H105.243V9.99791H98.7868V15.8749H97.0934V3.33574Z" fill="#214395"/>
<path d="M113.302 10.7451L115.311 5.19927L117.239 10.7451H113.302ZM109.71 15.8749H111.45L112.799 12.112H117.728L119.021 15.8749H120.887L116.345 3.33574H114.417L109.71 15.8749Z" fill="#214395"/>
<path d="M123.5 15.8749H125.091V5.72276L131.472 15.8749H133.371V3.33574H131.769V13.4923L125.478 3.33574H123.5V15.8749Z" fill="#214395"/>
<path d="M137.606 3.33574H139.309V15.8749H137.606V3.33574Z" fill="#214395"/>
<path d="M143.195 15.8749H151.211V14.3894H144.893V3.33574H143.195V15.8749Z" fill="#214395"/>
<path d="M161.19 3.3356V11.0895C161.19 12.0023 161.362 12.7808 161.702 13.3691C162.216 14.2864 163.071 14.7204 164.28 14.7204C165.717 14.7204 166.711 14.217 167.231 13.2416C167.513 12.7159 167.654 12.0023 167.654 11.0895V3.3356H169.349V10.3759C169.349 11.9239 169.146 13.1007 168.746 13.9575C167.966 15.4586 166.532 16.2125 164.421 16.2125C162.319 16.2125 160.875 15.4586 160.122 13.9575C159.691 13.1007 159.488 11.9239 159.488 10.3759V3.3356H161.19Z" fill="#214395"/>
<path d="M173.044 3.33574H175.028L181.319 13.4923V3.33574H182.899V15.8749H181.031L174.637 5.72276V15.8749H173.044V3.33574Z" fill="#214395"/>
<path d="M187.15 3.33574H188.853V15.8749H187.15V3.33574Z" fill="#214395"/>
<path d="M191.842 3.33574L196.399 15.8749H198.205L202.769 3.33574H200.885L197.311 14.0292L193.723 3.33574H191.842Z" fill="#214395"/>
<path d="M205.64 3.33574H214.728V4.86594H207.289V8.66906H214.192V10.1478H207.289V14.3894H214.851V15.8749H205.64V3.33574Z" fill="#214395"/>
<path d="M220.164 9.07845V4.81896H224.158C224.721 4.81896 225.175 4.90827 225.505 5.08741C226.135 5.38705 226.448 6.00911 226.448 6.89502C226.448 7.73396 226.229 8.30888 225.771 8.60866C225.318 8.93762 224.721 9.07845 223.944 9.07845H220.164ZM218.461 15.8749H220.164V10.5102H223.874C224.534 10.5102 225.036 10.6041 225.34 10.7453C225.881 11.0339 226.196 11.5931 226.234 12.3851L226.328 14.4835C226.355 14.9712 226.399 15.309 226.421 15.4589C226.458 15.638 226.493 15.7722 226.564 15.8749H228.646V15.5995C228.391 15.4965 228.204 15.2371 228.103 14.83C228.032 14.6087 228.01 14.255 227.983 13.7606L227.927 12.094C227.908 11.3647 227.75 10.8546 227.514 10.5101C227.25 10.1949 226.886 9.93514 226.399 9.73827C226.951 9.44092 227.386 9.06489 227.701 8.58391C228.01 8.0895 228.17 7.50114 228.17 6.72038C228.17 5.29306 227.607 4.30207 226.448 3.76066C225.836 3.47659 225.063 3.33546 224.131 3.33546H218.461L218.461 15.8749Z" fill="#214395"/>
<path d="M233.066 11.8057C233.115 12.5126 233.283 13.101 233.557 13.5327C234.098 14.3582 235.047 14.781 236.395 14.781C237.018 14.781 237.57 14.6872 238.072 14.4993C239.049 14.1616 239.534 13.5328 239.534 12.6067C239.534 11.9243 239.33 11.4523 238.906 11.1369C238.49 10.8707 237.84 10.6335 236.951 10.43L235.329 10.0543C234.248 9.81923 233.49 9.53525 233.043 9.23548C232.282 8.71867 231.886 7.92229 231.886 6.87978C231.886 5.76342 232.266 4.81939 233.021 4.11469C233.772 3.38313 234.86 3.00059 236.24 3.00059C237.509 3.00059 238.584 3.33599 239.469 3.97151C240.362 4.61133 240.82 5.6225 240.82 7.00506H239.236C239.143 6.33838 238.966 5.81715 238.718 5.46367C238.215 4.8194 237.382 4.49052 236.2 4.49052C235.235 4.49052 234.556 4.70538 234.136 5.13482C233.729 5.54442 233.513 6.02966 233.513 6.58C233.513 7.19298 233.761 7.64931 234.248 7.92228C234.583 8.12158 235.313 8.35617 236.444 8.60908L238.122 9.01875C238.955 9.2066 239.589 9.47047 240.036 9.79504C240.798 10.3834 241.173 11.2402 241.173 12.3476C241.173 13.7324 240.689 14.7212 239.706 15.3342C238.723 15.9315 237.581 16.2134 236.301 16.2134C234.777 16.2134 233.584 15.8284 232.74 15.0186C231.886 14.2177 231.459 13.1485 231.482 11.8062L233.066 11.8057Z" fill="#214395"/>
<path d="M245.085 15.8749H246.781V3.33574H245.085V15.8749Z" fill="#214395"/>
<path d="M249.589 3.33574V4.81896H253.827V15.8749H255.539V4.81896H259.777V3.33574H249.589Z" fill="#214395"/>
<path d="M261.481 3.33574H263.452L267.073 9.36257L270.666 3.33574H272.648L267.918 10.8391V15.8749H266.222V10.8391L261.481 3.33574Z" fill="#214395"/>
<path d="M284.513 8.23072C284.064 7.73407 283.733 7.33364 283.545 7.00477C283.364 6.69139 283.264 6.35379 283.264 6.00925C283.264 5.76322 283.331 5.51264 283.452 5.29337C283.702 4.8659 284.138 4.65802 284.772 4.65802C285.181 4.65802 285.505 4.79915 285.764 5.05847C286.003 5.32237 286.117 5.65355 286.117 6.01596C286.117 6.50363 285.952 6.92649 285.628 7.3135C285.411 7.54853 285.053 7.86831 284.513 8.23072ZM284.108 14.8616C283.563 14.8616 283.045 14.687 282.558 14.3426C282.077 13.9577 281.841 13.4634 281.841 12.8034C281.841 12.1591 282.028 11.6401 282.381 11.2397C282.652 10.94 283.17 10.526 283.954 9.99805L286.78 13.4634C286.525 13.8171 286.179 14.1457 285.741 14.4209C285.283 14.7205 284.738 14.8616 284.108 14.8616ZM283.105 8.93765C282.149 9.51934 281.499 9.99807 281.161 10.3828C280.583 11.0294 280.295 11.8057 280.295 12.781C280.295 13.6513 280.587 14.4365 281.179 15.1435C281.774 15.828 282.707 16.1815 283.992 16.1815C284.881 16.1815 285.647 15.9913 286.322 15.5685C286.713 15.3559 287.138 15.0026 287.58 14.4835L288.773 15.875H290.699L288.518 13.2106C288.518 13.3361 288.679 13.0539 288.961 12.3291C289.242 11.5931 289.43 10.8079 289.524 9.99805H288.049C287.989 10.4164 287.922 10.7139 287.866 10.9488C287.825 11.1701 287.719 11.4992 287.565 11.9712L285.302 9.25309C286.003 8.77435 286.492 8.37167 286.781 8.01595C287.303 7.40747 287.547 6.70723 287.547 5.88844C287.547 5.19941 287.303 4.61105 286.819 4.1144C286.338 3.61775 285.648 3.35825 284.788 3.35825C283.876 3.35825 283.143 3.64232 282.603 4.17704C282.055 4.70503 281.781 5.36945 281.781 6.19717C281.781 6.57974 281.868 6.97344 282.056 7.40746C282.221 7.82805 282.576 8.32472 283.105 8.93765Z" fill="#214395"/>
<path d="M307.317 6.97318C307.317 7.76067 307.084 8.35572 306.608 8.66892C306.139 8.98414 305.523 9.12529 304.776 9.12529H301.432V4.81882H304.776C305.429 4.81882 305.92 4.91722 306.296 5.09636C306.972 5.43403 307.317 6.02913 307.317 6.97318ZM299.738 15.8749H301.432V10.5706H305.335C306.581 10.5706 307.504 10.2192 308.116 9.50351C308.728 8.7496 309.043 7.91739 309.043 6.92634C309.043 5.79435 308.695 4.91737 308.016 4.28652C307.317 3.66461 306.421 3.33574 305.335 3.33574H299.738V15.8749Z" fill="#214395"/>
<path d="M314.235 9.07845V4.81896H318.243C318.8 4.81896 319.258 4.90827 319.595 5.08741C320.223 5.40263 320.527 6.0091 320.527 6.91068C320.527 7.73395 320.317 8.30887 319.859 8.62432C319.412 8.9377 318.8 9.07845 318.049 9.07845H314.235ZM312.542 15.8749H314.235V10.5102H317.955C318.639 10.5102 319.115 10.6041 319.43 10.7453C319.986 11.0339 320.268 11.5931 320.317 12.3851L320.4 14.4835C320.451 14.9712 320.485 15.309 320.511 15.4745C320.543 15.6377 320.594 15.7718 320.638 15.8749H322.723V15.5995C322.464 15.4965 322.272 15.2459 322.193 14.83C322.128 14.6266 322.084 14.255 322.066 13.7696L322.017 12.094C321.99 11.3803 321.847 10.8546 321.604 10.5101C321.356 10.1949 320.974 9.93514 320.494 9.73827C321.045 9.44092 321.472 9.06489 321.792 8.58391C322.111 8.0895 322.254 7.50114 322.254 6.72038C322.254 5.29306 321.691 4.30207 320.545 3.76066C319.926 3.47659 319.153 3.33546 318.222 3.33546H312.542L312.542 15.8749Z" fill="#214395"/>
<path d="M326.201 3.33574H335.296V4.86594H327.857V8.67801H334.745V10.1635H327.857V14.3961H335.39V15.8749H326.201V3.33574Z" fill="#214395"/>
<path d="M339.932 11.8052C339.95 12.5256 340.12 13.1006 340.406 13.539C340.935 14.3578 341.891 14.7806 343.248 14.7806C343.855 14.7806 344.423 14.6867 344.91 14.4989C345.886 14.1612 346.378 13.5324 346.378 12.6063C346.378 11.9374 346.168 11.4519 345.759 11.1365C345.334 10.8859 344.677 10.651 343.788 10.4295L342.166 10.0538C341.085 9.81881 340.328 9.53486 339.881 9.25295C339.119 8.71828 338.739 7.92186 338.739 6.87936C338.739 5.76973 339.103 4.81897 339.858 4.11427C340.609 3.38271 341.697 3.00017 343.078 3.00017C344.347 3.00017 345.428 3.33557 346.333 3.97109C347.204 4.61092 347.658 5.62208 347.658 7.00464H346.074C345.995 6.33796 345.808 5.82571 345.555 5.46325C345.064 4.81898 344.219 4.4901 343.038 4.4901C342.088 4.4901 341.4 4.70496 340.962 5.1344C340.567 5.55957 340.361 6.02924 340.361 6.57958C340.361 7.2015 340.598 7.6668 341.101 7.92186C341.411 8.12116 342.151 8.35574 343.281 8.62432L344.981 9.01791C345.792 9.20576 346.427 9.46964 346.873 9.7942C347.635 10.3982 348.015 11.2461 348.015 12.3624C348.015 13.7316 347.526 14.7338 346.543 15.3333C345.571 15.9306 344.423 16.2125 343.138 16.2125C341.63 16.2125 340.455 15.8277 339.577 15.0179C338.728 14.2327 338.297 13.1477 338.319 11.8054L339.932 11.8052Z" fill="#214395"/>
<path d="M353.165 8.64669V4.7429H356.194C356.923 4.7429 357.481 4.81889 357.857 4.99345C358.531 5.27523 358.862 5.82571 358.862 6.66012C358.862 7.47446 358.54 8.04266 357.91 8.35586C357.515 8.55287 356.967 8.64683 356.239 8.64683L353.165 8.64669ZM353.165 14.3963V10.0294H356.532C357.227 10.0294 357.819 10.1233 358.241 10.2887C359.05 10.62 359.456 11.2396 359.456 12.1411C359.456 12.6534 359.314 13.1321 359.032 13.5102C358.594 14.0986 357.857 14.3961 356.829 14.3961L353.165 14.3963ZM351.516 15.8749H356.829C358.487 15.8749 359.662 15.4028 360.426 14.4364C360.926 13.7697 361.199 13.0382 361.199 12.235C361.199 11.2641 360.904 10.5102 360.319 9.95988C360.019 9.66024 359.523 9.39386 358.875 9.14109C359.313 8.92392 359.644 8.67797 359.898 8.40284C360.35 7.9017 360.587 7.23954 360.587 6.45654C360.587 5.79435 360.399 5.18138 360.037 4.65789C359.425 3.78316 358.393 3.33574 356.907 3.33574H351.516V15.8749Z" fill="#214395"/>
<path d="M363.33 3.33574H365.323L368.929 9.37599L372.544 3.33574H374.523L369.778 10.8391V15.8749H368.071V10.8391L363.33 3.33574Z" fill="#214395"/>
<path d="M386.145 3.33574V4.81896H381.927V15.8749H380.207V4.81896H375.998V3.33574H386.145Z" fill="#214395"/>
<path d="M388.987 15.8749H398.2V14.3961H390.645V10.1635H397.53V8.67801H390.645V4.86594H398.089V3.33574H388.987V15.8749Z" fill="#214395"/>
<path d="M403.499 9.07845V4.81896H407.521C408.084 4.81896 408.522 4.90827 408.866 5.08741C409.478 5.40263 409.786 6.0091 409.786 6.91068C409.786 7.73395 409.572 8.30887 409.12 8.62432C408.678 8.9377 408.061 9.07845 407.297 9.07845H403.499ZM401.797 15.8749H403.499V10.5102H407.239C407.896 10.5102 408.388 10.6041 408.696 10.7453C409.241 11.0339 409.531 11.5931 409.572 12.3851L409.688 14.4835C409.715 14.9712 409.737 15.309 409.786 15.4745C409.809 15.6377 409.854 15.7718 409.92 15.8749H411.985V15.5995C411.744 15.4965 411.547 15.2459 411.453 14.83C411.395 14.6266 411.346 14.255 411.332 13.7696L411.265 12.094C411.252 11.3803 411.113 10.8546 410.859 10.5101C410.608 10.1949 410.246 9.93514 409.741 9.73827C410.3 9.44092 410.747 9.06489 411.064 8.58391C411.359 8.0895 411.52 7.50114 411.52 6.72038C411.52 5.29306 410.934 4.30207 409.795 3.76066C409.196 3.47659 408.414 3.33546 407.485 3.33546H401.797V15.8749Z" fill="#214395"/>
<path d="M415.675 15.8749H417.391V3.33574H415.675V15.8749Z" fill="#214395"/>
<path d="M423.821 10.7451L425.814 5.19927L427.744 10.7451H423.821ZM420.219 15.8749H421.949L423.32 12.112H428.231L429.54 15.8749H431.381L426.85 3.33574H424.938L420.219 15.8749Z" fill="#214395"/>
<path d="M434.022 15.8749H435.608V5.72276L441.989 15.8749H443.87V3.33574H442.283V13.5102L435.997 3.33574H434.022V15.8749Z" fill="#214395"/>
<path d="M452.315 3.33574V4.81896H456.555V15.8749H458.253V4.81896H462.48V3.33574H452.315Z" fill="#214395"/>
<path d="M465.228 3.33574H466.908V8.5147H473.373V3.33574H475.076V15.8749H473.373V9.99791H466.908V15.8749H465.228V3.33574Z" fill="#214395"/>
<path d="M479.043 3.33574H488.118V4.86594H480.692V8.67801H487.573V10.1635H480.692V14.3961H488.235V15.8749H479.043V3.33574Z" fill="#214395"/>
<path d="M497.202 14.7338C495.639 14.7338 494.49 14.255 493.793 13.2886C493.078 12.3468 492.734 11.1767 492.734 9.76959C492.734 8.04249 493.141 6.72041 493.958 5.84119C494.776 4.94635 495.84 4.48996 497.144 4.48996C498.48 4.48996 499.544 4.9463 500.308 5.84119C501.076 6.75394 501.474 7.92175 501.474 9.40941C501.474 10.8076 501.13 12.047 500.455 13.132C499.794 14.2081 498.713 14.7338 497.202 14.7338ZM497.051 3.00004C494.933 3.00004 493.346 3.783 492.256 5.34007C491.434 6.53244 491.005 7.99555 491.005 9.65997C491.005 11.528 491.492 13.085 492.471 14.311C493.57 15.5816 495.098 16.2125 497.015 16.2125C499.075 16.2125 500.643 15.4967 501.773 14.0291C502.712 12.8031 503.199 11.264 503.199 9.39375C503.199 7.6667 502.783 6.25952 501.943 5.14321C500.88 3.72038 499.253 3.00004 497.051 3.00004Z" fill="#214395"/>
<path d="M506.322 3.33574H508.015V14.3961H514.324V15.8749H506.322V3.33574Z" fill="#214395"/>
<path d="M527.475 5.14321C528.297 6.25952 528.695 7.6667 528.695 9.39375C528.695 11.264 528.226 12.8031 527.287 14.0291C526.175 15.4967 524.588 16.2125 522.515 16.2125C520.589 16.2125 519.079 15.5816 517.993 14.311C517.001 13.085 516.505 11.528 516.505 9.65997C516.505 7.99555 516.93 6.53244 517.765 5.34007C518.842 3.783 520.442 3.00004 522.551 3.00004C524.776 3.00004 526.403 3.72038 527.475 5.14321ZM525.969 13.132C526.644 12.047 526.974 10.8076 526.974 9.40941C526.974 7.92175 526.585 6.75394 525.808 5.84119C525.049 4.94635 523.999 4.48996 522.645 4.48996C521.344 4.48996 520.299 4.9463 519.472 5.84119C518.655 6.72041 518.23 8.04249 518.23 9.76959C518.23 11.1767 518.583 12.3468 519.298 13.2886C520.004 14.255 521.134 14.7338 522.716 14.7338C524.209 14.7338 525.294 14.2081 525.969 13.132Z" fill="#214395"/>
<path d="M540.182 3.69802C541.398 4.33336 542.162 5.48101 542.426 7.10741H540.745C540.545 6.1969 540.133 5.52796 539.508 5.13426C538.882 4.70496 538.082 4.48996 537.131 4.48996C536 4.48996 535.035 4.9463 534.253 5.81658C533.467 6.67339 533.091 7.97319 533.091 9.70024C533.091 11.1767 533.413 12.3848 534.065 13.3222C534.7 14.255 535.741 14.7338 537.189 14.7338C538.292 14.7338 539.208 14.4048 539.946 13.745C540.67 13.1007 541.027 12.047 541.063 10.5705H537.131V9.16557H542.613V15.8747H541.532L541.134 14.255C540.576 14.8904 540.062 15.3333 539.629 15.5817C538.909 16.0068 537.962 16.2125 536.849 16.2125C535.384 16.2125 534.137 15.7405 533.083 14.7808C531.939 13.5817 531.367 11.9239 531.367 9.7942C531.367 7.71367 531.925 6.02913 533.042 4.79869C534.11 3.61749 535.478 3.00004 537.171 3.00004C538.342 3.00004 539.334 3.2328 540.182 3.69802Z" fill="#214395"/>
<path d="M546.902 3.33574H548.605V15.8749H546.902V3.33574Z" fill="#214395"/>
<path d="M557.698 3.00004C555.857 3.00004 554.423 3.66449 553.364 4.94634C552.403 6.12309 551.929 7.63983 551.929 9.50337C551.929 11.9239 552.564 13.7315 553.864 14.8904C554.838 15.7718 556.045 16.2125 557.474 16.2125C559.137 16.2125 560.455 15.6868 561.442 14.6264C562.26 13.7137 562.747 12.6063 562.89 11.2864H561.237C561.071 12.1119 560.812 12.7853 560.486 13.2886C559.843 14.255 558.904 14.7338 557.667 14.7338C556.344 14.7338 555.339 14.2866 554.664 13.3691C553.998 12.4407 553.663 11.264 553.663 9.7942C553.663 7.99554 554.03 6.67338 554.776 5.79421C555.522 4.94633 556.514 4.48996 557.716 4.48996C558.712 4.48996 559.49 4.74285 560.03 5.19913C560.589 5.67562 560.955 6.31547 561.143 7.10741H562.778C562.684 6.05596 562.211 5.10517 561.33 4.28638C560.473 3.43851 559.262 3.00004 557.698 3.00004Z" fill="#214395"/>
<path d="M568.757 10.7451L570.763 5.19927L572.68 10.7451H568.757ZM565.164 15.8749H566.889L568.252 12.112H573.18L574.467 15.8749H576.344L571.786 3.33574H569.865L565.164 15.8749Z" fill="#214395"/>
<path d="M578.966 15.8749H586.973V14.3961H580.664V3.33574H578.966V15.8749Z" fill="#214395"/>
<path d="M594.628 11.8054C594.605 13.1477 595.03 14.2327 595.883 15.0179C596.746 15.8277 597.916 16.2125 599.427 16.2125C600.731 16.2125 601.862 15.9308 602.849 15.3333C603.828 14.7338 604.319 13.7316 604.319 12.3624C604.319 11.2461 603.944 10.3982 603.167 9.7942C602.733 9.46982 602.099 9.20585 601.281 9.01791L599.588 8.62432C598.435 8.35583 597.729 8.12093 597.394 7.92186C596.907 7.66666 596.665 7.2015 596.665 6.57958C596.665 6.02924 596.875 5.55944 597.282 5.1344C597.707 4.7051 598.386 4.4901 599.333 4.4901C600.517 4.4901 601.353 4.81908 601.844 5.46325C602.117 5.82566 602.286 6.33796 602.362 7.00464H603.966C603.966 5.62208 603.511 4.61092 602.63 3.97109C601.746 3.33575 600.655 3.00017 599.386 3.00017C597.988 3.00017 596.924 3.38276 596.165 4.11427C595.414 4.81897 595.048 5.76973 595.048 6.87936C595.048 7.92186 595.423 8.71828 596.187 9.25295C596.634 9.53472 597.394 9.81894 598.457 10.0538L600.092 10.4295C600.986 10.6508 601.634 10.8859 602.05 11.1365C602.474 11.4517 602.68 11.9374 602.68 12.6063C602.68 13.5324 602.193 14.1611 601.223 14.4989C600.718 14.6867 600.164 14.7806 599.538 14.7806C598.176 14.7806 597.233 14.3578 596.719 13.539C596.42 13.1006 596.259 12.5256 596.219 11.8052L594.628 11.8054Z" fill="#214395"/>
<path d="M608.005 3.33574H617.098V4.86594H609.659V8.67801H616.549V10.1635H609.659V14.3961H617.21V15.8749H608.005V3.33574Z" fill="#214395"/>
<path d="M620.583 3.33574H622.978L626.584 13.9576L630.141 3.33574H632.522V15.8749H630.923V8.49009C630.923 8.23077 630.923 7.80776 630.95 7.21045C630.969 6.62657 630.969 5.9823 630.969 5.32231L627.407 15.8749H625.732L622.121 5.32231V5.68473C622.121 6.00911 622.121 6.48563 622.14 7.10754C622.167 7.73394 622.167 8.18358 622.167 8.49009V15.8749H620.585L620.583 3.33574Z" fill="#214395"/>
<path d="M636.633 15.8749H638.336V3.33574H636.633V15.8749Z" fill="#214395"/>
<path d="M642.228 3.33574H644.18L650.49 13.5102V3.33574H652.071V15.8749H650.19L643.805 5.72276V15.8749H642.228V3.33574Z" fill="#214395"/>
<path d="M662.415 10.7451L660.494 5.19927L658.483 10.7451H662.415ZM659.622 3.33574H661.521L666.066 15.8749H664.22L662.898 12.112H657.987L656.624 15.8749H654.895L659.622 3.33574Z" fill="#214395"/>
<path d="M670.605 9.07845V4.81896H674.622C675.176 4.81896 675.61 4.90827 675.958 5.08741C676.579 5.40263 676.896 6.0091 676.896 6.91068C676.896 7.73395 676.673 8.30887 676.226 8.62432C675.779 8.9377 675.167 9.07845 674.399 9.07845H670.605ZM668.907 15.8749H670.605V10.5102H674.341C674.997 10.5102 675.48 10.6041 675.797 10.7453C676.347 11.0339 676.628 11.5931 676.673 12.3851L676.802 14.4835C676.816 14.9712 676.851 15.309 676.878 15.4745C676.91 15.6377 676.959 15.7718 677.021 15.8749H679.09V15.5995C678.826 15.4965 678.665 15.2459 678.545 14.83C678.496 14.6266 678.451 14.255 678.433 13.7696L678.384 12.094C678.357 11.3803 678.214 10.8546 677.969 10.5101C677.719 10.1949 677.334 9.93514 676.856 9.73827C677.415 9.44092 677.844 9.06489 678.165 8.58391C678.478 8.0895 678.621 7.50114 678.621 6.72038C678.621 5.29306 678.049 4.30207 676.896 3.76066C676.298 3.47659 675.52 3.33546 674.573 3.33546H668.907V15.8749Z" fill="#214395"/>
<path d="M685.868 10.8391V15.8749H687.575V10.8391L692.298 3.33574H690.31L686.717 9.37599L683.107 3.33574H681.119L685.868 10.8391Z" fill="#214395"/>
<path d="M111.293 45.5371C112.846 43.3917 114.628 42.3157 116.581 42.3157C118.574 42.3157 120.323 43.3917 121.892 45.5371C123.453 47.6512 124.231 50.1009 124.231 52.8346C124.231 55.6176 123.453 58.0293 121.892 60.0718C120.323 62.0963 118.574 63.1187 116.581 63.1187C114.628 63.1187 112.846 62.0963 111.293 60.0718C109.734 58.0293 108.954 55.6176 108.954 52.8346C108.954 50.1009 109.734 47.6512 111.293 45.5371ZM160.028 29.8727C160.028 29.7316 159.947 29.4476 159.825 29.0383C159.691 28.647 159.197 28.3806 158.294 28.2866L143.02 26.6759C142.461 26.62 142.039 26.9109 141.798 27.5931C141.53 28.262 141.798 28.819 142.555 29.2419C143.576 29.7318 144.841 30.3425 146.362 31.0964C147.877 31.8347 148.652 33.054 148.652 34.6982V77.8793C148.652 78.5773 148.817 79.0672 149.17 79.3648C149.532 79.631 150.08 79.8055 150.848 79.8055H153.996C155.721 79.8055 157.151 79.1366 158.294 77.7853C159.432 76.4901 160.028 74.971 160.028 73.2842V53.8637H169.749C171.52 53.8637 172.409 52.6847 172.409 50.3134C172.409 47.9241 171.52 46.7944 169.749 46.8883L160.028 47.5483L160.028 29.8727ZM104.146 74.8234C103.856 75.4699 104.193 75.9867 105.125 76.4431C105.849 76.7496 106.923 77.2126 108.389 77.7853C109.85 78.376 110.572 79.3022 110.572 80.6064C110.572 85.9553 110.572 89.2954 110.572 90.6399C110.572 93.6399 111.624 95.6108 113.679 96.5772C115.766 97.5437 117.578 98.047 119.171 98.047H157.823C160.169 98.047 161.362 97.1522 161.362 95.4229C161.362 93.6779 160.169 92.8144 157.823 92.8144H127.861C125.627 92.8144 124.231 92.4208 123.657 91.6824C123.091 90.9218 122.754 89.6802 122.692 87.9106C122.692 82.1612 122.692 78.5169 122.692 76.8972C122.692 76.0493 122.151 75.4207 121.076 75.065L105.431 73.9442C104.861 73.8814 104.434 74.1792 104.146 74.8234ZM97.9398 47.0293C96.9523 48.866 96.4654 50.7832 96.4654 52.8346C96.4654 57.2283 98.5051 60.9912 102.616 64.1545C106.711 67.3066 111.371 68.8928 116.581 68.8928C121.805 68.8928 126.512 67.3066 130.672 64.1545C134.843 60.9912 136.907 57.2283 136.907 52.8346C136.907 50.7832 136.413 48.866 135.395 47.0293C134.367 45.1747 133.033 43.5036 131.378 42.0092H139.78C141.874 42.0092 142.939 41.0271 142.988 39.0964C142.988 37.1792 141.945 36.2105 139.78 36.2105H122.692L122.801 28.819C122.801 28.2374 122.613 27.8369 122.278 27.5931C121.916 27.3581 121.492 27.2019 120.98 27.1369L108.688 26.195C107.73 26.0855 107.133 26.3742 106.907 27.0765C106.686 27.7677 107.205 28.506 108.491 29.2979C109.559 30.0608 110.227 30.7677 110.491 31.412C110.75 32.0563 110.871 32.8259 110.871 33.7386V36.2107H99.0366C96.874 36.2107 95.2319 36.1166 94.126 35.904C92.9978 35.6914 91.8048 35.3068 90.4554 34.6982C89.6936 34.2552 88.9965 34.2241 88.3911 34.6708C87.8035 35.0557 87.8728 35.8095 88.6345 36.8722L91.4897 40.5545C91.9386 41.0265 92.3856 41.38 92.7921 41.6238C93.2012 41.8744 94.0411 42.0086 95.3167 42.0086H101.816C100.223 43.503 98.9228 45.1747 97.9398 47.0293Z" fill="#214395"/>
<path d="M198.265 38.6624C199.883 36.3447 201.938 35.1971 204.424 35.1971C206.969 35.1971 209.029 36.3447 210.678 38.6624C212.293 40.9644 213.095 43.6445 213.095 46.7004C213.095 49.7474 212.293 52.4207 210.678 54.7138C209.029 57.0225 206.969 58.1612 204.424 58.1612C201.938 58.1612 199.883 57.0225 198.265 54.7138C196.65 52.4207 195.834 49.7474 195.834 46.7004C195.834 43.6445 196.65 40.9644 198.265 38.6624ZM239.165 64.2641C239.165 64.9643 239.33 65.4453 239.683 65.7429C240.036 66.0471 240.555 66.1904 241.245 66.1904H244.976C246.68 66.1904 248.117 65.5394 249.274 64.1882C250.418 62.837 250.986 61.3582 250.986 59.6916V29.9198C250.986 29.7453 250.925 29.4814 250.798 29.063C250.648 28.6937 250.159 28.4276 249.274 28.318L233.419 26.6984C232.851 26.6425 232.427 26.9577 232.188 27.6357C231.929 28.2867 232.22 28.8349 233.043 29.2688C234.011 29.7454 235.262 30.3762 236.824 31.1301C238.358 31.8684 239.165 33.0787 239.165 34.7185V64.2641ZM189.534 34.5306C185.533 37.8862 183.533 41.9399 183.533 46.7005C183.533 51.4611 185.533 55.4969 189.534 58.8616C193.527 62.1904 198.52 63.8481 204.424 63.8481C210.403 63.8481 215.385 62.1904 219.355 58.8616C223.325 55.4969 225.318 51.4611 225.318 46.7005C225.318 41.9399 223.325 37.8862 219.355 34.5306C215.385 31.1771 210.403 29.5037 204.424 29.5037C198.52 29.5037 193.527 31.1771 189.534 34.5306ZM249.938 71.2575C249.938 70.6624 249.811 70.2351 249.545 69.9756C249.308 69.7631 248.855 69.6468 248.211 69.6468H202.7C200.933 69.6468 199.537 69.4814 198.549 69.168C197.571 68.846 196.415 68.4298 195.082 67.9421C194.36 67.6356 193.842 67.7542 193.504 68.3114C193.152 68.893 193.198 69.4344 193.645 69.9758L196.415 73.582C196.856 74.0473 197.341 74.4143 197.881 74.6178C198.422 74.8235 199.367 74.9513 200.698 74.9513H237.637V81.5956H194.123C193.748 81.5956 193.404 81.667 193.123 81.7834C192.837 81.9263 192.68 82.2867 192.68 82.8057C192.68 83.6536 193.574 84.2599 195.348 84.6133C197.137 84.9757 198.017 86.1681 198.017 88.1793V90.8281C198.017 93.0026 198.567 94.8974 199.648 96.4119C200.738 97.9287 203.475 98.7072 207.854 98.7072H248.595C250.577 98.7072 251.565 97.8124 251.565 96.0518C251.565 94.2911 250.577 93.3963 248.595 93.3963H211.871C211.306 93.2868 210.875 93.1278 210.616 92.8616C210.378 92.562 210.238 92.1994 210.238 91.7296V86.8751H246.306C247.338 86.8751 248.211 86.5438 248.884 85.8527C249.59 85.1793 249.938 84.3449 249.938 83.3717L249.938 71.2575Z" fill="#214395"/>
<path d="M302.85 78.4831C305.136 76.6621 307.68 75.7337 310.489 75.7337C313.154 75.7337 315.665 76.6621 317.973 78.501C320.296 80.2908 321.449 82.6643 321.449 85.6106C321.449 88.5077 320.296 90.8992 317.973 92.7672C315.665 94.6196 313.154 95.5636 310.489 95.5636C307.68 95.5636 305.136 94.6196 302.85 92.7493C300.545 90.8813 299.401 88.5077 299.401 85.6106C299.401 82.6643 300.545 80.2908 302.85 78.4831ZM294.749 74.0939C289.899 76.7023 287.471 80.5413 287.471 85.6106C287.471 90.6397 289.899 94.4629 294.749 97.105C299.566 99.6956 304.805 101 310.489 101C316.134 101.018 321.367 99.6956 326.179 97.105C330.98 94.4629 333.379 90.6397 333.379 85.6106C333.379 80.5413 330.98 76.7023 326.179 74.0939C321.367 71.5145 316.134 70.2192 310.489 70.2057C304.805 70.2057 299.566 71.5145 294.749 74.0939ZM300.058 59.8031C303.628 62.991 306.514 65.0201 308.668 65.8747C310.124 66.3959 311.443 66.6308 312.557 66.5905C313.717 66.5278 314.644 66.1096 315.35 65.3176C316.416 64.1409 316.355 62.4586 315.163 60.3064C313.949 58.1386 312.354 56.3154 310.395 54.8836C309.881 54.4452 309.137 54.1857 308.199 54.0693C307.238 53.9575 305.864 53.566 304.093 52.868C302.692 52.3266 301.315 51.6644 299.982 50.8635C298.639 50.0761 297.576 49.2751 296.724 48.5369C297.888 46.8702 298.905 45.208 299.787 43.4788C300.681 41.7517 301.409 40.0067 301.995 38.1768H313.811C315.962 38.1768 317.062 37.2886 317.062 35.4475C317.062 33.6287 315.962 32.7159 313.811 32.7159H282.127C279.904 32.7159 278.226 32.6353 277.084 32.4809C275.936 32.3242 274.694 31.9529 273.365 31.3735C272.603 31.0491 271.935 31.0825 271.41 31.427C270.853 31.8119 270.88 32.4651 271.451 33.3756L274.492 36.7514C275.01 37.2167 275.441 37.5858 275.794 37.8051C276.147 38.0557 276.985 38.1768 278.336 38.1768H287.961C287.702 41.6242 285.982 46.0403 282.747 51.4743C279.545 56.8948 275.081 61.5794 269.346 65.5525C268.013 66.4809 267.671 67.3758 268.254 68.3109C268.868 69.246 270.055 69.3579 271.842 68.595C276.234 66.6845 280.213 64.3914 283.794 61.7919C287.405 59.1588 290.546 56.2818 293.211 53.2036C294.232 54.4317 296.521 56.6308 300.058 59.8031ZM336.338 44.5481C336.338 44.4675 336.338 39.5996 336.338 29.9195C336.338 29.7449 336.289 29.481 336.196 29.0627C336.102 28.6934 335.561 28.4273 334.634 28.3311L318.883 26.698C318.287 26.6513 317.896 26.9574 317.637 27.6354C317.382 28.2998 317.637 28.8502 318.403 29.2752C319.413 29.745 320.693 30.3893 322.206 31.1298C323.745 31.8681 324.502 33.085 324.502 34.7271V68.7583C324.502 69.4339 324.661 69.9552 325.043 70.2348C325.369 70.55 325.943 70.6755 326.698 70.6755H330.313C332.04 70.6755 333.474 70.0156 334.634 68.68C335.76 67.3512 336.339 65.8545 336.339 64.1879V50.8635H346.075C347.918 50.8635 348.812 49.6667 348.789 47.2975C348.74 44.915 347.862 43.7853 346.075 43.8859L336.338 44.5481Z" fill="#214395"/>
<path d="M382.619 53.8943C379.483 57.6751 375.997 61.0598 372.123 64.0464C368.24 67.0128 364.554 69.2612 361.033 70.7556C359.384 71.467 358.281 71.3976 357.725 70.5159C357.132 69.6927 357.432 68.8448 358.58 67.9566C364.291 63.5182 368.915 58.3818 372.45 52.5139C375.997 46.6526 377.762 41.9388 377.856 38.3415C377.856 36.9567 376.842 35.8091 374.831 34.8829C372.825 33.9881 371.52 33.4691 370.863 33.384C370.113 33.1068 369.786 32.5406 369.929 31.6614C370.059 30.8136 370.644 30.4221 371.739 30.4847L390.631 32.0082C391.462 32.071 392.016 32.3706 392.342 32.9187C392.65 33.4869 392.767 34.129 392.628 34.8113C392.248 37.2162 391.498 39.6525 390.336 42.1044C389.192 44.5764 387.762 47.0283 386.051 49.431C387.387 50.5473 388.928 51.592 390.666 52.5585C392.436 53.5026 394.071 54.2319 395.608 54.7285C397.253 55.1358 398.419 55.4757 399.125 55.6368C399.813 55.8292 400.738 56.4557 401.891 57.525C403.656 59.1738 404.96 60.9656 405.751 62.8649C406.542 64.7598 406.497 66.2497 405.626 67.328C404.848 68.1759 403.687 68.6031 402.123 68.6792C400.563 68.7507 398.937 68.2563 397.208 67.234C395.152 66.0461 392.565 63.9656 389.397 60.941C386.193 57.9097 383.946 55.57 382.619 53.8943ZM427.743 73.3302C427.743 74.9969 427.176 76.4891 426.046 77.8313C424.888 79.1759 423.458 79.8336 421.743 79.8336H418.11C417.346 79.8336 416.805 79.6926 416.493 79.42C416.162 79.1135 416.01 78.5945 416.01 77.9032V34.7266C416.01 33.0845 415.241 31.8676 413.682 31.1293C412.123 30.3888 410.858 29.7445 409.902 29.2747C409.071 28.8495 408.789 28.2993 409.026 27.6349C409.29 26.957 409.719 26.6506 410.277 26.6975L426.046 28.3306C426.912 28.4268 427.431 28.6931 427.551 29.0622C427.694 29.4805 427.744 29.7445 427.744 29.919L427.743 73.3302ZM372.887 73.1715L388.539 74.3057C389.598 74.6814 390.148 75.3035 390.148 76.1603C390.148 77.7621 390.148 81.6659 390.148 87.9411C390.211 89.7106 390.528 90.9679 391.104 91.7285C391.685 92.4668 393.084 92.8605 395.327 92.8605H425.55C427.904 92.8605 429.093 93.7084 429.093 95.4511C429.093 97.1983 427.904 98.0462 425.55 98.0462H386.618C385.094 98.0462 383.294 97.5898 381.221 96.6144C379.156 95.6569 378.115 93.677 378.115 90.6771C378.115 89.3392 378.115 85.7106 378.115 79.8337C378.115 78.563 377.391 77.5965 375.885 77.0306C374.38 76.4489 373.298 75.9858 372.597 75.657C371.641 75.2318 371.31 74.7107 371.587 74.0619C371.886 73.4109 372.311 73.1246 372.887 73.1715Z" fill="#214395"/>
<path d="M487.953 72.7335C486.756 73.5814 485.277 74.3196 483.601 74.9169C481.921 75.4919 480.179 75.9862 478.409 76.4247L465.433 78.6753C462.641 79.0423 459.723 79.1137 456.689 78.8544C453.695 78.5772 452.172 76.4249 452.172 72.4182V43.5324C452.172 42.3399 451.98 41.4205 451.586 40.7538C451.215 40.0849 450.697 39.5481 450.081 39.0961C449.446 38.671 448.754 38.3087 448.012 37.9798C447.288 37.6486 446.917 37.3489 446.917 37.038C446.917 36.7044 447.029 36.3601 447.198 36.0223C447.404 35.6778 447.753 35.4988 448.253 35.4988H478.128C480.228 35.4988 481.295 36.3601 481.309 38.1028C481.358 39.8411 480.272 40.7113 478.128 40.7113H463.986V69.8611C463.986 71.1944 464.28 71.9148 464.866 72.0602C465.433 72.2014 466.193 72.2394 467.149 72.1922L478.128 71.1139C480.272 70.7561 482.203 70.4227 483.842 70.143C485.5 69.8342 486.867 69.3869 487.953 68.7985V35.4988C487.953 33.8456 487.573 32.7002 486.8 32.0335C486.041 31.4116 485.125 30.8143 484.03 30.2729C482.891 29.6979 482.363 29.038 482.471 28.3311C482.569 27.5928 483.15 27.311 484.236 27.4854L496.814 29.0626C497.783 29.1813 498.302 29.4158 498.395 29.8389C498.485 30.2485 498.538 30.5167 498.538 30.6957V53.6442H504.173V34.765C504.173 33.1074 503.793 31.953 503.033 31.2863C502.26 30.6264 501.331 30.0291 500.254 29.4809C498.994 28.7338 498.485 28.0492 498.784 27.4429C499.065 26.8165 499.62 26.557 500.455 26.6756L513.337 28.2863C514.231 28.3802 514.731 28.6286 514.847 29.038C514.986 29.416 515.048 29.7315 515.048 29.8881V94.2593C515.048 95.9081 514.521 97.3689 513.431 98.6127C512.349 99.8834 510.951 100.514 509.226 100.514H506.277C505.575 100.514 505.053 100.371 504.686 100.08C504.347 99.7739 504.172 99.2706 504.172 98.5793V60.2125H498.538V93.4563C498.538 95.0984 498.006 96.5525 496.907 97.8165C495.848 99.0827 494.427 99.6956 492.716 99.6956H490.057C489.28 99.6956 488.735 99.5546 488.431 99.2618C488.118 98.9644 487.953 98.4698 487.953 97.7942L487.953 72.7335Z" fill="#214395"/>
<path d="M552.139 44.6887C553.551 42.7088 555.361 41.7178 557.528 41.7178C559.632 41.7178 561.384 42.6932 562.778 44.6574C564.19 46.6104 564.883 48.9772 564.883 51.758C564.883 54.5253 564.19 56.8945 562.841 58.8609C561.46 60.8251 559.726 61.7915 557.622 61.7915C555.472 61.7915 553.649 60.8251 552.188 58.8609C550.727 56.8945 549.99 54.5253 549.99 51.758C549.99 49.0399 550.696 46.6663 552.139 44.6887ZM601.522 29.9326C601.522 29.7447 601.469 29.4808 601.361 29.0869C601.298 28.6934 600.749 28.427 599.811 28.3308L583.957 26.7223C583.394 26.6751 582.979 26.9573 582.724 27.635C582.487 28.3308 582.724 28.8744 583.475 29.2749C584.493 29.7447 585.798 30.389 587.304 31.1294C588.837 31.8677 589.583 33.0847 589.583 34.7268V68.8452C589.583 69.5589 589.766 70.0488 590.114 70.3463C590.472 70.6437 591.035 70.7848 591.79 70.7848H595.508C597.232 70.7848 598.662 70.0958 599.811 68.758C600.937 67.4224 601.522 65.9526 601.522 64.2815V50.0757H611.245C613.081 50.0757 614.011 48.8833 613.975 46.5164C613.934 44.1384 613.028 42.975 611.245 43.1026L601.522 43.72L601.522 29.9326ZM599.811 76.0801C599.811 75.4917 599.663 75.0734 599.426 74.8385C599.163 74.6034 598.716 74.4761 598.081 74.4761H554.279C553.068 74.4761 551.951 74.3822 550.946 74.1943C549.923 73.9996 548.712 73.6462 547.318 73.1049C546.63 72.89 546.089 73.0109 545.705 73.4874C545.312 73.9282 545.312 74.4941 545.705 75.1854L548.466 78.5008C548.913 78.9729 549.328 79.3397 549.704 79.5836C550.084 79.8209 550.946 79.9148 552.282 79.9148H587.679V98.6441C587.679 99.3175 587.885 99.8208 588.238 100.105C588.635 100.409 589.203 100.575 589.985 100.575H592.934C595.029 100.575 596.718 99.7268 597.938 98.0602C599.198 96.4114 599.81 94.2749 599.81 91.6508L599.811 76.0801ZM538.596 46.2684C537.8 48.0201 537.403 49.8254 537.403 51.7583C537.403 56.0939 539.32 59.7806 543.18 62.8366C547.005 65.8835 551.88 67.4003 557.724 67.4003C563.435 67.4003 568.157 65.8835 571.893 62.8366C575.615 59.7806 577.469 56.0939 577.469 51.7583C577.469 49.8254 577.094 48.0201 576.343 46.2684C575.566 44.5481 574.485 42.9753 573.077 41.6241H581.2C583.3 41.6241 584.35 40.6644 584.399 38.7427C584.422 36.8254 583.358 35.8568 581.2 35.8568H563.546L563.716 28.2371C563.716 27.6733 563.555 27.217 563.202 26.9821C562.84 26.7695 562.429 26.5793 561.924 26.5569L549.896 25.6151C548.953 25.4877 548.341 25.8322 548.077 26.6509C547.822 27.4428 548.359 28.237 549.704 29.0535C550.539 29.6419 551.058 30.3891 551.294 31.2549C551.504 32.143 551.621 33.6755 551.621 35.8566H539.4C537.242 35.8566 535.647 35.8337 534.628 35.7874C533.605 35.716 532.385 35.4337 531.018 34.9149C530.307 34.5301 529.632 34.5301 529.002 34.9149C528.368 35.2929 528.462 35.9977 529.284 37.0604L531.866 40.2102C532.304 40.6643 532.711 41.0581 533.104 41.2796C533.497 41.521 534.346 41.6242 535.669 41.6242H541.978C540.508 42.9755 539.382 44.5481 538.596 46.2684Z" fill="#214395"/>
<path d="M659.73 85.0854V64.3852C659.73 62.7431 659.502 61.6089 659.024 61.0608C658.528 60.5015 657.723 59.8975 656.575 59.2398C655.311 58.7678 654.895 58.1705 655.306 57.4792C655.713 56.7946 656.218 56.4724 656.794 56.5195C662.567 57.0608 666.713 57.4322 669.189 57.6514C669.618 57.6986 669.948 57.8865 670.158 58.2398C670.324 58.5935 670.431 58.9087 670.431 59.1593C670.431 60.2286 670.431 63.9982 670.431 70.4568C670.431 76.8908 670.431 81.7834 670.431 85.0854H694.077C696.695 85.0854 698 86.0272 698 87.8952C698 89.7587 696.695 90.7073 694.077 90.7073H629.297C627.76 90.7073 626.763 90.584 626.294 90.3471C625.807 90.0965 625.382 89.7118 625.007 89.1994L622.147 85.3337C621.62 84.4254 621.62 83.7319 622.147 83.2442C622.661 82.7811 623.341 82.7275 624.234 83.1838C625.713 83.7945 626.951 84.2979 628.019 84.6044C629.064 84.9356 630.78 85.0854 633.215 85.0854H642.076V65.6716C642.076 64.0138 641.839 62.8975 641.37 62.3338C640.887 61.7678 640.07 61.1883 638.944 60.5441C637.666 60.072 637.237 59.4501 637.652 58.7678C638.059 58.0765 638.564 57.7454 639.131 57.808C644.855 58.327 648.957 58.7208 651.437 58.9244C651.883 58.9848 652.214 59.175 652.438 59.5217C652.665 59.8974 652.764 60.195 652.764 60.4635C652.764 61.515 652.764 65.1056 652.764 71.2085C652.764 77.3069 652.764 81.9266 652.764 85.0854H659.73ZM639.225 40.0698C638.077 40.0698 637.143 40.0227 636.415 39.9022C635.677 39.795 635.034 39.4546 634.542 38.8597L631.397 34.7657C631.017 34.2937 630.968 33.7232 631.263 33.0857C631.539 32.4481 632.17 32.3249 633.108 32.779C634.596 33.3607 635.892 33.7231 637.071 33.8797C638.246 34.0364 639.882 34.1304 641.982 34.1304C672.402 34.1304 687.661 34.1304 687.786 34.1304C688.992 34.1771 689.77 34.6002 690.123 35.419C690.48 36.2109 690.668 37.0611 690.668 37.9805C690.158 44.5778 688.947 51.287 687.017 58.1393C685.136 64.9894 682.732 69.9558 679.868 73.0497C678.939 74.1169 677.696 74.7119 676.204 74.8238C674.698 74.9246 674.175 73.9535 674.622 71.8551C675.574 67.307 676.24 62.2623 676.62 56.6784C677.004 51.1169 677.192 45.6002 677.192 40.07L639.225 40.0698Z" fill="#214395"/>
</g>
<defs>
<clipPath id="clip0_2_616">
<rect width="78" height="103" fill="white"/>
</clipPath>
<clipPath id="clip1_2_616">
<rect width="610" height="98" fill="white" transform="translate(88 3)"/>
</clipPath>
</defs>
</svg>
