<svg width="287" height="342" viewBox="0 0 287 342" fill="none" xmlns="http://www.w3.org/2000/svg">
<path d="M143.5 320.307C222.753 320.307 287 256.06 287 176.807C287 97.5538 222.753 33.3067 143.5 33.3067C64.2471 33.3067 0 97.5538 0 176.807C0 256.06 64.2471 320.307 143.5 320.307Z" fill="#FAFAFA"/>
<g filter="url(#filter0_d_758_17828)">
<path d="M225.773 115.58H61.2258C55.9423 115.58 51.6592 119.863 51.6592 125.147V326.047C51.6592 331.33 55.9423 335.613 61.2258 335.613H225.773C231.056 335.613 235.339 331.33 235.339 326.047V125.147C235.339 119.863 231.056 115.58 225.773 115.58Z" fill="#FAFAFA"/>
</g>
<path d="M124.366 144.28H74.6189C71.4488 144.28 68.8789 146.85 68.8789 150.02C68.8789 153.19 71.4488 155.76 74.6189 155.76H124.366C127.536 155.76 130.106 153.19 130.106 150.02C130.106 146.85 127.536 144.28 124.366 144.28Z" fill="#DCDCDC"/>
<path d="M158.806 169.153H74.6189C71.4488 169.153 68.8789 171.723 68.8789 174.893C68.8789 178.063 71.4488 180.633 74.6189 180.633H158.806C161.976 180.633 164.546 178.063 164.546 174.893C164.546 171.723 161.976 169.153 158.806 169.153Z" fill="#E8E8E8"/>
<path d="M124.366 195.724H74.6189C71.4488 195.724 68.8789 198.294 68.8789 201.464C68.8789 204.634 71.4488 207.204 74.6189 207.204H124.366C127.536 207.204 130.106 204.634 130.106 201.464C130.106 198.294 127.536 195.724 124.366 195.724Z" fill="#DCDCDC"/>
<path d="M158.806 220.598H74.6189C71.4488 220.598 68.8789 223.168 68.8789 226.338C68.8789 229.508 71.4488 232.078 74.6189 232.078H158.806C161.976 232.078 164.546 229.508 164.546 226.338C164.546 223.168 161.976 220.598 158.806 220.598Z" fill="#E8E8E8"/>
<path d="M124.366 247.169H74.6189C71.4488 247.169 68.8789 249.739 68.8789 252.909C68.8789 256.079 71.4488 258.649 74.6189 258.649H124.366C127.536 258.649 130.106 256.079 130.106 252.909C130.106 249.739 127.536 247.169 124.366 247.169Z" fill="#DCDCDC"/>
<path d="M158.806 272.042H74.6189C71.4488 272.042 68.8789 274.612 68.8789 277.782C68.8789 280.952 71.4488 283.522 74.6189 283.522H158.806C161.976 283.522 164.546 280.952 164.546 277.782C164.546 274.612 161.976 272.042 158.806 272.042Z" fill="#E8E8E8"/>
<g filter="url(#filter1_d_758_17828)">
<path d="M225.773 18H61.2258C55.9423 18 51.6592 22.2831 51.6592 27.5667V84.9667C51.6592 90.2502 55.9423 94.5333 61.2258 94.5333H225.773C231.056 94.5333 235.339 90.2502 235.339 84.9667V27.5667C235.339 22.2831 231.056 18 225.773 18Z" fill="#C5C5C5"/>
</g>
<path d="M124.366 39.0466H74.6189C71.4488 39.0466 68.8789 41.6165 68.8789 44.7866C68.8789 47.9567 71.4488 50.5266 74.6189 50.5266H124.366C127.536 50.5266 130.106 47.9567 130.106 44.7866C130.106 41.6165 127.536 39.0466 124.366 39.0466Z" fill="#DCDCDC"/>
<path d="M158.806 63.92H74.6189C71.4488 63.92 68.8789 66.4899 68.8789 69.66C68.8789 72.8301 71.4488 75.4 74.6189 75.4H158.806C161.976 75.4 164.546 72.8301 164.546 69.66C164.546 66.4899 161.976 63.92 158.806 63.92Z" fill="#E8E8E8"/>
<defs>
<filter id="filter0_d_758_17828" x="40.1792" y="98.3601" width="206.64" height="242.993" filterUnits="userSpaceOnUse" color-interpolation-filters="sRGB">
<feFlood flood-opacity="0" result="BackgroundImageFix"/>
<feColorMatrix in="SourceAlpha" type="matrix" values="0 0 0 0 0 0 0 0 0 0 0 0 0 0 0 0 0 0 127 0" result="hardAlpha"/>
<feOffset dy="-5.74"/>
<feGaussianBlur stdDeviation="5.74"/>
<feColorMatrix type="matrix" values="0 0 0 0 0.788235 0 0 0 0 0.803922 0 0 0 0 0.85098 0 0 0 0.349 0"/>
<feBlend mode="normal" in2="BackgroundImageFix" result="effect1_dropShadow_758_17828"/>
<feBlend mode="normal" in="SourceGraphic" in2="effect1_dropShadow_758_17828" result="shape"/>
</filter>
<filter id="filter1_d_758_17828" x="40.1792" y="0.780004" width="206.64" height="99.4933" filterUnits="userSpaceOnUse" color-interpolation-filters="sRGB">
<feFlood flood-opacity="0" result="BackgroundImageFix"/>
<feColorMatrix in="SourceAlpha" type="matrix" values="0 0 0 0 0 0 0 0 0 0 0 0 0 0 0 0 0 0 127 0" result="hardAlpha"/>
<feOffset dy="-5.74"/>
<feGaussianBlur stdDeviation="5.74"/>
<feColorMatrix type="matrix" values="0 0 0 0 0.788235 0 0 0 0 0.803922 0 0 0 0 0.85098 0 0 0 0.349 0"/>
<feBlend mode="normal" in2="BackgroundImageFix" result="effect1_dropShadow_758_17828"/>
<feBlend mode="normal" in="SourceGraphic" in2="effect1_dropShadow_758_17828" result="shape"/>
</filter>
</defs>
</svg>
