<svg width="310" height="333" viewBox="0 0 310 333" fill="none" xmlns="http://www.w3.org/2000/svg">
<path d="M155 310C240.604 310 310 240.604 310 155C310 69.3959 240.604 0 155 0C69.3959 0 0 69.3959 0 155C0 240.604 69.3959 310 155 310Z" fill="#FAFAFA"/>
<g filter="url(#filter0_d_758_20202)">
<path d="M243.866 88.8666H66.1331C60.4262 88.8666 55.7998 93.493 55.7998 99.2V316.2C55.7998 321.907 60.4262 326.533 66.1331 326.533H243.866C249.573 326.533 254.2 321.907 254.2 316.2V99.2C254.2 93.493 249.573 88.8666 243.866 88.8666Z" fill="white"/>
</g>
<path d="M136.4 109.533H82.6668C79.2426 109.533 76.4668 112.309 76.4668 115.733C76.4668 119.157 79.2426 121.933 82.6668 121.933H136.4C139.824 121.933 142.6 119.157 142.6 115.733C142.6 112.309 139.824 109.533 136.4 109.533Z" fill="#DCDCDC"/>
<path d="M136.4 196.333H82.6668C79.2426 196.333 76.4668 199.109 76.4668 202.533C76.4668 205.957 79.2426 208.733 82.6668 208.733H136.4C139.824 208.733 142.6 205.957 142.6 202.533C142.6 199.109 139.824 196.333 136.4 196.333Z" fill="#DCDCDC"/>
<path d="M86.8001 139.5H223.2C228.336 139.5 232.5 143.664 232.5 148.8V169.467C232.5 174.603 228.336 178.767 223.2 178.767H86.8001C81.6639 178.767 77.5001 174.603 77.5001 169.467V148.8C77.5001 143.664 81.6639 139.5 86.8001 139.5Z" stroke="#E8E8E8" stroke-width="2.06667"/>
<path d="M223.2 140.533H86.7999C82.2343 140.533 78.5332 144.234 78.5332 148.8V169.467C78.5332 174.032 82.2343 177.733 86.7999 177.733H223.2C227.765 177.733 231.467 174.032 231.467 169.467V148.8C231.467 144.234 227.765 140.533 223.2 140.533Z" stroke="#E8E8E8" stroke-width="4.13333"/>
<path d="M223.2 225.267H86.8001C81.0932 225.267 76.4668 229.893 76.4668 235.6V252.133C76.4668 257.84 81.0932 262.467 86.8001 262.467H223.2C228.907 262.467 233.533 257.84 233.533 252.133V235.6C233.533 229.893 228.907 225.267 223.2 225.267Z" fill="#E8E8E8"/>
<path d="M109.532 66.1333C114.098 66.1333 117.799 62.4322 117.799 57.8666C117.799 53.3011 114.098 49.6 109.532 49.6C104.967 49.6 101.266 53.3011 101.266 57.8666C101.266 62.4322 104.967 66.1333 109.532 66.1333Z" fill="#E8E8E8"/>
<path d="M154.999 66.1333C159.565 66.1333 163.266 62.4322 163.266 57.8666C163.266 53.3011 159.565 49.6 154.999 49.6C150.434 49.6 146.732 53.3011 146.732 57.8666C146.732 62.4322 150.434 66.1333 154.999 66.1333Z" fill="#C5C5C5"/>
<path d="M200.466 66.1333C205.031 66.1333 208.733 62.4322 208.733 57.8666C208.733 53.3011 205.031 49.6 200.466 49.6C195.9 49.6 192.199 53.3011 192.199 57.8666C192.199 62.4322 195.9 66.1333 200.466 66.1333Z" fill="#E8E8E8"/>
<path d="M177.732 181.867C183.439 181.867 188.065 177.24 188.065 171.533C188.065 165.826 183.439 161.2 177.732 161.2C172.025 161.2 167.398 165.826 167.398 171.533C167.398 177.24 172.025 181.867 177.732 181.867Z" fill="#E8E8E8"/>
<path d="M185.807 215.698C184.154 215.698 182.61 215.698 181.205 215.609C179.474 215.492 177.808 214.9 176.392 213.898C174.976 212.895 173.864 211.522 173.178 209.928L164.459 192.696C163.819 191.952 163.5 190.984 163.57 190.005C163.641 189.026 164.095 188.115 164.835 187.47C165.441 186.983 166.196 186.72 166.974 186.728C167.546 186.744 168.108 186.885 168.62 187.14C169.133 187.394 169.585 187.757 169.943 188.203L173.903 193.608L173.963 193.678V173.145C173.963 172.127 174.368 171.15 175.088 170.43C175.808 169.709 176.785 169.305 177.804 169.305C178.823 169.305 179.8 169.709 180.52 170.43C181.24 171.15 181.645 172.127 181.645 173.145V186.579C181.6 186.084 181.659 185.586 181.818 185.116C181.976 184.646 182.231 184.214 182.566 183.847C182.901 183.481 183.308 183.188 183.762 182.988C184.217 182.788 184.707 182.684 185.204 182.684C185.7 182.684 186.191 182.788 186.645 182.988C187.099 183.188 187.507 183.481 187.842 183.847C188.176 184.214 188.431 184.646 188.59 185.116C188.748 185.586 188.807 186.084 188.763 186.579V189.379C188.718 188.885 188.777 188.387 188.935 187.916C189.094 187.446 189.349 187.014 189.684 186.647C190.018 186.281 190.426 185.988 190.88 185.788C191.334 185.588 191.825 185.485 192.321 185.485C192.818 185.485 193.309 185.588 193.763 185.788C194.217 185.988 194.624 186.281 194.959 186.647C195.294 187.014 195.549 187.446 195.707 187.916C195.866 188.387 195.925 188.885 195.88 189.379V191.537C195.836 191.042 195.894 190.544 196.053 190.074C196.212 189.604 196.466 189.171 196.801 188.805C197.136 188.439 197.543 188.146 197.998 187.946C198.452 187.746 198.943 187.642 199.439 187.642C199.935 187.642 200.426 187.746 200.88 187.946C201.334 188.146 201.742 188.439 202.077 188.805C202.412 189.171 202.666 189.604 202.825 190.074C202.983 190.544 203.042 191.042 202.998 191.537V204.633C202.927 208.661 201.107 215.452 194.702 215.452C194.237 215.473 190.298 215.7 185.815 215.7L185.807 215.698Z" fill="#C5C5C5" stroke="white" stroke-width="2.06667"/>
<defs>
<filter id="filter0_d_758_20202" x="43.3998" y="70.2666" width="223.2" height="262.467" filterUnits="userSpaceOnUse" color-interpolation-filters="sRGB">
<feFlood flood-opacity="0" result="BackgroundImageFix"/>
<feColorMatrix in="SourceAlpha" type="matrix" values="0 0 0 0 0 0 0 0 0 0 0 0 0 0 0 0 0 0 127 0" result="hardAlpha"/>
<feOffset dy="-6.2"/>
<feGaussianBlur stdDeviation="6.2"/>
<feColorMatrix type="matrix" values="0 0 0 0 0.788235 0 0 0 0 0.803922 0 0 0 0 0.85098 0 0 0 0.349 0"/>
<feBlend mode="normal" in2="BackgroundImageFix" result="effect1_dropShadow_758_20202"/>
<feBlend mode="normal" in="SourceGraphic" in2="effect1_dropShadow_758_20202" result="shape"/>
</filter>
</defs>
</svg>
