<svg width="14" height="14" viewBox="0 0 14 14" fill="none" xmlns="http://www.w3.org/2000/svg">
<g clip-path="url(#clip0_429_8277)">
<rect width="14" height="14" transform="translate(0 0.00488281)" fill="white" fill-opacity="0.01"/>
<g clip-path="url(#clip1_429_8277)">
<path d="M12.25 3.94141V12.2539C12.25 12.718 12.0656 13.1632 11.7374 13.4913C11.4092 13.8195 10.9641 14.0039 10.5 14.0039H3.5C3.03587 14.0039 2.59075 13.8195 2.26256 13.4913C1.93437 13.1632 1.75 12.718 1.75 12.2539V1.75391C1.75 1.28978 1.93437 0.844658 2.26256 0.516469C2.59075 0.188281 3.03587 0.00390625 3.5 0.00390625H8.3125L12.25 3.94141ZM9.625 3.94141C9.2769 3.94141 8.94306 3.80313 8.69692 3.55698C8.45078 3.31084 8.3125 2.977 8.3125 2.62891V0.878906H3.5C3.26794 0.878906 3.04538 0.971093 2.88128 1.13519C2.71719 1.29928 2.625 1.52184 2.625 1.75391V12.2539C2.625 12.486 2.71719 12.7085 2.88128 12.8726C3.04538 13.0367 3.26794 13.1289 3.5 13.1289H10.5C10.7321 13.1289 10.9546 13.0367 11.1187 12.8726C11.2828 12.7085 11.375 12.486 11.375 12.2539V3.94141H9.625Z" fill="#0B76B7"/>
</g>
</g>
<defs>
<clipPath id="clip0_429_8277">
<rect width="14" height="14" fill="white" transform="translate(0 0.00488281)"/>
</clipPath>
<clipPath id="clip1_429_8277">
<rect width="14" height="14" fill="white" transform="translate(0 0.00488281)"/>
</clipPath>
</defs>
</svg>
