<svg width="14" height="14" viewBox="0 0 14 14" fill="none" xmlns="http://www.w3.org/2000/svg">
<g clip-path="url(#clip0_429_4233)">
<rect width="14" height="14" transform="translate(0 0.00488281)" fill="white" fill-opacity="0.01"/>
<g clip-path="url(#clip1_429_4233)">
<path d="M4.8125 4.81641C4.92853 4.81641 5.03981 4.8625 5.12186 4.94455C5.20391 5.02659 5.25 5.13787 5.25 5.25391V10.5039C5.25 10.6199 5.20391 10.7312 5.12186 10.8133C5.03981 10.8953 4.92853 10.9414 4.8125 10.9414C4.69647 10.9414 4.58519 10.8953 4.50314 10.8133C4.42109 10.7312 4.375 10.6199 4.375 10.5039V5.25391C4.375 5.13787 4.42109 5.02659 4.50314 4.94455C4.58519 4.8625 4.69647 4.81641 4.8125 4.81641ZM7 4.81641C7.11603 4.81641 7.22731 4.8625 7.30936 4.94455C7.39141 5.02659 7.4375 5.13787 7.4375 5.25391V10.5039C7.4375 10.6199 7.39141 10.7312 7.30936 10.8133C7.22731 10.8953 7.11603 10.9414 7 10.9414C6.88397 10.9414 6.77269 10.8953 6.69064 10.8133C6.60859 10.7312 6.5625 10.6199 6.5625 10.5039V5.25391C6.5625 5.13787 6.60859 5.02659 6.69064 4.94455C6.77269 4.8625 6.88397 4.81641 7 4.81641ZM9.625 5.25391C9.625 5.13787 9.57891 5.02659 9.49686 4.94455C9.41481 4.8625 9.30353 4.81641 9.1875 4.81641C9.07147 4.81641 8.96019 4.8625 8.87814 4.94455C8.79609 5.02659 8.75 5.13787 8.75 5.25391V10.5039C8.75 10.6199 8.79609 10.7312 8.87814 10.8133C8.96019 10.8953 9.07147 10.9414 9.1875 10.9414C9.30353 10.9414 9.41481 10.8953 9.49686 10.8133C9.57891 10.7312 9.625 10.6199 9.625 10.5039V5.25391Z" fill="#333843"/>
<path fill-rule="evenodd" clip-rule="evenodd" d="M12.6875 2.62891C12.6875 2.86097 12.5953 3.08353 12.4312 3.24762C12.2671 3.41172 12.0446 3.50391 11.8125 3.50391H11.375V11.3789C11.375 11.843 11.1906 12.2882 10.8624 12.6163C10.5342 12.9445 10.0891 13.1289 9.625 13.1289H4.375C3.91087 13.1289 3.46575 12.9445 3.13756 12.6163C2.80937 12.2882 2.625 11.843 2.625 11.3789V3.50391H2.1875C1.95544 3.50391 1.73288 3.41172 1.56878 3.24762C1.40469 3.08353 1.3125 2.86097 1.3125 2.62891V1.75391C1.3125 1.52184 1.40469 1.29928 1.56878 1.13519C1.73288 0.971093 1.95544 0.878906 2.1875 0.878906H5.25C5.25 0.646842 5.34219 0.424282 5.50628 0.260188C5.67038 0.0960935 5.89294 0.00390625 6.125 0.00390625H7.875C8.10706 0.00390625 8.32962 0.0960935 8.49372 0.260188C8.65781 0.424282 8.75 0.646842 8.75 0.878906H11.8125C12.0446 0.878906 12.2671 0.971093 12.4312 1.13519C12.5953 1.29928 12.6875 1.52184 12.6875 1.75391V2.62891ZM3.60325 3.50391L3.5 3.55553V11.3789C3.5 11.611 3.59219 11.8335 3.75628 11.9976C3.92038 12.1617 4.14294 12.2539 4.375 12.2539H9.625C9.85707 12.2539 10.0796 12.1617 10.2437 11.9976C10.4078 11.8335 10.5 11.611 10.5 11.3789V3.55553L10.3967 3.50391H3.60325ZM2.1875 2.62891V1.75391H11.8125V2.62891H2.1875Z" fill="#333843"/>
</g>
</g>
<defs>
<clipPath id="clip0_429_4233">
<rect width="14" height="14" fill="white" transform="translate(0 0.00488281)"/>
</clipPath>
<clipPath id="clip1_429_4233">
<rect width="14" height="14" fill="white" transform="translate(0 0.00488281)"/>
</clipPath>
</defs>
</svg>
