<svg width="14" height="14" viewBox="0 0 14 14" fill="none" xmlns="http://www.w3.org/2000/svg">
<g clip-path="url(#clip0_367_8264)">
<path d="M0.437256 8.66154C0.67888 8.66154 0.874756 8.85742 0.874756 9.09904V11.2865C0.874756 11.7698 1.26651 12.1615 1.74976 12.1615H12.2498C12.733 12.1615 13.1248 11.7698 13.1248 11.2865V9.09904C13.1248 8.85742 13.3206 8.66154 13.5623 8.66154C13.8039 8.66154 13.9998 8.85742 13.9998 9.09904V11.2865C13.9998 12.253 13.2163 13.0365 12.2498 13.0365H1.74976C0.783258 13.0365 -0.000244141 12.253 -0.000244141 11.2865V9.09904C-0.000244141 8.85742 0.195631 8.66154 0.437256 8.66154Z" fill="#212529"/>
<path d="M6.6904 10.3709C6.86125 10.5417 7.13826 10.5417 7.30912 10.3709L9.93412 7.74588C10.105 7.57503 10.105 7.29802 9.93412 7.12716C9.76326 6.95631 9.48625 6.95631 9.3154 7.12716L7.43726 9.00531V1.31152C7.43726 1.0699 7.24138 0.874023 6.99976 0.874023C6.75813 0.874023 6.56226 1.0699 6.56226 1.31152V9.00531L4.68411 7.12716C4.51326 6.95631 4.23625 6.95631 4.0654 7.12716C3.89454 7.29802 3.89454 7.57503 4.0654 7.74588L6.6904 10.3709Z" fill="#212529"/>
</g>
<defs>
<clipPath id="clip0_367_8264">
<rect width="14" height="14" fill="white"/>
</clipPath>
</defs>
</svg>
