<svg width="16" height="17" viewBox="0 0 16 17" fill="none" xmlns="http://www.w3.org/2000/svg">
<g clip-path="url(#clip0_367_10883)">
<rect width="16" height="16" transform="translate(0 0.5)" fill="white" fill-opacity="0.01"/>
<path d="M9.82812 1.22119C9.96073 1.22119 10.0879 1.27387 10.1817 1.36764L15.1314 6.31739C15.3267 6.51265 15.3267 6.82923 15.1314 7.02449C14.651 7.50489 14.0594 7.61288 13.6288 7.61288C13.4514 7.61288 13.2933 7.59487 13.1681 7.57362L10.0345 10.7072C10.0414 10.735 10.0485 10.7646 10.0557 10.7956C10.1096 11.0291 10.1701 11.3548 10.1944 11.72C10.2413 12.4225 10.1627 13.4074 9.47457 14.0956C9.2793 14.2908 8.96272 14.2908 8.76746 14.0956L5.93903 11.2671L2.75705 14.4491C2.56179 14.6444 1.5381 15.3515 1.34284 15.1562C1.14758 14.961 1.85468 13.9373 2.04995 13.742L5.23192 10.56L2.4035 7.7316C2.20824 7.53634 2.20824 7.21975 2.4035 7.02449C3.09167 6.33632 4.07653 6.25779 4.77905 6.30463C5.14424 6.32897 5.46991 6.38949 5.70343 6.44338C5.73448 6.45055 5.76402 6.45762 5.79191 6.46451L8.92544 3.33098C8.90419 3.20574 8.88618 3.04763 8.88618 2.87024C8.88618 2.43961 8.99417 1.84803 9.47457 1.36764C9.56833 1.27387 9.69551 1.22119 9.82812 1.22119ZM9.94979 3.33352L9.94903 3.3312L9.94979 3.33352ZM9.94903 3.3312L9.94979 3.33352C10.0083 3.51247 9.96136 3.70927 9.82812 3.84251L6.29258 7.37805C6.15879 7.51184 5.96093 7.55864 5.78139 7.49899L5.77938 7.49834L5.76626 7.49419C5.75378 7.4903 5.73401 7.48429 5.70772 7.47673C5.65506 7.4616 5.57666 7.44041 5.47857 7.41778C5.2812 7.37223 5.01025 7.32226 4.71253 7.30241C4.29075 7.2743 3.87684 7.31019 3.53787 7.45176L9.0473 12.9612C9.18887 12.6222 9.22476 12.2083 9.19664 11.7865C9.1768 11.4888 9.12683 11.2179 9.08128 11.0205C9.05865 10.9224 9.03746 10.844 9.02232 10.7913C9.01477 10.765 9.00876 10.7453 9.00487 10.7328L9.00072 10.7197L9.00022 10.7181C8.94046 10.5385 8.98716 10.3403 9.12101 10.2065L12.6565 6.67094C12.7903 6.53719 12.988 6.49038 13.1675 6.54992C13.1711 6.551 13.1784 6.55312 13.1886 6.55592C13.2092 6.56153 13.2422 6.56984 13.2849 6.5784C13.3715 6.5957 13.4925 6.61288 13.6288 6.61288C13.7423 6.61288 13.8585 6.60128 13.9717 6.57192L9.92713 2.52731C9.89777 2.64053 9.88618 2.75672 9.88618 2.87024C9.88618 3.00656 9.90336 3.12759 9.92066 3.21412C9.92922 3.25689 9.93752 3.28986 9.94314 3.31044C9.94593 3.3207 9.94795 3.32767 9.94903 3.3312Z" fill="#fbbf24"/>
</g>
<defs>
<clipPath id="clip0_367_10883">
<rect width="16" height="16" fill="white" transform="translate(0 0.5)"/>
</clipPath>
</defs>
</svg>
