<svg width="14" height="15" viewBox="0 0 14 15" fill="none" xmlns="http://www.w3.org/2000/svg">
<path d="M7 14.4219C10.866 14.4219 14 11.2879 14 7.42188C14 3.55588 10.866 0.421875 7 0.421875C3.13401 0.421875 0 3.55588 0 7.42188C0 11.2879 3.13401 14.4219 7 14.4219ZM7.81437 6.18628L6.93766 10.3032C6.87613 10.6006 6.96329 10.7698 7.20426 10.7698C7.37345 10.7698 7.6298 10.7083 7.80411 10.5544L7.72721 10.9185C7.47599 11.2209 6.92228 11.4414 6.44547 11.4414C5.83023 11.4414 5.56876 11.0723 5.73795 10.2878L6.38395 7.25269C6.44034 6.99634 6.38907 6.90405 6.13272 6.84253L5.73795 6.77075L5.80973 6.4375L7.81437 6.18628ZM7 5.23438C6.51675 5.23438 6.125 4.84262 6.125 4.35938C6.125 3.87613 6.51675 3.48438 7 3.48438C7.48325 3.48438 7.875 3.87613 7.875 4.35938C7.875 4.84262 7.48325 5.23438 7 5.23438Z" fill="black"/>
</svg>
