<svg width="11" height="21" viewBox="0 0 11 21" fill="none" xmlns="http://www.w3.org/2000/svg">
<rect width="11" height="21" fill="white" fill-opacity="0.01"/>
<path d="M4.98235 17.6588L1.6851 13.8899C1.29598 13.4464 1.61223 12.75 2.20279 12.75H8.79729C8.92946 12.7499 9.05886 12.7879 9.16999 12.8594C9.28113 12.9309 9.36928 13.033 9.42391 13.1534C9.47854 13.2737 9.49731 13.4072 9.47799 13.538C9.45867 13.6687 9.40207 13.7912 9.31498 13.8906L6.01773 17.6581C5.9532 17.7319 5.87362 17.7911 5.78433 17.8316C5.69504 17.8722 5.5981 17.8932 5.50004 17.8932C5.40197 17.8932 5.30504 17.8722 5.21575 17.8316C5.12646 17.7911 5.04688 17.7319 4.98235 17.6581V17.6588Z" fill="#A4A4A4"/>
<path d="M4.98235 5.34123L1.6851 9.10942C1.29598 9.55423 1.61223 10.25 2.20279 10.25H8.79729C8.92946 10.2501 9.05886 10.2121 9.16999 10.1406C9.28113 10.069 9.36928 9.96698 9.42391 9.84663C9.47854 9.72628 9.49731 9.59274 9.47799 9.46199C9.45867 9.33124 9.40207 9.20883 9.31498 9.10942L6.01773 5.34192C5.9532 5.26808 5.87362 5.20889 5.78433 5.16834C5.69504 5.12779 5.5981 5.10681 5.50004 5.10681C5.40197 5.10681 5.30504 5.12779 5.21575 5.16834C5.12646 5.20889 5.04688 5.26808 4.98235 5.34192V5.34123Z" fill="#A4A4A4"/>
</svg>
