<svg width="7" height="12" viewBox="0 0 7 12" fill="none" xmlns="http://www.w3.org/2000/svg">
<path fill-rule="evenodd" clip-rule="evenodd" d="M0 11.0002C4.22243e-05 11.198 0.0587139 11.3913 0.168598 11.5557C0.278482 11.7201 0.434646 11.8482 0.617346 11.9239C0.800046 11.9996 1.00108 12.0194 1.19503 11.9808C1.38898 11.9422 1.56715 11.847 1.707 11.7072L6.707 6.70721C6.89447 6.51969 6.99979 6.26538 6.99979 6.00021C6.99979 5.73505 6.89447 5.48074 6.707 5.29321L1.707 0.293212C1.56715 0.153402 1.38898 0.058197 1.19503 0.0196295C1.00108 -0.0189381 0.800046 0.000864983 0.617346 0.0765352C0.434646 0.152205 0.278482 0.280345 0.168598 0.444755C0.0587139 0.609164 4.22243e-05 0.802463 0 1.00021L0 11.0002Z" fill="black"/>
</svg>
