<?xml version="1.0" encoding="UTF-8"?>
<svg width="15" id="Layer_1" xmlns="http://www.w3.org/2000/svg" version="1.1" viewBox="0 0 14 14">
  <!-- Generator: Adobe Illustrator 29.0.0, SVG Export Plug-In . SVG Version: 2.1.0 Build 186)  -->
  <defs>
    <style>
      .st0 {
        fill: #bf2025;
      }
    </style>
  </defs>
  <path class="st0" d="M7.85,7.09l3.79-4.78c.23-.29.18-.71-.11-.94-.29-.23-.71-.18-.94.11l-3.6,4.54L3.4,1.47c-.23-.29-.65-.34-.94-.11-.29.23-.34.65-.11.94l3.79,4.78-3.79,4.78c-.23.29-.18.71.11.94.12.1.27.14.42.14.2,0,.39-.09.53-.25l3.6-4.54,3.6,4.54c.13.17.33.25.53.25.15,0,.29-.05.42-.14.29-.23.34-.65.11-.94l-3.79-4.78Z"/>
</svg>