<?xml version="1.0" encoding="UTF-8"?>
<svg width="15" id="Layer_1" xmlns="http://www.w3.org/2000/svg" version="1.1" viewBox="0 0 14 14">
  <!-- Generator: Adobe Illustrator 29.0.0, SVG Export Plug-In . SVG Version: 2.1.0 Build 186)  -->
  <defs>
    <style>
      .st0 {
        fill: none;
      }

      .st1 {
        fill: #db8927;
      }
    </style>
  </defs>
  <path class="st1" d="M12.26,12.9H1.67c-.96,0-1.56-1.04-1.08-1.87L5.89,1.89c.48-.83,1.68-.83,2.16,0l5.29,9.14c.48.83-.12,1.87-1.08,1.87Z"/>
  <path class="st0" d="M11.42,11.46c-1.14,1.14-2.72,1.84-4.45,1.84s-3.32-.7-4.46-1.84c-1.14-1.14-1.84-2.67-1.84-4.46s.7-3.31,1.84-4.45c1.14-1.14,2.67-1.85,4.46-1.85s3.31.71,4.45,1.85,1.84,2.72,1.84,4.45c0,.93-.16,1.76-.49,2.47-.33.78-.79,1.44-1.35,1.99Z"/>
</svg>