<svg width="24" height="24" viewBox="0 0 24 24" fill="none" xmlns="http://www.w3.org/2000/svg">
<path d="M0 12C0 5.37258 5.37258 0 12 0C18.6274 0 24 5.37258 24 12C24 18.6274 18.6274 24 12 24C5.37258 24 0 18.6274 0 12Z" fill="#DEDFE0"/>
<path d="M12 6.66669C12.7072 6.66669 13.3855 6.94764 13.8856 7.44774C14.3857 7.94783 14.6667 8.62611 14.6667 9.33335C14.6667 10.0406 14.3857 10.7189 13.8856 11.219C13.3855 11.7191 12.7072 12 12 12C11.2927 12 10.6145 11.7191 10.1144 11.219C9.61427 10.7189 9.33332 10.0406 9.33332 9.33335C9.33332 8.62611 9.61427 7.94783 10.1144 7.44774C10.6145 6.94764 11.2927 6.66669 12 6.66669ZM12 13.3334C14.9467 13.3334 17.3333 14.5267 17.3333 16V17.3334H6.66666V16C6.66666 14.5267 9.05332 13.3334 12 13.3334Z" fill="#FCFCFC"/>
</svg>
