<svg width="22" height="22" viewBox="0 0 22 22" fill="none" xmlns="http://www.w3.org/2000/svg">
<path d="M11.3814 0.115465C11.1505 -0.0384885 10.8496 -0.0384885 10.6187 0.115465L0.306197 6.99047C0.0541202 7.15852 -0.0582399 7.47177 0.0295527 7.76173C0.117345 8.05169 0.384595 8.25 0.687553 8.25H3.26568V17.875H2.06255C1.68286 17.875 1.37505 18.1828 1.37505 18.5625C1.37505 18.9422 1.68286 19.25 2.06255 19.25H19.9376C20.3172 19.25 20.6251 18.9422 20.6251 18.5625C20.6251 18.1828 20.3172 17.875 19.9376 17.875H18.7344V8.25H21.3126C21.6155 8.25 21.8828 8.05169 21.9706 7.76173C22.0583 7.47177 21.946 7.15852 21.6939 6.99047L11.3814 0.115465ZM17.0157 8.25V17.875H15.2969V8.25H17.0157ZM13.5782 8.25V17.875H11.8594V8.25H13.5782ZM10.1407 8.25V17.875H8.42193V8.25H10.1407ZM6.70318 8.25V17.875H4.98443V8.25H6.70318ZM11 5.5C10.2406 5.5 9.625 4.88439 9.625 4.125C9.625 3.36561 10.2406 2.75 11 2.75C11.7594 2.75 12.375 3.36561 12.375 4.125C12.375 4.88439 11.7594 5.5 11 5.5Z" fill="#0054a6"/>
<path d="M0.687553 20.625C0.307858 20.625 5.34532e-05 20.9328 5.34532e-05 21.3125C5.34532e-05 21.6922 0.307858 22 0.687553 22H21.3126C21.6922 22 22.0001 21.6922 22.0001 21.3125C22.0001 20.9328 21.6922 20.625 21.3126 20.625H0.687553Z" fill="#0054a6"/>
</svg>
