<svg width="15" height="17" viewBox="0 0 15 17" fill="none" xmlns="http://www.w3.org/2000/svg">
<path d="M7.50195 16.5011C8.60652 16.5011 9.50195 15.6057 9.50195 14.5011H5.50195C5.50195 15.6057 6.39738 16.5011 7.50195 16.5011Z" fill="#333843"/>
<path d="M8.49711 1.60013C8.50031 1.56755 8.50195 1.53452 8.50195 1.5011C8.50195 0.948814 8.05424 0.501099 7.50195 0.501099C6.94967 0.501099 6.50195 0.948814 6.50195 1.5011C6.50195 1.53452 6.50359 1.56756 6.5068 1.60014C4.22215 2.06155 2.50198 4.08044 2.50198 6.5011C2.50198 7.5987 2.00195 12.5011 0.501953 13.5011H14.502C13.002 12.5011 12.502 7.5987 12.502 6.5011C12.502 4.08042 10.7818 2.06152 8.49711 1.60013Z" fill="#333843"/>
</svg>
