<svg width="14" height="14" viewBox="0 0 14 14" fill="none" xmlns="http://www.w3.org/2000/svg">
<g clip-path="url(#clip0_85_14145)">
<rect width="14" height="14" fill="white" fill-opacity="0.01"/>
<path d="M3.5 0.4375C3.5 0.195875 3.30412 0 3.0625 0C2.82088 0 2.625 0.195875 2.625 0.4375V0.875H1.75C0.783502 0.875 0 1.6585 0 2.625V3.5H14V2.625C14 1.6585 13.2165 0.875 12.25 0.875H11.375V0.4375C11.375 0.195875 11.1791 0 10.9375 0C10.6959 0 10.5 0.195875 10.5 0.4375V0.875H3.5V0.4375Z" fill="#4B505F"/>
<path d="M14 12.25V4.375H0V12.25C0 13.2165 0.783502 14 1.75 14H12.25C13.2165 14 14 13.2165 14 12.25ZM9.49686 7.74686L6.87186 10.3719C6.78981 10.4539 6.67853 10.5 6.5625 10.5C6.44647 10.5 6.33519 10.4539 6.25314 10.3719L4.94064 9.05936C4.76979 8.8885 4.76979 8.6115 4.94064 8.44064C5.1115 8.26979 5.38851 8.26979 5.55936 8.44064L6.5625 9.44378L8.87814 7.12814C9.049 6.95729 9.326 6.95729 9.49686 7.12814C9.66771 7.299 9.66771 7.57601 9.49686 7.74686Z" fill="#4B505F"/>
</g>
<defs>
<clipPath id="clip0_85_14145">
<rect width="14" height="14" fill="white"/>
</clipPath>
</defs>
</svg>
