<svg width="60" height="62" viewBox="0 0 60 62" fill="none" xmlns="http://www.w3.org/2000/svg">
<path d="M48.3293 37.5656H44.4126V28.8897C44.4126 26.8932 43.2279 25.8192 41.4074 25.8192C39.373 25.8192 38.0687 27.0406 38.0687 29.5154V37.5656H34.1506V16.3455H38.0687V24.327C39.0075 22.9268 40.5278 22.241 42.5914 22.241C44.2618 22.241 45.6271 22.7774 46.6889 23.8807C47.7825 24.984 48.3293 26.4743 48.3293 28.4128V37.5656ZM20.171 33.9441C23.06 33.9441 25.5312 32.2464 26.2757 29.6228H30.5477C29.5037 34.6725 25.5013 37.9812 20.171 37.9812C13.9759 37.9812 9.06469 33.4445 9.06469 27.1293C9.06469 20.8155 13.9759 16.2781 20.171 16.2781C25.555 16.2781 29.5845 19.6541 30.579 24.7919H26.3178C25.6705 21.9995 23.1136 20.2585 20.171 20.2585C16.0056 20.2585 13.2348 23.1763 13.2348 27.1293C13.2348 31.0857 16.3847 33.9441 20.171 33.9441ZM30.0512 0.387814C13.7715 0.387814 0.575684 12.3731 0.575684 27.16C0.575684 38.0806 5.23421 43.2944 11.6127 48.0466L11.6426 48.06V60.875C11.6426 61.4814 12.3456 61.8263 12.8395 61.4654L24.0164 53.3131L24.2576 53.4152C26.1303 53.7541 28.0677 53.9335 30.0512 53.9335C46.3302 53.9335 59.5253 41.9463 59.5253 27.16C59.5253 12.3731 46.3302 0.387814 30.0512 0.387814Z" fill="#333843"/>
</svg>
