<svg width="20" height="20" viewBox="0 0 20 20" fill="none" xmlns="http://www.w3.org/2000/svg">
<path d="M1.6665 10C1.6665 6.07163 1.6665 4.10745 2.88689 2.88706C4.10728 1.66667 6.07147 1.66667 9.99984 1.66667C13.9282 1.66667 15.8924 1.66667 17.1128 2.88706C18.3332 4.10745 18.3332 6.07163 18.3332 10C18.3332 13.9284 18.3332 15.8926 17.1128 17.1129C15.8924 18.3333 13.9282 18.3333 9.99984 18.3333C6.07147 18.3333 4.10728 18.3333 2.88689 17.1129C1.6665 15.8926 1.6665 13.9284 1.6665 10Z" stroke="#1C274C" stroke-width="1.25"/>
<path d="M5.8335 15V7.5" stroke="#1C274C" stroke-width="1.25" stroke-linecap="round"/>
<path d="M10 15V5" stroke="#1C274C" stroke-width="1.25" stroke-linecap="round"/>
<path d="M14.1665 15V10.8333" stroke="#1C274C" stroke-width="1.25" stroke-linecap="round"/>
</svg>
