<svg width="12" height="12" viewBox="0 0 12 12" fill="none" xmlns="http://www.w3.org/2000/svg">
<g clip-path="url(#clip0_85_8755)">
<path d="M6.00039 0.337891C2.86914 0.337891 0.337891 2.86914 0.337891 6.00039C0.337891 9.13164 2.86914 11.6816 6.00039 11.6816C9.13164 11.6816 11.6816 9.13164 11.6816 6.00039C11.6816 2.86914 9.13164 0.337891 6.00039 0.337891ZM6.00039 10.8379C3.33789 10.8379 1.18164 8.66289 1.18164 6.00039C1.18164 3.33789 3.33789 1.18164 6.00039 1.18164C8.66289 1.18164 10.8379 3.35664 10.8379 6.01914C10.8379 8.66289 8.66289 10.8379 6.00039 10.8379Z" fill="white"/>
<path d="M7.6128 4.25674L5.38155 6.43174L4.36905 5.43799C4.2003 5.26924 3.9378 5.28799 3.76905 5.43799C3.6003 5.60674 3.61905 5.86924 3.76905 6.03799L4.96905 7.20049C5.08155 7.31299 5.23155 7.36924 5.38155 7.36924C5.53155 7.36924 5.68155 7.31299 5.79405 7.20049L8.2128 4.87549C8.38155 4.70674 8.38155 4.44424 8.2128 4.27549C8.04405 4.10674 7.78155 4.10674 7.6128 4.25674Z" fill="white"/>
</g>
<defs>
<clipPath id="clip0_85_8755">
<rect width="12" height="12" fill="white"/>
</clipPath>
</defs>
</svg>
