<?xml version="1.0" encoding="utf-8"?>
<!-- Svg Vector Icons : http://www.onlinewebfonts.com/icon -->
<!DOCTYPE svg PUBLIC "-//W3C//DTD SVG 1.1//EN" "http://www.w3.org/Graphics/SVG/1.1/DTD/svg11.dtd">
<svg version="1.1" xmlns="http://www.w3.org/2000/svg" xmlns:xlink="http://www.w3.org/1999/xlink" x="0px" y="0px" viewBox="0 0 256 256" enable-background="new 0 0 256 256" xml:space="preserve">
<metadata> Svg Vector Icons : http://www.onlinewebfonts.com/icon </metadata>
<g><g><g><path fill="#000000" d="M21.9,41c-0.6,0.2-1.4,1-1.8,1.7c-0.8,1.2-0.8,4.6-1,70.4L19,182.2l-3.3,0.2c-2.8,0.2-3.5,0.5-4.5,1.5l-1.2,1.2V199v13.9l1.3,1.2l1.2,1.3H128h115.5l1.2-1.3l1.3-1.2V199v-13.9l-1.2-1.2c-1.1-1-1.8-1.2-4.5-1.5l-3.3-0.2l-0.1-69.2l-0.1-69.2l-1-1.3c-0.5-0.7-1.5-1.4-2.1-1.6C232.1,40.5,23.1,40.5,21.9,41z M227.3,116.1v66.3h-56.8c-31.2,0-56.8-0.1-56.8-0.2c0-0.1,1.1-2.3,2.4-4.8l2.4-4.5l-2.5-4.6l-2.5-4.6l-25.8-0.1L62,163.4v9.5v9.5H45.3H28.7v-66.3V49.8H128h99.3V116.1z M237,199v6.9H128H19V199V192h109h109V199z"/><path fill="#000000" d="M192.2,74.1c-0.4,0.1-14.9,10.4-32.2,22.8c-18.9,13.5-31.8,22.4-32.1,22.3c-0.3-0.2-5.5-4.4-11.4-9.4c-6-5-11.9-9.8-13.1-10.8c-4-3-2.9-3.6-24.9,12.9c-10.7,8-19.9,15.1-20.4,15.6c-1.2,1.4-0.8,5.1,0.6,6.2c1.7,1.2,3.2,1.5,4.8,0.8c0.8-0.4,9.2-6.5,18.7-13.6c17.1-12.8,17.3-13,18.2-12.1c1.4,1.2,22.9,19.1,24.5,20.3c0.8,0.6,2,1,3.1,1c1.6,0,5.1-2.4,35.1-23.8C181.6,93.2,197,82,197.6,81.4c2.4-2.7,0.3-7.6-3.2-7.5C193.6,73.9,192.6,74,192.2,74.1z"/></g></g></g>
</svg>