<svg width="14" height="14" viewBox="0 0 14 14" fill="none" xmlns="http://www.w3.org/2000/svg">
<path d="M0.875 2.1875C0.875 1.46263 1.46263 0.875 2.1875 0.875L4.8125 0.875C5.53737 0.875 6.125 1.46263 6.125 2.1875V4.8125C6.125 5.53737 5.53737 6.125 4.8125 6.125H2.1875C1.46263 6.125 0.875 5.53737 0.875 4.8125L0.875 2.1875ZM7.875 2.1875C7.875 1.46263 8.46263 0.875 9.1875 0.875L11.8125 0.875C12.5374 0.875 13.125 1.46263 13.125 2.1875V4.8125C13.125 5.53737 12.5374 6.125 11.8125 6.125H9.1875C8.46263 6.125 7.875 5.53737 7.875 4.8125V2.1875ZM0.875 9.1875C0.875 8.46263 1.46263 7.875 2.1875 7.875H4.8125C5.53737 7.875 6.125 8.46263 6.125 9.1875V11.8125C6.125 12.5374 5.53737 13.125 4.8125 13.125H2.1875C1.46263 13.125 0.875 12.5374 0.875 11.8125L0.875 9.1875ZM7.875 9.1875C7.875 8.46263 8.46263 7.875 9.1875 7.875H11.8125C12.5374 7.875 13.125 8.46263 13.125 9.1875V11.8125C13.125 12.5374 12.5374 13.125 11.8125 13.125H9.1875C8.46263 13.125 7.875 12.5374 7.875 11.8125V9.1875Z" fill="white"/>
</svg>
