<svg width="17" height="17" viewBox="0 0 17 17" fill="none" xmlns="http://www.w3.org/2000/svg">
<g clip-path="url(#clip0_85_8328)">
<path d="M1 10.4381C1.27614 10.4381 1.5 10.662 1.5 10.9381V13.4381C1.5 13.9904 1.94772 14.4381 2.5 14.4381H14.5C15.0523 14.4381 15.5 13.9904 15.5 13.4381V10.9381C15.5 10.662 15.7239 10.4381 16 10.4381C16.2761 10.4381 16.5 10.662 16.5 10.9381V13.4381C16.5 14.5427 15.6046 15.4381 14.5 15.4381H2.5C1.39543 15.4381 0.5 14.5427 0.5 13.4381V10.9381C0.5 10.662 0.723858 10.4381 1 10.4381Z" fill="white"/>
<path d="M8.14645 12.3916C8.34171 12.5869 8.65829 12.5869 8.85355 12.3916L11.8536 9.39164C12.0488 9.19638 12.0488 8.87979 11.8536 8.68453C11.6583 8.48927 11.3417 8.48927 11.1464 8.68453L9 10.831V2.03809C9 1.76194 8.77614 1.53809 8.5 1.53809C8.22386 1.53809 8 1.76194 8 2.03809V10.831L5.85355 8.68453C5.65829 8.48927 5.34171 8.48927 5.14645 8.68453C4.95118 8.87979 4.95118 9.19638 5.14645 9.39164L8.14645 12.3916Z" fill="white"/>
</g>
<defs>
<clipPath id="clip0_85_8328">
<rect width="16" height="16" fill="white" transform="translate(0.5 0.539062)"/>
</clipPath>
</defs>
</svg>
