<svg width="60" height="60" viewBox="0 0 60 60" fill="none" xmlns="http://www.w3.org/2000/svg">
<path d="M8.07964 8.29297C4.01002 8.29297 0.710938 11.5823 0.710938 15.6399V45.0277L0.711033 45.0654C0.731422 49.1056 4.02265 52.3746 8.07964 52.3746H28.3436C29.361 52.3746 30.1857 51.5523 30.1857 50.5379C30.1857 49.5235 29.361 48.7011 28.3436 48.7011H8.07964C6.37434 48.7011 4.93963 47.546 4.51969 45.9777L25.3009 33.227L30.1857 36.1492L55.9762 20.7207V32.1705C55.9762 33.1849 56.801 34.0073 57.8184 34.0073C58.8358 34.0073 59.6605 33.1849 59.6605 32.1705V15.6399C59.6605 11.5823 56.3615 8.29297 52.2918 8.29297H8.07964ZM21.7415 31.0977L4.39529 41.7407V20.7207L21.7415 31.0977ZM4.39529 16.4367V15.6399C4.39529 13.6111 6.04483 11.9664 8.07964 11.9664H52.2918C54.3267 11.9664 55.9762 13.6111 55.9762 15.6399V16.4367L30.1857 31.8653L4.39529 16.4367Z" fill="#0054a6"/>
<path d="M53.2008 53.3612C56.922 53.3612 59.0484 50.2132 59.0484 45.9248V45.1539C59.0484 39.2593 54.6507 34.0073 46.8378 34.0073H46.7089C39.1055 34.0073 33.8701 39.0024 33.8701 46.6155V47.4025C33.8701 55.385 39.1699 59.7215 46.2418 59.7215H46.4029C48.5937 59.7215 50.1563 59.4485 50.9617 59.0791V56.3968C50.0596 56.7984 48.4809 57.0554 46.6123 57.0554H46.4512C41.538 57.0554 36.9791 54.1643 36.9791 47.3061V46.7279C36.9791 40.6406 40.8775 36.7216 46.7089 36.7216H46.8539C52.5082 36.7216 56.0038 40.5764 56.0038 45.2663V45.7C56.0038 49.2816 54.8117 50.8075 53.6519 50.8075C52.7981 50.8075 52.1377 50.2614 52.1377 49.2656V41.2188H48.8031V43.3068H48.6903C48.3843 42.2146 47.3372 40.994 45.1786 40.994C42.3112 40.994 40.5392 43.0338 40.5392 46.1336V48.077C40.5392 51.3536 42.3434 53.3452 45.1786 53.3452C46.9184 53.3452 48.4809 52.51 48.9159 50.9841H49.077C49.5119 52.526 51.3483 53.3612 53.2008 53.3612ZM44.1637 47.5309V46.6958C44.1637 44.6881 45.0014 43.7886 46.274 43.7886C47.3694 43.7886 48.3843 44.4953 48.3843 46.3906V47.7397C48.3843 49.8438 47.4499 50.4702 46.3062 50.4702C45.0014 50.4702 44.1637 49.6832 44.1637 47.5309Z" fill="#0054a6"/>
</svg>
