<svg width="14" height="14" viewBox="0 0 14 14" fill="none" xmlns="http://www.w3.org/2000/svg">
<g clip-path="url(#clip0_85_1702)">
<rect width="14" height="14" fill="white" fill-opacity="0.01"/>
<g clip-path="url(#clip1_85_1702)">
<path d="M13.9995 6.99927C13.9995 6.99927 11.3745 2.18677 6.99951 2.18677C2.62451 2.18677 -0.000488281 6.99927 -0.000488281 6.99927C-0.000488281 6.99927 2.62451 11.8118 6.99951 11.8118C11.3745 11.8118 13.9995 6.99927 13.9995 6.99927ZM1.02562 6.99927C1.07543 6.92333 1.13224 6.83894 1.19588 6.74763C1.4889 6.32721 1.92128 5.76806 2.47761 5.21174C3.60541 4.08393 5.14505 3.06177 6.99951 3.06177C8.85397 3.06177 10.3936 4.08393 11.5214 5.21174C12.0777 5.76806 12.5101 6.32721 12.8031 6.74763C12.8668 6.83894 12.9236 6.92333 12.9734 6.99927C12.9236 7.07521 12.8668 7.15959 12.8031 7.2509C12.5101 7.67133 12.0777 8.23048 11.5214 8.7868C10.3936 9.91461 8.85397 10.9368 6.99951 10.9368C5.14505 10.9368 3.60541 9.91461 2.47761 8.7868C1.92128 8.23048 1.4889 7.67133 1.19588 7.2509C1.13224 7.15959 1.07543 7.07521 1.02562 6.99927Z" fill="#0D6EFD"/>
<path d="M6.99951 4.81177C5.79139 4.81177 4.81201 5.79114 4.81201 6.99927C4.81201 8.20739 5.79139 9.18677 6.99951 9.18677C8.20763 9.18677 9.18701 8.20739 9.18701 6.99927C9.18701 5.79114 8.20763 4.81177 6.99951 4.81177ZM3.93701 6.99927C3.93701 5.3079 5.30814 3.93677 6.99951 3.93677C8.69088 3.93677 10.062 5.3079 10.062 6.99927C10.062 8.69064 8.69088 10.0618 6.99951 10.0618C5.30814 10.0618 3.93701 8.69064 3.93701 6.99927Z" fill="#0D6EFD"/>
</g>
</g>
<defs>
<clipPath id="clip0_85_1702">
<rect width="14" height="14" fill="white"/>
</clipPath>
<clipPath id="clip1_85_1702">
<rect width="14" height="14" fill="white"/>
</clipPath>
</defs>
</svg>
