<svg width="14" height="14" viewBox="0 0 14 14" fill="none" xmlns="http://www.w3.org/2000/svg">
<g clip-path="url(#clip0_85_127)">
<path d="M11.6885 9.83193C13.1781 8.5049 13.9995 6.99906 13.9995 6.99906C13.9995 6.99906 11.3745 2.18656 6.99951 2.18656C6.11105 2.18656 5.29476 2.38502 4.55797 2.70135L5.23249 3.37586C5.78312 3.17808 6.37337 3.06156 6.99951 3.06156C8.85397 3.06156 10.3936 4.08372 11.5214 5.21152C12.0777 5.76785 12.5101 6.327 12.8031 6.74742C12.8668 6.83873 12.9236 6.92312 12.9734 6.99906C12.9236 7.075 12.8668 7.15938 12.8031 7.25069C12.5101 7.67112 12.0777 8.23026 11.5214 8.78659C11.3772 8.93081 11.2262 9.0733 11.0688 9.21214L11.6885 9.83193Z" fill="#6C757D"/>
<path d="M9.88481 8.02818C9.99954 7.70655 10.062 7.3601 10.062 6.99906C10.062 5.30768 8.69088 3.93656 6.99951 3.93656C6.63847 3.93656 6.29202 3.99903 5.97039 4.11376L6.68992 4.8333C6.79106 4.81897 6.89442 4.81156 6.99951 4.81156C8.20763 4.81156 9.18701 5.79093 9.18701 6.99906C9.18701 7.10415 9.1796 7.20751 9.16527 7.30865L9.88481 8.02818Z" fill="#6C757D"/>
<path d="M7.30913 9.16481L8.02866 9.88434C7.70702 9.99908 7.36056 10.0616 6.99951 10.0616C5.30814 10.0616 3.93701 8.69043 3.93701 6.99906C3.93701 6.63801 3.99949 6.29155 4.11422 5.96991L4.83375 6.68944C4.81942 6.79058 4.81201 6.89396 4.81201 6.99906C4.81201 8.20718 5.79139 9.18656 6.99951 9.18656C7.10461 9.18656 7.20798 9.17914 7.30913 9.16481Z" fill="#6C757D"/>
<path d="M2.93027 4.78596C2.77278 4.92481 2.62183 5.0673 2.47761 5.21152C1.92128 5.76785 1.4889 6.327 1.19588 6.74742C1.13224 6.83873 1.07543 6.92312 1.02562 6.99906C1.07543 7.075 1.13224 7.15938 1.19588 7.25069C1.4889 7.67112 1.92128 8.23026 2.47761 8.78659C3.60541 9.9144 5.14505 10.9366 6.99951 10.9366C7.62566 10.9366 8.21592 10.82 8.76656 10.6222L9.44107 11.2968C8.70427 11.6131 7.88798 11.8116 6.99951 11.8116C2.62451 11.8116 -0.000488281 6.99906 -0.000488281 6.99906C-0.000488281 6.99906 0.820889 5.4932 2.31049 4.16618L2.93027 4.78596Z" fill="#6C757D"/>
<path d="M11.9402 12.5584L1.44015 2.05842L2.05887 1.4397L12.5589 11.9397L11.9402 12.5584Z" fill="#6C757D"/>
</g>
<defs>
<clipPath id="clip0_85_127">
<rect width="14" height="14" fill="white"/>
</clipPath>
</defs>
</svg>
