<svg width="20" height="21" viewBox="0 0 20 21" fill="none" xmlns="http://www.w3.org/2000/svg">
<path d="M6.375 8.85001C6.02982 8.85001 5.75 9.12983 5.75 9.47501C5.75 9.82018 6.02982 10.1 6.375 10.1H12.625C12.9702 10.1 13.25 9.82018 13.25 9.47501C13.25 9.12983 12.9702 8.85001 12.625 8.85001H6.375Z" fill="#0054a6"/>
<path d="M5.75 11.975C5.75 11.6298 6.02982 11.35 6.375 11.35H12.625C12.9702 11.35 13.25 11.6298 13.25 11.975C13.25 12.3202 12.9702 12.6 12.625 12.6H6.375C6.02982 12.6 5.75 12.3202 5.75 11.975Z" fill="#0054a6"/>
<path d="M5.75 14.475C5.75 14.1298 6.02982 13.85 6.375 13.85H8.875C9.22018 13.85 9.5 14.1298 9.5 14.475C9.5 14.8202 9.22018 15.1 8.875 15.1H6.375C6.02982 15.1 5.75 14.8202 5.75 14.475Z" fill="#0054a6"/>
<path d="M11.375 0.100006H4.5C3.11929 0.100006 2 1.21929 2 2.60001V17.6C2 18.9807 3.11929 20.1 4.5 20.1H14.5C15.8807 20.1 17 18.9807 17 17.6V5.72501L11.375 0.100006ZM11.375 1.35001V3.85001C11.375 4.88554 12.2145 5.72501 13.25 5.72501H15.75V17.6C15.75 18.2904 15.1904 18.85 14.5 18.85H4.5C3.80964 18.85 3.25 18.2904 3.25 17.6V2.60001C3.25 1.90965 3.80964 1.35001 4.5 1.35001H11.375Z" fill="#0054a6"/>
</svg>
