<svg width="20" height="22" viewBox="0 0 20 22" fill="none" xmlns="http://www.w3.org/2000/svg">
<path d="M4.33301 21L4.33301 17.6667" stroke="#666D80" stroke-width="1.5" stroke-linecap="round" stroke-linejoin="round"/>
<path d="M15.4443 21L15.4443 14.3333" stroke="#666D80" stroke-width="1.5" stroke-linecap="round" stroke-linejoin="round"/>
<path d="M15.4443 4.33337L15.4443 1.00004" stroke="#666D80" stroke-width="1.5" stroke-linecap="round" stroke-linejoin="round"/>
<path d="M4.33301 7.66663L4.33301 0.99996" stroke="#666D80" stroke-width="1.5" stroke-linecap="round" stroke-linejoin="round"/>
<path d="M4.33333 17.6667C3.29791 17.6667 2.78019 17.6667 2.37181 17.4975C1.82731 17.272 1.3947 16.8394 1.16916 16.2949C1 15.8865 1 15.3688 1 14.3333C1 13.2979 1 12.7802 1.16916 12.3718C1.3947 11.8273 1.82731 11.3947 2.37181 11.1692C2.78019 11 3.29791 11 4.33333 11C5.36876 11 5.88647 11 6.29485 11.1692C6.83936 11.3947 7.27197 11.8273 7.49751 12.3718C7.66667 12.7802 7.66667 13.2979 7.66667 14.3333C7.66667 15.3688 7.66667 15.8865 7.49751 16.2949C7.27197 16.8394 6.83936 17.272 6.29485 17.4975C5.88647 17.6667 5.36876 17.6667 4.33333 17.6667Z" stroke="#666D80" stroke-width="1.5"/>
<path d="M15.4447 11C14.4092 11 13.8915 11 13.4831 10.8309C12.9386 10.6053 12.506 10.1727 12.2805 9.62823C12.1113 9.21985 12.1113 8.70213 12.1113 7.66671C12.1113 6.63128 12.1113 6.11357 12.2805 5.70519C12.506 5.16068 12.9386 4.72807 13.4831 4.50253C13.8915 4.33337 14.4092 4.33337 15.4447 4.33337C16.4801 4.33337 16.9978 4.33337 17.4062 4.50253C17.9507 4.72807 18.3833 5.16068 18.6088 5.70519C18.778 6.11357 18.778 6.63128 18.778 7.66671C18.778 8.70213 18.778 9.21985 18.6088 9.62823C18.3833 10.1727 17.9507 10.6053 17.4062 10.8309C16.9978 11 16.4801 11 15.4447 11Z" stroke="#666D80" stroke-width="1.5"/>
</svg>
