<svg width="22" height="23" viewBox="0 0 22 23" fill="none" xmlns="http://www.w3.org/2000/svg">
<path d="M11 7.45892C8.53524 7.45892 6.53712 9.45704 6.53712 11.9218C6.53712 14.3866 8.53524 16.3848 11 16.3848C13.4649 16.3848 15.463 14.3866 15.463 11.9218C15.463 9.45704 13.4649 7.45892 11 7.45892ZM7.91212 11.9218C7.91212 10.2164 9.29463 8.83392 11 8.83392C12.7055 8.83392 14.088 10.2164 14.088 11.9218C14.088 13.6273 12.7055 15.0098 11 15.0098C9.29463 15.0098 7.91212 13.6273 7.91212 11.9218Z" fill="#4B505F"/>
<path d="M13.4701 2.76902C12.7442 0.30616 9.25577 0.306162 8.52985 2.76902L8.4008 3.20684C8.18463 3.94026 7.34691 4.28726 6.67545 3.92151L6.27461 3.70317C4.01981 2.47497 1.5531 4.94169 2.7813 7.19649L2.99963 7.59732C3.36538 8.26879 3.01839 9.10651 2.28496 9.32268L1.84714 9.45173C-0.615715 10.1776 -0.615713 13.6661 1.84714 14.392L2.28496 14.5211C3.01839 14.7372 3.36538 15.575 2.99963 16.2464L2.7813 16.6473C1.5531 18.9021 4.0198 21.3688 6.27461 20.1406L6.67545 19.9222C7.34692 19.5565 8.18463 19.9035 8.4008 20.6369L8.52985 21.0747C9.25577 23.5376 12.7442 23.5376 13.4701 21.0747L13.5992 20.6369C13.8154 19.9035 14.6531 19.5565 15.3246 19.9222L15.7254 20.1406C17.9802 21.3688 20.4469 18.9021 19.2187 16.6473L19.0004 16.2464C18.6346 15.575 18.9816 14.7372 19.715 14.5211L20.1529 14.392C22.6157 13.6661 22.6157 10.1776 20.1529 9.45173L19.715 9.32268C18.9816 9.10651 18.6346 8.26879 19.0004 7.59732L19.2187 7.19649C20.4469 4.94168 17.9802 2.47498 15.7254 3.70317L15.3246 3.92151C14.6531 4.28726 13.8154 3.94027 13.5992 3.20684L13.4701 2.76902ZM9.84875 3.15776C10.1871 2.00991 11.8129 2.00991 12.1512 3.15776L12.2803 3.59558C12.7441 5.16924 14.5415 5.91376 15.9823 5.12899L16.3831 4.91066C17.434 4.33824 18.5836 5.48789 18.0112 6.53876L17.7929 6.9396C17.0081 8.38032 17.7526 10.1778 19.3263 10.6416L19.7641 10.7706C20.912 11.109 20.912 12.7348 19.7641 13.0731L19.3263 13.2022C17.7526 13.666 17.0081 15.4634 17.7929 16.9042L18.0112 17.305C18.5836 18.3559 17.434 19.5055 16.3831 18.9331L15.9823 18.7148C14.5416 17.93 12.7441 18.6745 12.2803 20.2482L12.1512 20.686C11.8129 21.8338 10.1871 21.8338 9.84875 20.686L9.71971 20.2482C9.25588 18.6745 7.45845 17.93 6.01772 18.7148L5.61689 18.9331C4.56601 19.5055 3.41637 18.3559 3.98879 17.305L4.20712 16.9042C4.99189 15.4634 4.24737 13.666 2.67371 13.2022L2.23589 13.0731C1.08804 12.7348 1.08804 11.109 2.23588 10.7706L2.67371 10.6416C4.24737 10.1778 4.99189 8.38033 4.20712 6.9396L3.98879 6.53877C3.41637 5.48789 4.56601 4.33824 5.61689 4.91066L6.01772 5.12899C7.45845 5.91376 9.25587 5.16924 9.71971 3.59558L9.84875 3.15776Z" fill="#4B505F"/>
</svg>
