<svg xmlns="http://www.w3.org/2000/svg" width="20" height="21" fill="none"><path fill="#0054a6" d="M12.19 7.841c.748.75 2.163.547 3.16-.452.998-.998 1.2-2.415.452-3.164-.748-.75-2.163-.547-3.16.452-.997.998-1.2 2.415-.451 3.164Z"/><path fill="#0054a6" d="M19.764 4.24c-.453 1.918-1.668 4.533-4.55 7.772l-.3 3.01A3.199 3.199 0 0 1 14 16.93l-2.978 2.983a.638.638 0 0 1-1.083-.543l.338-2.374c.05-.35-.017-.741-.165-1.195a11.79 11.79 0 0 0-.31-.82 39.803 39.803 0 0 1-.103-.254c-1.02-.246-1.973-.828-2.74-1.596-.767-.768-1.348-1.723-1.594-2.744l-.253-.103a11.717 11.717 0 0 0-.819-.31c-.453-.149-.843-.216-1.193-.166l-2.37.34a.638.638 0 0 1-.542-1.086L3.165 6.08a3.19 3.19 0 0 1 1.904-.917h.008l3-.298C11.256 2.039 13.86.828 15.78.36c1.113-.271 1.988-.29 2.6-.235.305.028.544.074.712.116.084.021.151.041.2.057.23.075.349.163.44.368v.001a2.8 2.8 0 0 1 .099.288c.046.166.099.402.133.704.068.606.063 1.472-.199 2.581Zm-6.035 9.343.05-.05-.134 1.352a1.919 1.919 0 0 1-.549 1.141l-1.624 1.626.068-.475c.09-.633-.042-1.242-.215-1.773a10.71 10.71 0 0 0-.205-.564c.922-.08 1.828-.474 2.61-1.257ZM6.507 6.35c-.782.782-1.175 1.69-1.255 2.613-.19-.074-.382-.146-.564-.205-.529-.173-1.138-.306-1.77-.216l-.474.068 1.624-1.626a1.92 1.92 0 0 1 1.139-.55l1.349-.133-.05.049Zm11.756-4.951c-.474-.043-1.208-.034-2.182.203-1.948.475-4.896 1.87-8.671 5.652-.775.776-.999 1.676-.858 2.564.133.844.603 1.702 1.309 2.409.705.707 1.562 1.177 2.405 1.311.887.141 1.786-.083 2.56-.859 3.849-3.854 5.24-6.805 5.696-8.734.228-.964.224-1.682.172-2.142a3.537 3.537 0 0 0-.057-.353 3.845 3.845 0 0 0-.374-.051Z"/><path fill="#0054a6" d="M8.761 15.274a9.54 9.54 0 0 1-2.254-1.69 9.461 9.461 0 0 1-1.764-2.407c-1.378 1.24-2.457 6.317-2.299 6.475.157.157 4.92-1.12 6.317-2.379Z"/></svg>