<svg width="44" height="59" viewBox="0 0 44 59" fill="none" xmlns="http://www.w3.org/2000/svg">
<path d="M36.9046 33.2504C35.0051 37.0992 32.4339 40.9366 29.7996 44.3802C27.1735 47.8129 24.5385 50.7847 22.5566 52.9005C22.2932 53.1816 22.0417 53.4473 21.8037 53.6965C21.5657 53.4473 21.3142 53.1816 21.0509 52.9005C19.0689 50.7847 16.4339 47.8129 13.8079 44.3802C11.1735 40.9366 8.60236 37.0992 6.70279 33.2504C4.78363 29.3619 3.67871 25.7182 3.67871 22.5938C3.67871 12.5836 11.7935 4.46875 21.8037 4.46875C31.8139 4.46875 39.9287 12.5836 39.9287 22.5938C39.9287 25.7182 38.8238 29.3619 36.9046 33.2504ZM21.8037 58.8438C21.8037 58.8438 43.5537 38.2309 43.5537 22.5938C43.5537 10.5816 33.8159 0.84375 21.8037 0.84375C9.79152 0.84375 0.0537109 10.5816 0.0537109 22.5938C0.0537109 38.2309 21.8037 58.8438 21.8037 58.8438Z" fill="#0054a6"/>
<path d="M21.8037 29.8438C17.7996 29.8438 14.5537 26.5978 14.5537 22.5938C14.5537 18.5897 17.7996 15.3438 21.8037 15.3438C25.8078 15.3438 29.0537 18.5897 29.0537 22.5938C29.0537 26.5978 25.8078 29.8438 21.8037 29.8438ZM21.8037 33.4688C27.8098 33.4688 32.6787 28.5998 32.6787 22.5938C32.6787 16.5877 27.8098 11.7188 21.8037 11.7188C15.7976 11.7188 10.9287 16.5877 10.9287 22.5938C10.9287 28.5998 15.7976 33.4688 21.8037 33.4688Z" fill="#0054a6"/>
</svg>
