<svg width="268" height="318" viewBox="0 0 268 318" fill="none" xmlns="http://www.w3.org/2000/svg">
<path d="M134 298.24C207.73 298.24 267.5 238.47 267.5 164.74C267.5 91.01 207.73 31.24 134 31.24C60.27 31.24 0.5 91.01 0.5 164.74C0.5 238.47 60.27 298.24 134 298.24Z" fill="#FAFBFC"/>
<g filter="url(#filter0_d_4232_12113)">
<path d="M210.541 107.78H57.4605C52.5452 107.78 48.5605 111.765 48.5605 116.68V303.58C48.5605 308.495 52.5452 312.48 57.4605 312.48H210.541C215.456 312.48 219.441 308.495 219.441 303.58V116.68C219.441 111.765 215.456 107.78 210.541 107.78Z" fill="white"/>
</g>
<path d="M116.2 134.58H69.9201C66.9709 134.58 64.5801 136.971 64.5801 139.92C64.5801 142.869 66.9709 145.26 69.9201 145.26H116.2C119.149 145.26 121.54 142.869 121.54 139.92C121.54 136.971 119.149 134.58 116.2 134.58Z" fill="#CBD5E1"/>
<path d="M148.24 157.72H69.9201C66.9709 157.72 64.5801 160.111 64.5801 163.06C64.5801 166.009 66.9709 168.4 69.9201 168.4H148.24C151.189 168.4 153.58 166.009 153.58 163.06C153.58 160.111 151.189 157.72 148.24 157.72Z" fill="#E7ECF1"/>
<path d="M116.2 182.58H69.9201C66.9709 182.58 64.5801 184.971 64.5801 187.92C64.5801 190.869 66.9709 193.26 69.9201 193.26H116.2C119.149 193.26 121.54 190.869 121.54 187.92C121.54 184.971 119.149 182.58 116.2 182.58Z" fill="#CBD5E1"/>
<path d="M148.24 205.72H69.9201C66.9709 205.72 64.5801 208.111 64.5801 211.06C64.5801 214.009 66.9709 216.4 69.9201 216.4H148.24C151.189 216.4 153.58 214.009 153.58 211.06C153.58 208.111 151.189 205.72 148.24 205.72Z" fill="#E7ECF1"/>
<path d="M116.2 230.58H69.9201C66.9709 230.58 64.5801 232.971 64.5801 235.92C64.5801 238.869 66.9709 241.26 69.9201 241.26H116.2C119.149 241.26 121.54 238.869 121.54 235.92C121.54 232.971 119.149 230.58 116.2 230.58Z" fill="#CBD5E1"/>
<path d="M148.24 253.72H69.9201C66.9709 253.72 64.5801 256.111 64.5801 259.06C64.5801 262.009 66.9709 264.4 69.9201 264.4H148.24C151.189 264.4 153.58 262.009 153.58 259.06C153.58 256.111 151.189 253.72 148.24 253.72Z" fill="#E7ECF1"/>
<g filter="url(#filter1_d_4232_12113)">
<path d="M210.541 17H57.4605C52.5452 17 48.5605 20.9847 48.5605 25.9V79.3C48.5605 84.2153 52.5452 88.2 57.4605 88.2H210.541C215.456 88.2 219.441 84.2153 219.441 79.3V25.9C219.441 20.9847 215.456 17 210.541 17Z" fill="#B9C2CD"/>
</g>
<path d="M116.2 36.58H69.9201C66.9709 36.58 64.5801 38.9708 64.5801 41.92C64.5801 44.8692 66.9709 47.26 69.9201 47.26H116.2C119.149 47.26 121.54 44.8692 121.54 41.92C121.54 38.9708 119.149 36.58 116.2 36.58Z" fill="#CBD5E1"/>
<path d="M148.24 59.7199H69.9201C66.9709 59.7199 64.5801 62.1107 64.5801 65.0599C64.5801 68.0091 66.9709 70.3999 69.9201 70.3999H148.24C151.189 70.3999 153.58 68.0091 153.58 65.0599C153.58 62.1107 151.189 59.7199 148.24 59.7199Z" fill="#FEFFFF"/>
<defs>
<filter id="filter0_d_4232_12113" x="37.8805" y="91.7599" width="192.241" height="226.06" filterUnits="userSpaceOnUse" color-interpolation-filters="sRGB">
<feFlood flood-opacity="0" result="BackgroundImageFix"/>
<feColorMatrix in="SourceAlpha" type="matrix" values="0 0 0 0 0 0 0 0 0 0 0 0 0 0 0 0 0 0 127 0" result="hardAlpha"/>
<feOffset dy="-5.34"/>
<feGaussianBlur stdDeviation="5.34"/>
<feColorMatrix type="matrix" values="0 0 0 0 0.788235 0 0 0 0 0.803922 0 0 0 0 0.85098 0 0 0 0.349 0"/>
<feBlend mode="normal" in2="BackgroundImageFix" result="effect1_dropShadow_4232_12113"/>
<feBlend mode="normal" in="SourceGraphic" in2="effect1_dropShadow_4232_12113" result="shape"/>
</filter>
<filter id="filter1_d_4232_12113" x="37.8805" y="0.98" width="192.241" height="92.56" filterUnits="userSpaceOnUse" color-interpolation-filters="sRGB">
<feFlood flood-opacity="0" result="BackgroundImageFix"/>
<feColorMatrix in="SourceAlpha" type="matrix" values="0 0 0 0 0 0 0 0 0 0 0 0 0 0 0 0 0 0 127 0" result="hardAlpha"/>
<feOffset dy="-5.34"/>
<feGaussianBlur stdDeviation="5.34"/>
<feColorMatrix type="matrix" values="0 0 0 0 0.788235 0 0 0 0 0.803922 0 0 0 0 0.85098 0 0 0 0.349 0"/>
<feBlend mode="normal" in2="BackgroundImageFix" result="effect1_dropShadow_4232_12113"/>
<feBlend mode="normal" in="SourceGraphic" in2="effect1_dropShadow_4232_12113" result="shape"/>
</filter>
</defs>
</svg>
