<svg width="21" height="21" viewBox="0 0 21 21" fill="none" xmlns="http://www.w3.org/2000/svg">
<path d="M16.6607 0.679322C16.4209 0.440226 16.0321 0.440226 15.7923 0.679322L13.7702 2.69539L18.323 7.2347L20.345 5.21864C20.5848 4.97954 20.5848 4.59189 20.345 4.35279L16.6607 0.679322Z" fill="#71747C"/>
<path d="M17.4546 8.10055L12.9018 3.56123L4.91907 11.5204H5.17341C5.51254 11.5204 5.78747 11.7945 5.78747 12.1327V12.7449H6.40153C6.74066 12.7449 7.01558 13.019 7.01558 13.3571V13.9694H7.62964C7.96878 13.9694 8.2437 14.2435 8.2437 14.5816V15.1939H8.85776C9.19689 15.1939 9.47182 15.468 9.47182 15.8061V16.0597L17.4546 8.10055Z" fill="#71747C"/>
<path d="M8.28258 17.2455C8.25744 17.1786 8.2437 17.1062 8.2437 17.0306V16.4184H7.62964C7.29051 16.4184 7.01558 16.1443 7.01558 15.8061V15.1939H6.40153C6.06239 15.1939 5.78747 14.9198 5.78747 14.5816V13.9694H5.17341C4.83427 13.9694 4.55935 13.6953 4.55935 13.3571V12.7449H3.94529C3.86948 12.7449 3.79687 12.7312 3.72982 12.7061L3.51111 12.9242C3.4523 12.9828 3.40606 13.0528 3.37517 13.1298L0.918937 19.2522C0.827709 19.4796 0.881177 19.7393 1.05487 19.9125C1.22857 20.0857 1.48906 20.139 1.71713 20.048L7.85772 17.5991C7.93493 17.5683 8.00506 17.5222 8.06387 17.4635L8.28258 17.2455Z" fill="#71747C"/>
</svg>
