<svg width="14" height="14" viewBox="0 0 14 14" fill="none" xmlns="http://www.w3.org/2000/svg">
<path d="M6.125 12.25C6.125 12.25 5.25 12.25 5.25 11.375C5.25 10.5 6.125 7.875 9.625 7.875C13.125 7.875 14 10.5 14 11.375C14 12.25 13.125 12.25 13.125 12.25H6.125Z" fill="#4B505F"/>
<path d="M9.625 7C11.0747 7 12.25 5.82475 12.25 4.375C12.25 2.92525 11.0747 1.75 9.625 1.75C8.17525 1.75 7 2.92525 7 4.375C7 5.82475 8.17525 7 9.625 7Z" fill="#4B505F"/>
<path d="M4.56432 12.25C4.44112 12.0014 4.375 11.7067 4.375 11.375C4.375 10.189 4.96917 8.96923 6.06894 8.11997C5.58783 7.96608 5.02696 7.875 4.375 7.875C0.875 7.875 0 10.5 0 11.375C0 12.25 0.875 12.25 0.875 12.25H4.56432Z" fill="#4B505F"/>
<path d="M3.9375 7C5.14562 7 6.125 6.02062 6.125 4.8125C6.125 3.60438 5.14562 2.625 3.9375 2.625C2.72938 2.625 1.75 3.60438 1.75 4.8125C1.75 6.02062 2.72938 7 3.9375 7Z" fill="#4B505F"/>
</svg>
