<svg width="14" height="14" viewBox="0 0 14 14" fill="none" xmlns="http://www.w3.org/2000/svg">
<path d="M14 7C14 10.866 10.866 14 7 14C3.13401 14 0 10.866 0 7C0 3.13401 3.13401 0 7 0C10.866 0 14 3.13401 14 7ZM4.80929 5.27863H5.53072C5.65153 5.27863 5.74759 5.18011 5.76382 5.0604C5.84166 4.48628 6.23569 4.06781 6.93807 4.06781C7.53792 4.06781 8.08779 4.36774 8.08779 5.08978C8.08779 5.6452 7.76009 5.9007 7.24355 6.28949C6.6548 6.71716 6.18825 7.21704 6.22158 8.02795L6.22417 8.21766C6.22581 8.33729 6.32326 8.43341 6.4429 8.43341H7.15254C7.27336 8.43341 7.37129 8.33547 7.37129 8.21466V8.12238C7.37129 7.49475 7.61013 7.31146 8.25441 6.82269C8.78761 6.41724 9.34303 5.96735 9.34303 5.02313C9.34303 3.70123 8.22664 3.0625 7.00472 3.0625C5.89602 3.0625 4.68093 3.57928 4.59822 5.06288C4.59158 5.18207 4.68992 5.27863 4.80929 5.27863ZM6.84365 10.9161C7.37685 10.9161 7.74343 10.5718 7.74343 10.1052C7.74343 9.62201 7.37685 9.2832 6.84365 9.2832C6.33266 9.2832 5.96053 9.62201 5.96053 10.1052C5.96053 10.5718 6.33266 10.9161 6.84365 10.9161Z" fill="white"/>
</svg>
