<svg width="73" height="73" viewBox="0 0 73 73" fill="none" xmlns="http://www.w3.org/2000/svg">
<rect width="73" height="73" rx="36.5" fill="#ECF0F4"/>
<path fill-rule="evenodd" clip-rule="evenodd" d="M30.3248 25.1051C30.4817 23.6331 31.7276 22.4866 33.2412 22.4866H39.759C41.2726 22.4866 42.5185 23.6331 42.6754 25.1051C43.6702 25.1253 44.5304 25.1768 45.2649 25.3117C46.253 25.4932 47.0939 25.8389 47.7782 26.5232C48.5628 27.3079 48.9003 28.2958 49.058 29.4692C49.21 30.5993 49.21 32.0363 49.2099 33.819V41.7835C49.21 43.5663 49.21 45.0032 49.058 46.1334C48.9003 47.3067 48.5628 48.2947 47.7782 49.0793C46.9935 49.864 46.0056 50.2014 44.8322 50.3592C43.7021 50.5111 42.2651 50.5111 40.4823 50.5111H32.5179C30.7351 50.5111 29.2982 50.5111 28.168 50.3592C26.9946 50.2014 26.0067 49.864 25.2221 49.0793C24.4374 48.2947 24.0999 47.3067 23.9422 46.1334C23.7902 45.0032 23.7903 43.5663 23.7903 41.7835V33.819C23.7903 32.0363 23.7902 30.5993 23.9422 29.4692C24.0999 28.2958 24.4374 27.3079 25.2221 26.5232C25.9063 25.8389 26.7472 25.4932 27.7354 25.3117C28.4698 25.1768 29.33 25.1253 30.3248 25.1051ZM30.3274 27.061C29.3913 27.081 28.67 27.1281 28.0886 27.2349C27.3497 27.3706 26.9221 27.5885 26.6047 27.9059C26.2439 28.2667 26.0087 28.7732 25.8801 29.7297C25.7477 30.7144 25.7456 32.0194 25.7456 33.8906V41.712C25.7456 43.5832 25.7477 44.8882 25.8801 45.8728C26.0087 46.8294 26.2439 47.3359 26.6047 47.6967C26.9655 48.0575 27.472 48.2927 28.4285 48.4213C29.4132 48.5537 30.7182 48.5557 32.5894 48.5557H40.4108C42.282 48.5557 43.587 48.5537 44.5717 48.4213C45.5282 48.2927 46.0347 48.0575 46.3955 47.6967C46.7563 47.3359 46.9915 46.8294 47.1201 45.8728C47.2525 44.8882 47.2546 43.5832 47.2546 41.712V33.8906C47.2546 32.0194 47.2525 30.7144 47.1201 29.7297C46.9915 28.7732 46.7563 28.2667 46.3955 27.9059C46.0781 27.5885 45.6505 27.3706 44.9116 27.2349C44.3302 27.1281 43.6089 27.081 42.6728 27.061C42.5053 28.5217 41.2647 29.6562 39.759 29.6562H33.2412C31.7355 29.6562 30.4949 28.5217 30.3274 27.061ZM33.2412 24.4419C32.7012 24.4419 32.2635 24.8797 32.2635 25.4196V26.7232C32.2635 27.2631 32.7012 27.7009 33.2412 27.7009H39.759C40.299 27.7009 40.7367 27.2631 40.7367 26.7232V25.4196C40.7367 24.8797 40.299 24.4419 39.759 24.4419H33.2412ZM41.1256 34.5293C41.494 34.924 41.4726 35.5427 41.0779 35.9111L35.4912 41.1254C35.1155 41.476 34.5326 41.476 34.157 41.1254L31.9223 39.0397C31.5276 38.6713 31.5062 38.0526 31.8747 37.6579C32.2431 37.2631 32.8617 37.2418 33.2565 37.6102L34.8241 39.0733L39.7437 34.4817C40.1385 34.1132 40.7571 34.1346 41.1256 34.5293Z" fill="#3B8BC5" stroke="#3B8BC5" stroke-width="0.651786"/>
</svg>
