<svg width="20" height="21" viewBox="0 0 20 21" fill="none" xmlns="http://www.w3.org/2000/svg">
<path d="M12.1906 7.84141C12.9385 8.59048 14.3532 8.38807 15.3505 7.38931C16.3477 6.39056 16.5498 4.97368 15.8019 4.22462C15.0539 3.47556 13.6392 3.67797 12.642 4.67672C11.6447 5.67547 11.4426 7.09235 12.1906 7.84141Z" fill="#0054a6"/>
<path d="M19.764 4.24011C19.3107 6.15763 18.096 8.77274 15.2132 12.0125L14.9142 15.0228C14.8342 15.7443 14.5113 16.417 13.9988 16.9303L11.0209 19.9127C10.8266 20.1073 10.5298 20.1556 10.284 20.0325C10.0382 19.9094 9.89866 19.6426 9.93752 19.3702L10.2761 16.9964C10.3261 16.6459 10.2589 16.2549 10.1111 15.8011C10.0162 15.51 9.91127 15.2527 9.80007 14.9801C9.76645 14.8977 9.73226 14.8139 9.69761 14.7273C8.67856 14.4808 7.72521 13.8994 6.95819 13.1312C6.19101 12.3629 5.6104 11.4079 5.36443 10.387C5.27748 10.3522 5.19336 10.3178 5.11065 10.284C4.83908 10.173 4.5828 10.0683 4.29235 9.97345C3.83924 9.82547 3.44878 9.75821 3.09892 9.80826L0.728688 10.1474C0.456666 10.1863 0.190305 10.0465 0.0674178 9.80037C-0.0554695 9.55422 -0.00730999 9.25694 0.186992 9.06234L3.16491 6.0799C3.67742 5.56661 4.34911 5.24329 5.06948 5.16312L5.07706 5.16233L8.07723 4.86475C11.2559 2.03873 13.8587 0.827658 15.7791 0.359813C16.8923 0.0886279 17.7669 0.0696206 18.3789 0.125338C18.6843 0.153144 18.9227 0.199417 19.0913 0.24135C19.1755 0.262308 19.2422 0.282162 19.291 0.298046C19.5218 0.373148 19.6396 0.461103 19.7301 0.665812L19.7307 0.667198C19.7436 0.69666 19.7552 0.726787 19.7662 0.757002C19.7838 0.80546 19.8058 0.871456 19.8292 0.954741C19.8761 1.1214 19.9285 1.35688 19.9627 1.65907C20.0314 2.2648 20.0262 3.13111 19.764 4.24011ZM13.7294 13.5833L13.779 13.5335L13.6448 14.885C13.5962 15.3166 13.4027 15.7189 13.096 16.0261L11.4723 17.6522L11.5401 17.1772C11.6304 16.5442 11.4976 15.9345 11.3249 15.4044C11.2656 15.2225 11.1939 15.0302 11.1198 14.8404C12.0421 14.7596 12.9479 14.3661 13.7294 13.5833ZM6.50677 6.34975C5.72533 7.13238 5.33234 8.03938 5.2516 8.96303C5.06193 8.88878 4.86974 8.81701 4.68817 8.75772C4.15897 8.5849 3.55026 8.45197 2.91835 8.54239L2.44406 8.61024L4.06773 6.9841C4.37441 6.67695 4.77608 6.48318 5.20698 6.43443L6.5559 6.30063L6.50677 6.34975ZM18.2633 1.39882C17.7891 1.35564 17.0555 1.36489 16.0809 1.60231C14.1332 2.0768 11.1853 3.47246 7.4096 7.25395C6.63513 8.0296 6.41131 8.92968 6.55177 9.8176C6.68535 10.662 7.15547 11.5204 7.86101 12.227C8.56636 12.9335 9.42318 13.4042 10.2661 13.5382C11.1529 13.6791 12.0519 13.455 12.8266 12.6791C16.6749 8.82492 18.0657 5.87365 18.5216 3.94545C18.7496 2.98114 18.7462 2.26334 18.6941 1.80329C18.6781 1.66193 18.6574 1.54418 18.637 1.45038C18.5382 1.43146 18.4134 1.41248 18.2633 1.39882Z" fill="#0054a6"/>
<path d="M8.7611 15.2735C7.95299 14.8458 7.18348 14.2611 6.50677 13.5834C5.78863 12.8641 5.17512 12.0402 4.74254 11.1765C3.36515 12.4163 2.28616 17.4941 2.44407 17.6522C2.60053 17.8089 7.36313 16.5318 8.7611 15.2735Z" fill="#0054a6"/>
</svg>
