<svg width="20" height="20" viewBox="0 0 20 20" fill="none" xmlns="http://www.w3.org/2000/svg">
<circle cx="10" cy="10" r="2.5" stroke="#1C274C" stroke-width="1.25"/>
<path d="M11.471 1.79353C11.1648 1.66666 10.7765 1.66666 9.99991 1.66666C9.22334 1.66666 8.83505 1.66666 8.52877 1.79353C8.12039 1.96269 7.79593 2.28714 7.62678 2.69553C7.54956 2.88195 7.51934 3.09875 7.50751 3.41499C7.49013 3.87973 7.2518 4.30991 6.84904 4.54244C6.44628 4.77497 5.95458 4.76628 5.54341 4.54896C5.26362 4.40108 5.06076 4.31885 4.8607 4.29251C4.42245 4.23482 3.97924 4.35357 3.62855 4.62266C3.36554 4.82448 3.1714 5.16075 2.78311 5.83327C2.39483 6.5058 2.20069 6.84207 2.15741 7.17075C2.09972 7.609 2.21848 8.05221 2.48757 8.4029C2.61039 8.56296 2.783 8.69752 3.05091 8.86585C3.44475 9.11332 3.69816 9.53488 3.69813 10C3.69811 10.4651 3.44471 10.8866 3.05091 11.134C2.78296 11.3024 2.61032 11.437 2.48748 11.597C2.21839 11.9477 2.09964 12.3909 2.15733 12.8292C2.2006 13.1579 2.39475 13.4941 2.78303 14.1667C3.17132 14.8392 3.36546 15.1755 3.62847 15.3773C3.97915 15.6464 4.42237 15.7651 4.86062 15.7074C5.06066 15.6811 5.26352 15.5989 5.54328 15.451C5.95448 15.2337 6.44622 15.225 6.849 15.4575C7.25178 15.6901 7.49013 16.1203 7.50751 16.585C7.51934 16.9013 7.54956 17.1181 7.62678 17.3045C7.79593 17.7129 8.12039 18.0373 8.52877 18.2065C8.83505 18.3333 9.22334 18.3333 9.99991 18.3333C10.7765 18.3333 11.1648 18.3333 11.471 18.2065C11.8794 18.0373 12.2039 17.7129 12.373 17.3045C12.4503 17.118 12.4805 16.9012 12.4923 16.585C12.5097 16.1202 12.748 15.6901 13.1507 15.4575C13.5535 15.2249 14.0453 15.2336 14.4565 15.451C14.7362 15.5988 14.9391 15.681 15.1391 15.7074C15.5774 15.7651 16.0206 15.6463 16.3713 15.3772C16.6343 15.1754 16.8284 14.8391 17.2167 14.1666C17.605 13.4941 17.7991 13.1578 17.8424 12.8291C17.9001 12.3909 17.7813 11.9477 17.5123 11.597C17.3894 11.4369 17.2168 11.3023 16.9489 11.134C16.555 10.8866 16.3017 10.465 16.3017 9.99992C16.3017 9.53487 16.5551 9.1134 16.9489 8.86599C17.2168 8.69762 17.3895 8.56304 17.5123 8.40295C17.7814 8.05227 17.9002 7.60905 17.8425 7.17081C17.7992 6.84212 17.6051 6.50586 17.2168 5.83333C16.8285 5.1608 16.6344 4.82454 16.3713 4.62272C16.0207 4.35363 15.5774 4.23487 15.1392 4.29257C14.9392 4.31891 14.7363 4.40113 14.4565 4.54899C14.0453 4.76632 13.5536 4.77501 13.1508 4.54247C12.748 4.30992 12.5097 3.87971 12.4923 3.41495C12.4805 3.09873 12.4503 2.88194 12.373 2.69553C12.2039 2.28714 11.8794 1.96269 11.471 1.79353Z" stroke="#1C274C" stroke-width="1.25"/>
</svg>
