<svg width="20" height="20" viewBox="0 0 20 20" fill="none" xmlns="http://www.w3.org/2000/svg">
<path d="M15.8335 15.8333L14.5835 14.5833" stroke="#1C274C" stroke-width="1.25" stroke-linecap="round"/>
<path d="M15.8335 4.16667L14.5835 5.41667" stroke="#1C274C" stroke-width="1.25" stroke-linecap="round"/>
<path d="M4.1665 15.8333L5.4165 14.5833" stroke="#1C274C" stroke-width="1.25" stroke-linecap="round"/>
<path d="M4.1665 4.16667L5.4165 5.41667" stroke="#1C274C" stroke-width="1.25" stroke-linecap="round"/>
<path d="M1.6665 10H3.33317" stroke="#1C274C" stroke-width="1.25" stroke-linecap="round"/>
<path d="M16.6663 10L18.333 10" stroke="#1C274C" stroke-width="1.25" stroke-linecap="round"/>
<path d="M10 3.33351L10 1.66684" stroke="#1C274C" stroke-width="1.25" stroke-linecap="round"/>
<path d="M8.43438 11.9699C7.45807 10.9936 7.45807 9.41065 8.43438 8.43434C9.41069 7.45802 10.9936 7.45803 11.9699 8.43434C12.3413 8.80571 12.6007 9.57664 12.7795 10.3894C13.0469 11.6049 13.1806 12.2126 12.6966 12.6966C12.2126 13.1806 11.6049 13.0469 10.3895 12.7794C9.57669 12.6006 8.80576 12.3412 8.43438 11.9699Z" stroke="#1C274C" stroke-width="1.25"/>
<path d="M7.49984 17.9518C4.11891 16.8899 1.6665 13.7314 1.6665 10C1.6665 5.39763 5.39746 1.66667 9.99984 1.66667C14.6022 1.66667 18.3332 5.39763 18.3332 10C18.3332 13.7314 15.8808 16.8899 12.4998 17.9518" stroke="#1C274C" stroke-width="1.25" stroke-linecap="round"/>
</svg>
