<svg width="20" height="20" viewBox="0 0 20 20" fill="none" xmlns="http://www.w3.org/2000/svg">
<circle cx="10" cy="10" r="10" fill="#22AD5C"/>
<g clip-path="url(#clip0_439_6802)">
<path d="M10.0004 4.33789C6.86914 4.33789 4.33789 6.86914 4.33789 10.0004C4.33789 13.1316 6.86914 15.6816 10.0004 15.6816C13.1316 15.6816 15.6816 13.1316 15.6816 10.0004C15.6816 6.86914 13.1316 4.33789 10.0004 4.33789ZM10.0004 14.8379C7.33789 14.8379 5.18164 12.6629 5.18164 10.0004C5.18164 7.33789 7.33789 5.18164 10.0004 5.18164C12.6629 5.18164 14.8379 7.35664 14.8379 10.0191C14.8379 12.6629 12.6629 14.8379 10.0004 14.8379Z" fill="white"/>
<path d="M11.6128 8.25674L9.38155 10.4317L8.36905 9.43799C8.2003 9.26924 7.9378 9.28799 7.76905 9.43799C7.6003 9.60674 7.61905 9.86924 7.76905 10.038L8.96905 11.2005C9.08155 11.313 9.23155 11.3692 9.38155 11.3692C9.53155 11.3692 9.68155 11.313 9.79405 11.2005L12.2128 8.87549C12.3815 8.70674 12.3815 8.44424 12.2128 8.27549C12.044 8.10674 11.7815 8.10674 11.6128 8.25674Z" fill="white"/>
</g>
<defs>
<clipPath id="clip0_439_6802">
<rect width="12" height="12" fill="white" transform="translate(4 4)"/>
</clipPath>
</defs>
</svg>
