<svg width="20" height="20" viewBox="0 0 20 20" fill="none" xmlns="http://www.w3.org/2000/svg">
<path fill-rule="evenodd" clip-rule="evenodd" d="M1.46447 1.46447C0 2.92893 0 5.28596 0 10C0 14.714 0 17.0711 1.46447 18.5355C2.92893 20 5.28596 20 10 20C14.714 20 17.0711 20 18.5355 18.5355C20 17.0711 20 14.714 20 10C20 5.28596 20 2.92893 18.5355 1.46447C17.0711 0 14.714 0 10 0C5.28596 0 2.92893 0 1.46447 1.46447ZM8.54311 5.51724C8.82877 5.2173 8.81719 4.74256 8.51724 4.4569C8.2173 4.17123 7.74256 4.18281 7.4569 4.48276L5.14286 6.9125L4.54311 6.28276C4.25744 5.98281 3.78271 5.97123 3.48276 6.2569C3.18281 6.54256 3.17123 7.0173 3.4569 7.31724L4.59976 8.51724C4.74131 8.66588 4.9376 8.75 5.14286 8.75C5.34812 8.75 5.54441 8.66588 5.68596 8.51724L8.54311 5.51724ZM11 6.25C10.5858 6.25 10.25 6.58579 10.25 7C10.25 7.41422 10.5858 7.75 11 7.75H16C16.4142 7.75 16.75 7.41422 16.75 7C16.75 6.58579 16.4142 6.25 16 6.25H11ZM8.54311 12.5172C8.82877 12.2173 8.81719 11.7426 8.51724 11.4569C8.2173 11.1712 7.74256 11.1828 7.4569 11.4828L5.14286 13.9125L4.54311 13.2828C4.25744 12.9828 3.78271 12.9712 3.48276 13.2569C3.18281 13.5426 3.17123 14.0173 3.4569 14.3172L4.59976 15.5172C4.74131 15.6659 4.9376 15.75 5.14286 15.75C5.34812 15.75 5.54441 15.6659 5.68596 15.5172L8.54311 12.5172ZM11 13.25C10.5858 13.25 10.25 13.5858 10.25 14C10.25 14.4142 10.5858 14.75 11 14.75H16C16.4142 14.75 16.75 14.4142 16.75 14C16.75 13.5858 16.4142 13.25 16 13.25H11Z" fill="#3C4741"/>
</svg>
