<svg width="60" height="60" viewBox="0 0 60 60" fill="none" xmlns="http://www.w3.org/2000/svg">
<path d="M14.1731 5.71611C13.2504 4.53326 11.4967 4.4244 10.434 5.484L6.62462 9.28209C4.84332 11.0581 4.18848 13.5743 4.96674 15.7813C8.09208 24.6446 13.2088 32.9667 20.3217 40.0586C27.4346 47.1505 35.7814 52.2521 44.6709 55.3682C46.8845 56.1442 49.4081 55.4913 51.1894 53.7152L54.9987 49.9172C56.0614 48.8576 55.9523 47.109 54.7659 46.1891L46.2691 39.5999C45.6631 39.13 44.8739 38.9639 44.1291 39.1495L36.0638 41.1599C33.8731 41.706 31.5557 41.066 29.959 39.474L20.9081 30.4498C19.3113 28.8578 18.6695 26.5472 19.2171 24.363L21.2335 16.3215C21.4197 15.5789 21.2531 14.7921 20.7817 14.1878L14.1731 5.71611ZM7.6551 2.71336C10.3893 -0.0127758 14.9012 0.267295 17.2752 3.31051L23.8838 11.7822C25.0965 13.3369 25.5251 15.3611 25.046 17.2719L23.0297 25.3133C22.8168 26.1623 23.0663 27.0604 23.6869 27.6792L32.7378 36.7033C33.3584 37.3221 34.2592 37.5709 35.1106 37.3586L43.1759 35.3483C45.0923 34.8706 47.1226 35.2979 48.6818 36.507L57.1786 43.0962C60.2309 45.4631 60.5118 49.9617 57.7776 52.6878L53.9682 56.4859C51.2428 59.2032 47.1665 60.3964 43.3674 59.0647C33.9347 55.7582 25.0806 50.3448 17.5429 42.8292C10.0051 35.3137 4.57563 26.4858 1.25931 17.0809C-0.0763433 13.2931 1.12038 9.22878 3.84577 6.51144L7.6551 2.71336Z" fill="#0054a6"/>
</svg>
