<svg width="16" height="17" viewBox="0 0 16 17" fill="none" xmlns="http://www.w3.org/2000/svg">
<path d="M5.5 6C5.77614 6 6 6.22386 6 6.5V12.5C6 12.7761 5.77614 13 5.5 13C5.22386 13 5 12.7761 5 12.5V6.5C5 6.22386 5.22386 6 5.5 6Z" fill="white"/>
<path d="M8 6C8.27614 6 8.5 6.22386 8.5 6.5V12.5C8.5 12.7761 8.27614 13 8 13C7.72386 13 7.5 12.7761 7.5 12.5V6.5C7.5 6.22386 7.72386 6 8 6Z" fill="white"/>
<path d="M11 6.5C11 6.22386 10.7761 6 10.5 6C10.2239 6 10 6.22386 10 6.5V12.5C10 12.7761 10.2239 13 10.5 13C10.7761 13 11 12.7761 11 12.5V6.5Z" fill="white"/>
<path fill-rule="evenodd" clip-rule="evenodd" d="M14.5 3.5C14.5 4.05228 14.0523 4.5 13.5 4.5H13V13.5C13 14.6046 12.1046 15.5 11 15.5H5C3.89543 15.5 3 14.6046 3 13.5V4.5H2.5C1.94772 4.5 1.5 4.05228 1.5 3.5V2.5C1.5 1.94772 1.94772 1.5 2.5 1.5H6C6 0.947715 6.44772 0.5 7 0.5H9C9.55229 0.5 10 0.947715 10 1.5H13.5C14.0523 1.5 14.5 1.94772 14.5 2.5V3.5ZM4.11803 4.5L4 4.55902V13.5C4 14.0523 4.44772 14.5 5 14.5H11C11.5523 14.5 12 14.0523 12 13.5V4.55902L11.882 4.5H4.11803ZM2.5 3.5V2.5H13.5V3.5H2.5Z" fill="white"/>
</svg>
