<svg width="12" height="14" viewBox="0 0 12 14" fill="none" xmlns="http://www.w3.org/2000/svg">
<path d="M3.8125 4.81641C3.92853 4.81641 4.03981 4.8625 4.12186 4.94455C4.20391 5.02659 4.25 5.13787 4.25 5.25391V10.5039C4.25 10.6199 4.20391 10.7312 4.12186 10.8133C4.03981 10.8953 3.92853 10.9414 3.8125 10.9414C3.69647 10.9414 3.58519 10.8953 3.50314 10.8133C3.42109 10.7312 3.375 10.6199 3.375 10.5039V5.25391C3.375 5.13787 3.42109 5.02659 3.50314 4.94455C3.58519 4.8625 3.69647 4.81641 3.8125 4.81641ZM6 4.81641C6.11603 4.81641 6.22731 4.8625 6.30936 4.94455C6.39141 5.02659 6.4375 5.13787 6.4375 5.25391V10.5039C6.4375 10.6199 6.39141 10.7312 6.30936 10.8133C6.22731 10.8953 6.11603 10.9414 6 10.9414C5.88397 10.9414 5.77269 10.8953 5.69064 10.8133C5.60859 10.7312 5.5625 10.6199 5.5625 10.5039V5.25391C5.5625 5.13787 5.60859 5.02659 5.69064 4.94455C5.77269 4.8625 5.88397 4.81641 6 4.81641ZM8.625 5.25391C8.625 5.13787 8.57891 5.02659 8.49686 4.94455C8.41481 4.8625 8.30353 4.81641 8.1875 4.81641C8.07147 4.81641 7.96019 4.8625 7.87814 4.94455C7.79609 5.02659 7.75 5.13787 7.75 5.25391V10.5039C7.75 10.6199 7.79609 10.7312 7.87814 10.8133C7.96019 10.8953 8.07147 10.9414 8.1875 10.9414C8.30353 10.9414 8.41481 10.8953 8.49686 10.8133C8.57891 10.7312 8.625 10.6199 8.625 10.5039V5.25391Z" fill="#333843"/>
<path fill-rule="evenodd" clip-rule="evenodd" d="M11.6875 2.62891C11.6875 2.86097 11.5953 3.08353 11.4312 3.24762C11.2671 3.41172 11.0446 3.50391 10.8125 3.50391H10.375V11.3789C10.375 11.843 10.1906 12.2882 9.86244 12.6163C9.53425 12.9445 9.08913 13.1289 8.625 13.1289H3.375C2.91087 13.1289 2.46575 12.9445 2.13756 12.6163C1.80937 12.2882 1.625 11.843 1.625 11.3789V3.50391H1.1875C0.955436 3.50391 0.732876 3.41172 0.568782 3.24762C0.404687 3.08353 0.3125 2.86097 0.3125 2.62891V1.75391C0.3125 1.52184 0.404687 1.29928 0.568782 1.13519C0.732876 0.971093 0.955436 0.878906 1.1875 0.878906H4.25C4.25 0.646842 4.34219 0.424282 4.50628 0.260188C4.67038 0.0960935 4.89294 0.00390625 5.125 0.00390625H6.875C7.10706 0.00390625 7.32962 0.0960935 7.49372 0.260188C7.65781 0.424282 7.75 0.646842 7.75 0.878906H10.8125C11.0446 0.878906 11.2671 0.971093 11.4312 1.13519C11.5953 1.29928 11.6875 1.52184 11.6875 1.75391V2.62891ZM2.60325 3.50391L2.5 3.55553V11.3789C2.5 11.611 2.59219 11.8335 2.75628 11.9976C2.92038 12.1617 3.14294 12.2539 3.375 12.2539H8.625C8.85707 12.2539 9.07962 12.1617 9.24372 11.9976C9.40781 11.8335 9.5 11.611 9.5 11.3789V3.55553L9.39675 3.50391H2.60325ZM1.1875 2.62891V1.75391H10.8125V2.62891H1.1875Z" fill="#333843"/>
</svg>
