<svg width="20" height="20" viewBox="0 0 20 20" fill="none" xmlns="http://www.w3.org/2000/svg">
<path d="M2.5 2.5C1.11929 2.5 0 3.61929 0 5V15L3.22983e-05 15.0128C0.00694998 16.3876 1.12357 17.5 2.5 17.5H9.375C9.72018 17.5 10 17.2202 10 16.875C10 16.5298 9.72018 16.25 9.375 16.25H2.5C1.92144 16.25 1.43468 15.8569 1.29221 15.3233L8.34272 10.9845L10 11.9789L18.75 6.72887V10.625C18.75 10.9702 19.0298 11.25 19.375 11.25C19.7202 11.25 20 10.9702 20 10.625V5C20 3.61929 18.8807 2.5 17.5 2.5H2.5ZM7.1351 10.2599L1.25 13.8815V6.72887L7.1351 10.2599ZM1.25 5.27113V5C1.25 4.30964 1.80964 3.75 2.5 3.75H17.5C18.1904 3.75 18.75 4.30964 18.75 5V5.27113L10 10.5211L1.25 5.27113Z" fill="#fbbf24"/>
<path d="M15.625 20C18.0412 20 20 18.0412 20 15.625C20 13.2088 18.0412 11.25 15.625 11.25C13.2088 11.25 11.25 13.2088 11.25 15.625C11.25 18.0412 13.2088 20 15.625 20ZM16.25 13.75V15.625C16.25 15.9702 15.9702 16.25 15.625 16.25C15.2798 16.25 15 15.9702 15 15.625V13.75C15 13.4048 15.2798 13.125 15.625 13.125C15.9702 13.125 16.25 13.4048 16.25 13.75ZM16.25 17.5C16.25 17.8452 15.9702 18.125 15.625 18.125C15.2798 18.125 15 17.8452 15 17.5C15 17.1548 15.2798 16.875 15.625 16.875C15.9702 16.875 16.25 17.1548 16.25 17.5Z" fill="#fbbf24"/>
</svg>
