<svg width="49" height="30" viewBox="0 0 49 30" fill="none" xmlns="http://www.w3.org/2000/svg">
<path d="M15.4393 3.00391C15.2145 3.00423 14.9927 3.05508 14.7901 3.1527C14.5876 3.25033 14.4096 3.39223 14.2693 3.56791L5.11935 15.0039H18.4993C18.8972 15.0039 19.2787 15.1619 19.56 15.4432C19.8413 15.7245 19.9993 16.1061 19.9993 16.5039C19.9993 17.6974 20.4735 18.842 21.3174 19.6859C22.1613 20.5298 23.3059 21.0039 24.4993 21.0039C25.6928 21.0039 26.8374 20.5298 27.6813 19.6859C28.5252 18.842 28.9993 17.6974 28.9993 16.5039C28.9993 16.1061 29.1574 15.7245 29.4387 15.4432C29.72 15.1619 30.1015 15.0039 30.4993 15.0039H43.8793L34.7293 3.56791C34.5891 3.39223 34.4111 3.25033 34.2086 3.1527C34.006 3.05508 33.7842 3.00423 33.5593 3.00391H15.4393ZM45.3013 18.0039H31.8493C31.5051 19.6993 30.5853 21.2236 29.2457 22.3185C27.9062 23.4133 26.2294 24.0114 24.4993 24.0114C22.7693 24.0114 21.0925 23.4133 19.753 22.3185C18.4134 21.2236 17.4936 19.6993 17.1493 18.0039H3.69735L4.65735 25.6899C4.70274 26.0531 4.87938 26.3872 5.15401 26.6293C5.42864 26.8713 5.78229 27.0045 6.14835 27.0039H42.8503C43.2159 27.0038 43.5688 26.8702 43.8428 26.6283C44.1168 26.3863 44.293 26.0526 44.3383 25.6899L45.2983 18.0039H45.3013ZM11.9263 1.69291C12.3481 1.16563 12.8832 0.740025 13.4918 0.447647C14.1005 0.155269 14.7671 0.00360841 15.4423 0.00390669H33.5563C34.2316 0.00360841 34.8982 0.155269 35.5069 0.447647C36.1155 0.740025 36.6506 1.16563 37.0723 1.69291L48.1723 15.5679C48.2971 15.7245 48.3892 15.9044 48.4433 16.0971C48.4974 16.2898 48.5124 16.4913 48.4873 16.6899L47.3173 26.0619C47.1813 27.1506 46.6522 28.152 45.8296 28.878C45.007 29.6039 43.9475 30.0043 42.8503 30.0039H6.14835C5.05121 30.0043 3.99172 29.6039 3.16909 28.878C2.34647 28.152 1.81739 27.1506 1.68135 26.0619L0.511346 16.6899C0.486758 16.4911 0.502228 16.2894 0.556844 16.0967C0.61146 15.904 0.704116 15.7242 0.829346 15.5679L11.9293 1.69291H11.9263Z" fill="#0054a6"/>
</svg>
